{
copyright = "Copyright (c) 2011-13 by vernon adams. All rights reserved. with\012Reserved Font Names \"Rokkitt\". This\012Font Software is licensed under the SIL Open Font License, Version\0121.1. This license is available with a FAQ at:\012http://scripts.sil.org/OFL";
customParameters = (
{
name = glyphOrder;
value = (
    space,
    nbspace,
    A,
    Agrave,
    Aacute,
    Acircumflex,
    Atilde,
    Adieresis,
    Aring,
    Amacron,
    Abreve,
    Aogonek,
    uni0200,
    uni0202,
    B,
    C,
    Ccedilla,
    Cacute,
    Ccircumflex,
    Cdotaccent,
    Ccaron,
    D,
    Dcaron,
    E,
    Egrave,
    Eacute,
    Ecircumflex,
    Edieresis,
    Emacron,
    Edotaccent,
    Eogonek,
    Ecaron,
    uni0204,
    uni0206,
    F,
    G,
    Gcircumflex,
    Gbreve,
    Gdotaccent,
    Gcommaaccent,
    uni01F4,
    H,
    Hcircumflex,
    I,
    Igrave,
    Iacute,
    Icircumflex,
    Idieresis,
    Itilde,
    Imacron,
    Ibreve,
    Iogonek,
    Idotaccent,
    uni0208,
    uni020A,
    J,
    Jcircumflex,
    K,
    Kcommaaccent,
    L,
    Lacute,
    Lcommaaccent,
    Lcaron,
    M,
    N,
    Ntilde,
    Nacute,
    Ncommaaccent,
    Ncaron,
    O,
    Ograve,
    Oacute,
    Ocircumflex,
    Otilde,
    Odieresis,
    Omacron,
    Obreve,
    Ohungarumlaut,
    uni020C,
    uni020E,
    P,
    Q,
    R,
    Racute,
    Rcommaaccent,
    Rcaron,
    uni0210,
    uni0212,
    S,
    Sacute,
    Scedilla,
    Scaron,
    uni0218,
    T,
    Tcaron,
    uni021A,
    U,
    Ugrave,
    Uacute,
    Ucircumflex,
    Udieresis,
    Utilde,
    Umacron,
    Ubreve,
    Uring,
    Uhungarumlaut,
    Uogonek,
    uni0214,
    uni0216,
    V,
    W,
    X,
    Y,
    Yacute,
    Ydieresis,
    Z,
    Zacute,
    Zdotaccent,
    Zcaron,
    AE,
    Eth,
    Oslash,
    Thorn,
    Hbar,
    IJ,
    Ldot,
    Lslash,
    OE,
    uni01C4,
    uni01c7,
    uni01ca,
    uni01F1,
    a,
    agrave,
    aacute,
    acircumflex,
    atilde,
    adieresis,

glyphs = (
{
glyphname = A;
lastChange = "2013-12-17 22:01:01 -0800";
layers = (
{
anchors = (
{
name = ogonek;
position = "{1099, 0}";
},
{
name = top;
position = "{681, 1152}";
}
);
layerId = "98C086B7-81AA-4491-8494-0C6A76849168";
name = Light;
paths = (
{
closed = 1;
nodes = (
"888 1152 LINE",
"467 1152 LINE",
"467 1093 LINE",
"614 1093 LINE",
"225 58 LINE",
"73 58 LINE",
"73 0 LINE",
"454 0 LINE",
"454 58 LINE",
"306 58 LINE",
"455 470 LINE",
"899 470 LINE",
"1049 58 LINE",
"900 58 LINE",
"900 0 LINE",
"1281 0 LINE",
"1281 58 LINE",
"1129 58 LINE",
"741 1093 LINE",
"888 1093 LINE"
);
},
{
closed = 1;
nodes = (
"680 1088 LINE",
"888 527 LINE",
"475 527 LINE",
"674 1088 LINE"
);
}
);
width = 1354;
},
{
anchors = (
{
name = ogonek;
position = "{985, 0}";
},
{
name = top;
position = "{653, 1153}";
}
);
layerId = "1F09728C-766D-4240-AE17-E499EF32E23D";
name = Regular;
paths = (
{
closed = 1;
nodes = (
"901 1153 LINE",
"371 1153 LINE",
"371 1037 LINE",
"491 1037 LINE",
"171 116 LINE",
"26 116 LINE",
"26 0 LINE",
"483 0 LINE",
"483 116 LINE",
"337 116 LINE",
"433 424 LINE",
"847 424 LINE",
"946 116 LINE",
"798 116 LINE",
"798 0 LINE",
"1255 0 LINE",
"1255 116 LINE",
"1112 116 LINE",
"790 1037 LINE",
"901 1037 LINE"
);
},
{
closed = 1;
nodes = (
"648 1037 LINE",
"817 545 LINE",
"463 545 LINE",
"634 1037 LINE"
);
}
);
width = 1281;
},
{
anchors = (
{
name = ogonek;
position = "{1133, 0}";
},
{
name = top;
position = "{724, 1215}";
}
);
layerId = "EFCDB4D9-E20B-4A8D-9DB5-150AD166B0AE";
name = Bold;
paths = (
{
closed = 1;
nodes = (
"1042 1215 LINE",
"401 1215 LINE",
"401 1075 LINE",
"519 1075 LINE",
"217 141 LINE",
"76 141 LINE",
"76 0 LINE",
"576 0 LINE",
"576 141 LINE",
"417 141 LINE",
"508 436 LINE",
"910 436 LINE",
"1005 141 LINE",
"849 141 LINE",
"849 0 LINE",
"1369 0 LINE",
"1369 141 LINE",
"1236 141 LINE",
"924 1075 LINE",
"1042 1075 LINE"
);
},
{
closed = 1;
nodes = (
"720 1075 LINE",
"869 577 LINE",
"550 577 LINE",
"703 1075 LINE"
);
}
);
width = 1433;
}
);
leftKerningGroup = A_Right;
rightKerningGroup = A_Left;
unicode = 0041;
userData = {
com.typemytype.robofont.layerData = {
b = {
anchors = (
);
components = (
);
contours = (
);
lib = {
};
name = A;
unicodes = (
);
width = 1353.88;
};
};
};
},
{
glyphname = B;
lastChange = "2013-12-17 22:01:01 -0800";
layers = (
{
anchors = (
{
name = top;
position = "{573, 1152}";
}
);
components = (
{
name = uc_main_stem;
transform = "{1, 0, 0, 1, 0, 0}";
}
);
layerId = "98C086B7-81AA-4491-8494-0C6A76849168";
name = Light;
paths = (
{
closed = 1;
nodes = (
"319 1152 LINE",
"319 1093 LINE",
"740 1093 LINE SMOOTH",
"917 1093 OFFCURVE",
"1004 981 OFFCURVE",
"1004 866 CURVE SMOOTH",
"1004 749 OFFCURVE",
"928 634 OFFCURVE",
"784 634 CURVE SMOOTH",
"323 634 LINE",
"323 573 LINE",
"793 573 LINE SMOOTH",
"979 573 OFFCURVE",
"1072 439 OFFCURVE",
"1072 320 CURVE SMOOTH",
"1072 187 OFFCURVE",
"985 58 OFFCURVE",
"807 58 CURVE SMOOTH",
"322 58 LINE",
"322 0 LINE",
"807 0 LINE SMOOTH",
"1031 0 OFFCURVE",
"1146 158 OFFCURVE",
"1146 316 CURVE SMOOTH",
"1146 439 OFFCURVE",
"1074 568 OFFCURVE",
"919 611 CURVE",
"1029 669 OFFCURVE",
"1079 767 OFFCURVE",
"1079 868 CURVE SMOOTH",
"1079 1010 OFFCURVE",
"964 1152 OFFCURVE",
"740 1152 CURVE SMOOTH"
);
}
);
width = 1286;
},
{
anchors = (
{
name = top;
position = "{560, 1153}";
}
);
components = (
{
name = uc_main_stem;
transform = "{1, 0, 0, 1, 0, 0}";
}
);
layerId = "1F09728C-766D-4240-AE17-E499EF32E23D";
name = Regular;
paths = (
{
closed = 1;
nodes = (
"334 1153 LINE",
"334 1037 LINE",
"561 1037 LINE SMOOTH",
"727 1037 OFFCURVE",
"810 975 OFFCURVE",
"810 851 CURVE SMOOTH",
"810 719 OFFCURVE",
"728 662 OFFCURVE",
"585 661 CURVE SMOOTH",
"342 661 LINE",
"342 532 LINE",
"594 532 LINE SMOOTH",
"752 532 OFFCURVE",
"863 466 OFFCURVE",
"863 332 CURVE SMOOTH",
"863 188 OFFCURVE",
"771 116 OFFCURVE",
"588 116 CURVE SMOOTH",
"347 116 LINE",
"347 0 LINE",
"589 0 LINE SMOOTH",
"838 0 OFFCURVE",
"1030 94 OFFCURVE",
"1030 323 CURVE SMOOTH",
"1030 478 OFFCURVE",
"937 566 OFFCURVE",
"815 607 CURVE",
"909 649 OFFCURVE",
"976 740 OFFCURVE",
"976 854 CURVE SMOOTH",
"976 1058 OFFCURVE",
"823 1151 OFFCURVE",
"600 1153 CURVE SMOOTH"
);
}
);
width = 1155;
},
{
anchors = (
{
name = top;
position = "{562, 1152}";
}
);
components = (
{
name = uc_main_stem;
transform = "{1, 0, 0, 1, 0, 0}";
}
);
layerId = "EFCDB4D9-E20B-4A8D-9DB5-150AD166B0AE";
name = Bold;
paths = (
{
closed = 1;
nodes = (
"395 1152 LINE",
"395 1018 LINE",
"593 1018 LINE SMOOTH",
"789 1018 OFFCURVE",
"863 974 OFFCURVE",
"863 854 CURVE SMOOTH",
"863 740 OFFCURVE",
"791 678 OFFCURVE",
"616 678 CURVE SMOOTH",
"402 678 LINE",
"402 532 LINE",
"643 532 LINE SMOOTH",
"828 532 OFFCURVE",
"914 457 OFFCURVE",
"914 340 CURVE SMOOTH",
"914 212 OFFCURVE",
"845 136 OFFCURVE",
"637 136 CURVE SMOOTH",
"395 136 LINE",
"395 0 LINE",
"679 0 LINE SMOOTH",
"1039 0 OFFCURVE",
"1139 175 OFFCURVE",
"1139 331 CURVE SMOOTH",
"1139 474 OFFCURVE",
"1049 574 OFFCURVE",
"909 616 CURVE",
"1011 659 OFFCURVE",
"1083 742 OFFCURVE",
"1083 863 CURVE SMOOTH",
"1083 1051 OFFCURVE",
"936 1152 OFFCURVE",
"661 1152 CURVE SMOOTH"
);
}
);
width = 1260;
}
);
rightKerningGroup = B_Left;
unicode = 0042;
userData = {
com.typemytype.robofont.layerData = {
b = {
anchors = (
);
components = (
);
contours = (
{
points = (
{
segmentType = line;
smooth = 0;
x = 353;
y = 1095;
},
{
segmentType = line;
smooth = 1;
x = 740;
y = 1095;
},
{
smooth = 0;
x = 917;
y = 1095;
},
{
smooth = 0;
x = 1004;
y = 983;
},
{
segmentType = curve;
smooth = 1;
x = 1004;
y = 868;
},
{
smooth = 0;
x = 1004;
y = 751;
},
{
smooth = 0;
x = 928;
y = 634;
},
{
segmentType = curve;
smooth = 1;
x = 784;
y = 634;
},
{
segmentType = line;
smooth = 0;
x = 353;
y = 634;
}
);
},
{
points = (
{
segmentType = line;
smooth = 0;
x = 353;
y = 573;
},
{
segmentType = line;
smooth = 1;
x = 793;
y = 573;
},
{
smooth = 0;
x = 979;
y = 573;
},
{
smooth = 0;
x = 1072;
y = 439;
},
{
segmentType = curve;
smooth = 1;
x = 1072;
y = 320;
},
{
smooth = 0;
x = 1072;
y = 187;
},
{
smooth = 0;
x = 985;
y = 58;
},
{
segmentType = curve;
smooth = 1;
x = 807;
y = 58;
},
{
segmentType = line;
smooth = 0;
x = 353;
y = 58;
}
);
},
{
points = (
{
segmentType = line;
smooth = 1;
x = 807;
y = 0;
},
{
smooth = 0;
x = 1031;
y = 0;
},
{
smooth = 0;
x = 1146;
y = 158;
},
{
segmentType = curve;
smooth = 1;
x = 1146;
y = 316;
},
{
smooth = 0;
x = 1146;
y = 439;
},
{
smooth = 0;
x = 1074;
y = 568;
},
{
segmentType = curve;
smooth = 0;
x = 919;
y = 611;
},
{
smooth = 0;
x = 1029;
y = 669;
},
{
smooth = 0;
x = 1079;
y = 769;
},
{
segmentType = curve;
smooth = 1;
x = 1079;
y = 870;
},
{
smooth = 0;
x = 1079;
y = 1012;
},
{
smooth = 0;
x = 964;
y = 1154;
},
{
segmentType = curve;
smooth = 1;
x = 740;
y = 1154;
},
{
segmentType = line;
smooth = 0;
x = 122;
y = 1154;
},
{
segmentType = line;
smooth = 0;
x = 122;
y = 1095;
},
{
segmentType = line;
smooth = 0;
x = 278;
y = 1095;
},
{
segmentType = line;
smooth = 0;
x = 278;
y = 58;
},
{
segmentType = line;
smooth = 0;
x = 135;
y = 58;
},
{
segmentType = line;
smooth = 0;
x = 135;
y = 0;
}
);
}
);
lib = {
};
name = B;
unicodes = (
);
width = 1285.625;
};
};
};
},
{
glyphname = C;
lastChange = "2013-12-17 22:01:01 -0800";
layers = (
{
anchors = (
{
name = bot;
position = "{713, 0}";
},
{
name = top;
position = "{720, 1152}";
}
);
layerId = "98C086B7-81AA-4491-8494-0C6A76849168";
name = Light;
paths = (
{
closed = 1;
nodes = (
"367 1172 OFFCURVE",
"116 917 OFFCURVE",
"116 580 CURVE SMOOTH",
"116 171 OFFCURVE",
"420 -23 OFFCURVE",
"698 -23 CURVE SMOOTH",
"943 -23 OFFCURVE",
"1123 70 OFFCURVE",
"1235 263 CURVE",
"1171 311 LINE",
"1070 121 OFFCURVE",
"896 43 OFFCURVE",
"714 43 CURVE SMOOTH",
"361 43 OFFCURVE",
"194 307 OFFCURVE",
"194 580 CURVE SMOOTH",
"194 851 OFFCURVE",
"386 1104 OFFCURVE",
"714 1104 CURVE SMOOTH",
"945 1104 OFFCURVE",
"1101 967 OFFCURVE",
"1169 816 CURVE",
"1227 828 LINE",
"1227 1152 LINE",
"1157 1152 LINE",
"1157 959 LINE",
"1056 1100 OFFCURVE",
"890 1172 OFFCURVE",
"703 1172 CURVE SMOOTH"
);
}
);
width = 1377;
},
{
anchors = (
{
name = bot;
position = "{700, 0}";
},
{
name = top;
position = "{722, 1153}";
}
);
layerId = "1F09728C-766D-4240-AE17-E499EF32E23D";
name = Regular;
paths = (
{
closed = 1;
nodes = (
"359 1171 OFFCURVE",
"108 939 OFFCURVE",
"108 575 CURVE SMOOTH",
"110 214 OFFCURVE",
"356 -18 OFFCURVE",
"700 -18 CURVE SMOOTH",
"963 -18 OFFCURVE",
"1147 113 OFFCURVE",
"1227 307 CURVE",
"1092 378 LINE",
"1035 203 OFFCURVE",
"901 116 OFFCURVE",
"689 116 CURVE SMOOTH",
"458 116 OFFCURVE",
"285 313 OFFCURVE",
"285 580 CURVE SMOOTH",
"285 837 OFFCURVE",
"463 1037 OFFCURVE",
"690 1037 CURVE SMOOTH",
"870 1037 OFFCURVE",
"995 960 OFFCURVE",
"1071 807 CURVE",
"1196 807 LINE",
"1196 1153 LINE",
"1066 1153 LINE",
"1066 1022 LINE",
"971 1121 OFFCURVE",
"851 1171 OFFCURVE",
"708 1171 CURVE SMOOTH"
);
}
);
width = 1300;
},
{
anchors = (
{
name = bot;
position = "{759, 0}";
},
{
name = top;
position = "{745, 1215}";
}
);
layerId = "EFCDB4D9-E20B-4A8D-9DB5-150AD166B0AE";
name = Bold;
paths = (
{
closed = 1;
nodes = (
"349 1174 OFFCURVE",
"112 928 OFFCURVE",
"112 576 CURVE SMOOTH",
"112 252 OFFCURVE",
"322 -20 OFFCURVE",
"721 -22 CURVE SMOOTH",
"961 -20 OFFCURVE",
"1182 64 OFFCURVE",
"1269 340 CURVE",
"1106 417 LINE",
"1056 218 OFFCURVE",
"904 138 OFFCURVE",
"736 138 CURVE SMOOTH",
"484 138 OFFCURVE",
"333 328 OFFCURVE",
"333 579 CURVE SMOOTH",
"333 834 OFFCURVE",
"497 1014 OFFCURVE",
"737 1014 CURVE SMOOTH",
"883 1014 OFFCURVE",
"1012 954 OFFCURVE",
"1087 791 CURVE",
"1234 791 LINE",
"1234 1155 LINE",
"1078 1155 LINE",
"1078 1035 LINE",
"990 1119 OFFCURVE",
"870 1174 OFFCURVE",
"722 1174 CURVE SMOOTH"
);
}
);
width = 1440;
}
);
leftKerningGroup = O_Right;
unicode = 0043;
userData = {
com.typemytype.robofont.layerData = {
b = {
anchors = (
);
components = (
);
contours = (
);
lib = {
};
name = C;
unicodes = (
);
width = 1377.255;
};
};
};
},
{
glyphname = D;
lastChange = "2013-12-17 22:02:42 -0800";
layers = (
{
anchors = (
{
name = mid;
position = "{318, 592}";
},
{
name = top;
position = "{640, 1152}";
}
);
components = (
{
name = uc_main_stem;
transform = "{1, 0, 0, 1, 0, 0}";
}
);
layerId = "98C086B7-81AA-4491-8494-0C6A76849168";
name = Light;
paths = (
{
closed = 1;
nodes = (
"314 1152 LINE",
"314 1093 LINE",
"770 1093 LINE SMOOTH",
"1058 1093 OFFCURVE",
"1201 835 OFFCURVE",
"1201 576 CURVE SMOOTH",
"1201 316 OFFCURVE",
"1059 58 OFFCURVE",
"770 58 CURVE SMOOTH",
"314 58 LINE",
"314 0 LINE",
"770 0 LINE SMOOTH",
"1110 0 OFFCURVE",
"1280 286 OFFCURVE",
"1280 574 CURVE SMOOTH",
"1280 863 OFFCURVE",
"1109 1152 OFFCURVE",
"770 1152 CURVE SMOOTH"
);
}
);
width = 1400;
},
{
anchors = (
{
name = mid;
position = "{355, 591}";
},
{
name = top;
position = "{640, 1153}";
}
);
components = (
{
name = uc_main_stem;
transform = "{1, 0, 0, 1, 0, 0}";
}
);
layerId = "1F09728C-766D-4240-AE17-E499EF32E23D";
name = Regular;
paths = (
{
closed = 1;
nodes = (
"319 1153 LINE",
"319 1036 LINE",
"664 1036 LINE SMOOTH",
"952 1036 OFFCURVE",
"1089 865 OFFCURVE",
"1089 581 CURVE SMOOTH",
"1089 308 OFFCURVE",
"955 116 OFFCURVE",
"680 116 CURVE SMOOTH",
"319 116 LINE",
"319 0 LINE",
"654 0 LINE SMOOTH",
"1054 0 OFFCURVE",
"1254 199 OFFCURVE",
"1254 596 CURVE SMOOTH",
"1254 963 OFFCURVE",
"1031 1153 OFFCURVE",
"668 1153 CURVE SMOOTH"
);
}
);
width = 1362;
},
{
anchors = (
{
name = mid;
position = "{389, 579}";
},
{
name = top;
position = "{642, 1152}";
}
);
components = (
{
name = uc_main_stem;
transform = "{1, 0, 0, 1, 0, 0}";
}
);
layerId = "EFCDB4D9-E20B-4A8D-9DB5-150AD166B0AE";
name = Bold;
paths = (
{
closed = 1;
nodes = (
"125 1152 LINE",
"125 1012 LINE",
"714 1012 LINE SMOOTH",
"1015 1012 OFFCURVE",
"1138 814 OFFCURVE",
"1138 589 CURVE SMOOTH",
"1138 319 OFFCURVE",
"1019 141 OFFCURVE",
"706 141 CURVE SMOOTH",
"125 141 LINE",
"125 0 LINE",
"725 0 LINE SMOOTH",
"1150 0 OFFCURVE",
"1364 216 OFFCURVE",
"1364 595 CURVE SMOOTH",
"1364 889 OFFCURVE",
"1159 1152 OFFCURVE",
"726 1152 CURVE SMOOTH"
);
}
);
width = 1488;
}
);
leftKerningGroup = H_Right;
rightKerningGroup = O_Left;
unicode = 0044;
userData = {
com.typemytype.robofont.layerData = {
b = {
anchors = (
);
components = (
);
contours = (
);
lib = {
};
name = D;
unicodes = (
);
width = 1400;
};
};
};
},
{
glyphname = E;
lastChange = "2013-12-17 22:01:01 -0800";
layers = (
{
anchors = (
{
name = ogonek;
position = "{686, 0}";
},
{
name = top;
position = "{652, 1152}";
}
);
components = (
{
name = uc_main_stem;
transform = "{1, 0, 0, 1, 0, 0}";
}
);
layerId = "98C086B7-81AA-4491-8494-0C6A76849168";
name = Light;
paths = (
{
closed = 1;
nodes = (
"1055 1152 LINE",
"315 1152 LINE",
"315 1093 LINE",
"984 1093 LINE",
"984 802 LINE",
"1055 802 LINE"
);
},
{
closed = 1;
nodes = (
"830 770 LINE",
"768 770 LINE",
"768 623 LINE",
"321 623 LINE",
"321 557 LINE",
"768 557 LINE",
"768 396 LINE",
"830 396 LINE"
);
},
{
closed = 1;
nodes = (
"1075 352 LINE",
"1003 352 LINE",
"1003 58 LINE",
"315 58 LINE",
"315 0 LINE",
"1075 0 LINE"
);
}
);
width = 1211;
},
{
anchors = (
{
name = ogonek;
position = "{755, 0}";
},
{
name = top;
position = "{637, 1153}";
}
);
components = (
{
name = uc_main_stem;
transform = "{1, 0, 0, 1, 0, 0}";
}
);
layerId = "1F09728C-766D-4240-AE17-E499EF32E23D";
name = Regular;
paths = (
{
closed = 1;
nodes = (
"1085 1152 LINE",
"334 1152 LINE",
"334 1037 LINE",
"954 1037 LINE",
"954 818 LINE",
"1085 818 LINE"
);
},
{
closed = 1;
nodes = (
"891 769 LINE",
"791 769 LINE",
"791 655 LINE",
"338 655 LINE",
"340 526 LINE",
"790 526 LINE",
"790 410 LINE",
"891 410 LINE"
);
},
{
closed = 1;
nodes = (
"1085 328 LINE",
"956 328 LINE",
"956 116 LINE",
"334 116 LINE",
"334 0 LINE",
"1085 0 LINE"
);
}
);
width = 1209;
},
{
anchors = (
{
name = bot;
position = "{695, 0}";
},
{
name = ogonek;
position = "{755, 0}";
},
{
name = top;
position = "{686, 1152}";
}
);
components = (
{
name = uc_main_stem;
transform = "{1, 0, 0, 1, 0, 0}";
}
);
layerId = "EFCDB4D9-E20B-4A8D-9DB5-150AD166B0AE";
name = Bold;
paths = (
{
closed = 1;
nodes = (
"1164 1152 LINE",
"397 1152 LINE",
"397 1012 LINE",
"998 1012 LINE",
"998 804 LINE",
"1164 804 LINE"
);
},
{
closed = 1;
nodes = (
"931 792 LINE",
"829 792 LINE",
"829 676 LINE",
"408 676 LINE",
"409 527 LINE",
"829 527 LINE",
"829 414 LINE",
"931 414 LINE"
);
},
{
closed = 1;
nodes = (
"1166 355 LINE",
"1000 355 LINE",
"1000 141 LINE",
"397 141 LINE",
"397 0 LINE",
"1166 0 LINE"
);
}
);
width = 1314;
}
);
leftKerningGroup = H_Right;
unicode = 0045;
userData = {
com.typemytype.robofont.layerData = {
b = {
anchors = (
);
components = (
);
contours = (
);
lib = {
};
name = E;
unicodes = (
);
width = 1210.825;
};
};
};
},
{
glyphname = F;
lastChange = "2013-12-17 22:01:01 -0800";
layers = (
{
components = (
{
name = uc_main_stem;
transform = "{1, 0, 0, 1, 0, 0}";
}
);
layerId = "98C086B7-81AA-4491-8494-0C6A76849168";
name = Light;
paths = (
{
closed = 1;
nodes = (
"1059 1152 LINE",
"315 1152 LINE",
"315 1093 LINE",
"988 1093 LINE",
"988 802 LINE",
"1059 802 LINE"
);
},
{
closed = 1;
nodes = (
"870 770 LINE",
"808 770 LINE",
"808 623 LINE",
"323 623 LINE",
"323 557 LINE",
"808 557 LINE",
"808 396 LINE",
"870 396 LINE"
);
}
);
width = 1137;
},
{
anchors = (
{
name = top;
position = "{610, 1153}";
}
);
components = (
{
name = uc_main_stem;
transform = "{1, 0, 0, 1, 0, 0}";
}
);
layerId = "1F09728C-766D-4240-AE17-E499EF32E23D";
name = Regular;
paths = (
{
closed = 1;
nodes = (
"1031 1153 LINE",
"333 1153 LINE",
"333 1037 LINE",
"899 1037 LINE",
"899 818 LINE",
"1031 818 LINE"
);
},
{
closed = 1;
nodes = (
"840 771 LINE",
"740 771 LINE",
"740 657 LINE",
"337 657 LINE",
"338 528 LINE",
"739 528 LINE",
"739 412 LINE",
"840 412 LINE"
);
}
);
width = 1077;
},
{
components = (
{
name = uc_main_stem;
transform = "{1, 0, 0, 1, 0, 0}";
}
);
layerId = "EFCDB4D9-E20B-4A8D-9DB5-150AD166B0AE";
name = Bold;
paths = (
{
closed = 1;
nodes = (
"1131 1152 LINE",
"377 1152 LINE",
"377 1012 LINE",
"962 1012 LINE",
"962 805 LINE",
"1131 805 LINE"
);
},
{
closed = 1;
nodes = (
"891 809 LINE",
"785 809 LINE",
"785 697 LINE",
"398 697 LINE",
"398 547 LINE",
"785 547 LINE",
"785 434 LINE",
"891 434 LINE"
);
}
);
width = 1193;
}
);
leftKerningGroup = H_Right;
unicode = 0046;
userData = {
com.typemytype.robofont.layerData = {
b = {
anchors = (
);
components = (
);
contours = (
{
points = (
{
segmentType = line;
smooth = 0;
x = 990;
y = 1086;
},
{
segmentType = line;
smooth = 0;
x = 990;
y = 802;
},
{
segmentType = line;
smooth = 0;
x = 1062;
y = 802;
},
{
segmentType = line;
smooth = 0;
x = 1062;
y = 1152;
},
{
segmentType = line;
smooth = 0;
x = 122;
y = 1152;
},
{
segmentType = line;
smooth = 0;
x = 122;
y = 1086;
},
{
segmentType = line;
smooth = 0;
x = 286;
y = 1086;
},
{
segmentType = line;
smooth = 0;
x = 286;
y = 1039;
},
{
segmentType = line;
smooth = 0;
x = 363;
y = 1039;
},
{
segmentType = line;
smooth = 0;
x = 363;
y = 1086;
}
);
},
{
points = (
{
segmentType = line;
smooth = 0;
x = 286;
y = 1039;
},
{
segmentType = line;
smooth = 0;
x = 286;
y = 677;
},
{
segmentType = line;
smooth = 0;
x = 363;
y = 677;
},
{
segmentType = line;
smooth = 0;
x = 363;
y = 1039;
}
);
},
{
points = (
{
segmentType = line;
smooth = 0;
x = 286;
y = 677;
},
{
segmentType = line;
smooth = 0;
x = 286;
y = 65;
},
{
segmentType = line;
smooth = 0;
x = 122;
y = 65;
},
{
segmentType = line;
smooth = 0;
x = 122;
y = 0;
},
{
segmentType = line;
smooth = 0;
x = 552;
y = 0;
},
{
segmentType = line;
smooth = 0;
x = 552;
y = 65;
},
{
segmentType = line;
smooth = 0;
x = 363;
y = 65;
},
{
segmentType = line;
smooth = 0;
x = 363;
y = 539;
},
{
segmentType = line;
smooth = 0;
x = 824;
y = 539;
},
{
segmentType = line;
smooth = 0;
x = 824;
y = 378;
},
{
segmentType = line;
smooth = 0;
x = 886;
y = 378;
},
{
segmentType = line;
smooth = 0;
x = 886;
y = 764;
},
{
segmentType = line;
smooth = 0;
x = 824;
y = 764;
},
{
segmentType = line;
smooth = 0;
x = 824;
y = 601;
},
{
segmentType = line;
smooth = 0;
x = 363;
y = 601;
},
{
segmentType = line;
smooth = 0;
x = 363;
y = 677;
}
);
}
);
lib = {
};
name = F;
unicodes = (
);
width = 1136.96;
};
};
};
},
{
glyphname = G;
lastChange = "2013-12-17 22:01:01 -0800";
layers = (
{
anchors = (
{
name = bot;
position = "{713, 0}";
},
{
name = top;
position = "{702, 1152}";
}
);
layerId = "98C086B7-81AA-4491-8494-0C6A76849168";
name = Light;
paths = (
{
closed = 1;
nodes = (
"367 1172 OFFCURVE",
"116 917 OFFCURVE",
"116 580 CURVE SMOOTH",
"116 171 OFFCURVE",
"424 -23 OFFCURVE",
"702 -23 CURVE SMOOTH",
"949 -23 OFFCURVE",
"1253 93 OFFCURVE",
"1253 549 CURVE",
"927 549 LINE",
"927 488 LINE",
"1174 488 LINE",
"1168 146 OFFCURVE",
"906 43 OFFCURVE",
"714 43 CURVE SMOOTH",
"361 43 OFFCURVE",
"194 303 OFFCURVE",
"194 580 CURVE SMOOTH",
"194 851 OFFCURVE",
"386 1104 OFFCURVE",
"714 1104 CURVE SMOOTH",
"934 1104 OFFCURVE",
"1081 978 OFFCURVE",
"1146 838 CURVE",
"1204 838 LINE",
"1204 1152 LINE",
"1134 1152 LINE",
"1134 981 LINE",
"1037 1107 OFFCURVE",
"882 1172 OFFCURVE",
"703 1172 CURVE SMOOTH"
);
}
);
width = 1385;
},
{
anchors = (
{
name = bot;
position = "{718, 0}";
},
{
name = top;
position = "{690, 1153}";
}
);
layerId = "1F09728C-766D-4240-AE17-E499EF32E23D";
name = Regular;
paths = (
{
closed = 1;
nodes = (
"352 1171 OFFCURVE",
"108 925 OFFCURVE",
"108 575 CURVE SMOOTH",
"108 201 OFFCURVE",
"372 -18 OFFCURVE",
"716 -18 CURVE SMOOTH",
"1079 -18 OFFCURVE",
"1265 179 OFFCURVE",
"1265 563 CURVE",
"874 563 LINE",
"874 436 LINE",
"1101 436 LINE",
"1094 235 OFFCURVE",
"961 116 OFFCURVE",
"715 116 CURVE SMOOTH",
"462 116 OFFCURVE",
"285 304 OFFCURVE",
"285 576 CURVE SMOOTH",
"285 843 OFFCURVE",
"461 1037 OFFCURVE",
"704 1037 CURVE SMOOTH",
"881 1037 OFFCURVE",
"1009 960 OFFCURVE",
"1088 806 CURVE",
"1212 806 LINE",
"1212 1153 LINE",
"1082 1153 LINE",
"1082 1022 LINE",
"983 1121 OFFCURVE",
"854 1171 OFFCURVE",
"695 1171 CURVE SMOOTH"
);
}
);
width = 1370;
},
{
anchors = (
{
name = bot;
position = "{745, 0}";
},
{
name = top;
position = "{745, 1215}";
}
);
layerId = "EFCDB4D9-E20B-4A8D-9DB5-150AD166B0AE";
name = Bold;
paths = (
{
closed = 1;
nodes = (
"317 1233 OFFCURVE",
"124 914 OFFCURVE",
"124 610 CURVE SMOOTH",
"124 338 OFFCURVE",
"278 -19 OFFCURVE",
"774 -19 CURVE SMOOTH",
"1146 -19 OFFCURVE",
"1379 166 OFFCURVE",
"1383 598 CURVE",
"916 598 LINE",
"916 448 LINE",
"1152 448 LINE",
"1146 258 OFFCURVE",
"1023 146 OFFCURVE",
"783 141 CURVE SMOOTH",
"523 141 OFFCURVE",
"362 327 OFFCURVE",
"362 615 CURVE SMOOTH",
"362 882 OFFCURVE",
"516 1074 OFFCURVE",
"777 1074 CURVE SMOOTH",
"950 1074 OFFCURVE",
"1081 991 OFFCURVE",
"1154 831 CURVE",
"1309 831 LINE",
"1309 1215 LINE",
"1138 1215 LINE",
"1138 1093 LINE",
"1049 1177 OFFCURVE",
"913 1233 OFFCURVE",
"751 1233 CURVE SMOOTH"
);
}
);
width = 1488;
}
);
leftKerningGroup = O_Right;
unicode = 0047;
userData = {
com.typemytype.robofont.layerData = {
b = {
anchors = (
);
components = (
);
contours = (
);
lib = {
};
name = G;
unicodes = (
);
width = 1384.735;
};
};
};
},
{
glyphname = H;
lastChange = "2013-12-17 22:01:35 -0800";
layers = (
{
anchors = (
{
name = bot;
position = "{724, 0}";
},
{
name = top;
position = "{721, 1152}";
}
);
components = (
{
name = uc_main_stem;
transform = "{1, 0, 0, 1, 810, 0}";
},
{
name = uc_main_stem;
transform = "{1, 0, 0, 1, 0, 0}";
}
);
layerId = "98C086B7-81AA-4491-8494-0C6A76849168";
name = Light;
paths = (
{
closed = 1;
nodes = (
"1130 618 LINE",
"320 618 LINE",
"320 559 LINE",
"1130 559 LINE"
);
}
);
width = 1445;
},
{
anchors = (
{
name = bot;
position = "{692, 0}";
},
{
name = top;
position = "{687, 1153}";
}
);
components = (
{
name = uc_main_stem;
transform = "{1, 0, 0, 1, 712, 0}";
},
{
name = uc_main_stem;
transform = "{1, 0, 0, 1, 0, 0}";
}
);
layerId = "1F09728C-766D-4240-AE17-E499EF32E23D";
name = Regular;
paths = (
{
closed = 1;
nodes = (
"1042 667 LINE",
"342 667 LINE",
"343 538 LINE",
"1043 538 LINE"
);
}
);
width = 1354;
},
{
anchors = (
{
name = bot;
position = "{762, 0}";
},
{
name = top;
position = "{777, 1152}";
}
);
components = (
{
name = uc_main_stem;
transform = "{1, 0, 0, 1, 752, 0}";
},
{
name = uc_main_stem;
transform = "{1, 0, 0, 1, 0, 0}";
}
);
layerId = "EFCDB4D9-E20B-4A8D-9DB5-150AD166B0AE";
name = Bold;
paths = (
{
closed = 1;
nodes = (
"1144 674 LINE",
"406 674 LINE",
"406 521 LINE",
"1144 521 LINE"
);
}
);
width = 1513;
}
);
leftKerningGroup = H_Right;
rightKerningGroup = H_Left;
unicode = 0048;
userData = {
com.typemytype.robofont.layerData = {
b = {
anchors = (
);
components = (
);
contours = (
);
lib = {
};
name = H;
unicodes = (
);
width = 1445;
};
};
};
},
{
glyphname = J;
lastChange = "2013-12-17 22:01:01 -0800";
layers = (
{
anchors = (
{
name = top;
position = "{369, 1152}";
}
);
layerId = "98C086B7-81AA-4491-8494-0C6A76849168";
name = Light;
paths = (
{
closed = 1;
nodes = (
"532 1152 LINE",
"195 1152 LINE",
"195 1096 LINE",
"325 1096 LINE",
"325 166 LINE SMOOTH",
"325 45 OFFCURVE",
"310 0 OFFCURVE",
"229 0 CURVE SMOOTH",
"107 0 LINE",
"107 -67 LINE",
"224 -67 LINE SMOOTH",
"342 -67 OFFCURVE",
"402 -23 OFFCURVE",
"402 156 CURVE SMOOTH",
"402 1096 LINE",
"532 1096 LINE"
);
}
);
width = 611;
},
{
anchors = (
{
name = top;
position = "{426, 1152}";
}
);
layerId = "1F09728C-766D-4240-AE17-E499EF32E23D";
name = Regular;
paths = (
{
closed = 1;
nodes = (
"655 1152 LINE",
"184 1152 LINE",
"184 1036 LINE",
"339 1036 LINE",
"339 148 LINE SMOOTH",
"339 53 OFFCURVE",
"318 0 OFFCURVE",
"228 0 CURVE SMOOTH",
"108 0 LINE",
"108 -135 LINE",
"255 -135 LINE SMOOTH",
"414 -137 OFFCURVE",
"502 -30 OFFCURVE",
"502 143 CURVE SMOOTH",
"502 1036 LINE",
"655 1036 LINE"
);
}
);
width = 761;
},
{
anchors = (
{
name = top;
position = "{455, 1152}";
}
);
layerId = "EFCDB4D9-E20B-4A8D-9DB5-150AD166B0AE";
name = Bold;
paths = (
{
closed = 1;
nodes = (
"727 1152 LINE",
"177 1152 LINE",
"177 1012 LINE",
"346 1012 LINE",
"346 42 LINE SMOOTH",
"346 -48 OFFCURVE",
"327 -121 OFFCURVE",
"219 -121 CURVE SMOOTH",
"94 -121 LINE",
"94 -294 LINE",
"265 -294 LINE SMOOTH",
"489 -294 OFFCURVE",
"565 -159 OFFCURVE",
"565 50 CURVE SMOOTH",
"565 1012 LINE",
"727 1012 LINE"
);
}
);
width = 792;
}
);
unicode = 004A;
userData = {
com.typemytype.robofont.layerData = {
b = {
anchors = (
);
components = (
);
contours = (
);
lib = {
};
name = J;
unicodes = (
);
width = 611.49;
};
};
};
},
{
glyphname = K;
lastChange = "2013-12-17 22:01:01 -0800";
layers = (
{
anchors = (
{
name = bot;
position = "{663, 0}";
},
{
name = top;
position = "{650, 1152}";
}
);
components = (
{
name = uc_main_stem;
transform = "{1, 0, 0, 1, 0, 0}";
}
);
layerId = "98C086B7-81AA-4491-8494-0C6A76849168";
name = Light;
paths = (
{
closed = 1;
nodes = (
"1168 1152 LINE",
"764 1152 LINE",
"764 1096 LINE",
"907 1096 LINE",
"350 593 LINE",
"952 56 LINE",
"796 56 LINE",
"796 0 LINE",
"1201 0 LINE",
"1201 56 LINE",
"1062 56 LINE",
"448 593 LINE",
"1006 1096 LINE",
"1168 1096 LINE"
);
}
);
width = 1270;
},
{
anchors = (
{
name = bot;
position = "{660, 0}";
},
{
name = top;
position = "{670, 1153}";
}
);
components = (
{
name = uc_main_stem;
transform = "{1, 0, 0, 1, 14, 0}";
}
);
layerId = "1F09728C-766D-4240-AE17-E499EF32E23D";
name = Regular;
paths = (
{
closed = 1;
nodes = (
"1194 1153 LINE",
"743 1153 LINE",
"743 1037 LINE",
"879 1037 LINE",
"424 604 LINE",
"425 573 LINE",
"892 116 LINE",
"739 116 LINE",
"739 0 LINE",
"1220 0 LINE",
"1220 116 LINE",
"1089 116 LINE",
"600 589 LINE",
"1065 1037 LINE",
"1194 1037 LINE"
);
}
);
width = 1237;
},
{
anchors = (
{
name = bot;
position = "{704, 0}";
},
{
name = top;
position = "{715, 1152}";
}
);
components = (
{
name = uc_main_stem;
transform = "{1, 0, 0, 1, 0, 0}";
}
);
layerId = "EFCDB4D9-E20B-4A8D-9DB5-150AD166B0AE";
name = Bold;
paths = (
{
closed = 1;
nodes = (
"1319 1152 LINE",
"802 1152 LINE",
"802 1012 LINE",
"922 1012 LINE",
"484 595 LINE",
"485 546 LINE",
"900 141 LINE",
"776 141 LINE",
"776 0 LINE",
"1320 0 LINE",
"1320 141 LINE",
"1169 141 LINE",
"719 579 LINE",
"1180 1012 LINE",
"1319 1012 LINE"
);
}
);
width = 1384;
}
);
leftKerningGroup = H_Right;
unicode = 004B;
userData = {
com.typemytype.robofont.guides = (
{
angle = 0;
isGlobal = 0;
magnetic = 5;
x = 467;
y = 593;
}
);
com.typemytype.robofont.layerData = {
b = {
anchors = (
);
components = (
);
contours = (
);
lib = {
};
name = K;
unicodes = (
);
width = 1269.73;
};
};
};
},
{
glyphname = L;
lastChange = "2013-12-17 22:01:01 -0800";
layers = (
{
anchors = (
{
name = bot;
position = "{613, 0}";
},
{
name = mid;
position = "{684, 805}";
},
{
name = top;
position = "{680, 1152}";
}
);
components = (
{
name = uc_main_stem;
transform = "{1, 0, 0, 1, 0, 0}";
}
);
layerId = "98C086B7-81AA-4491-8494-0C6A76849168";
name = Light;
paths = (
{
closed = 1;
nodes = (
"987 385 LINE",
"916 385 LINE",
"916 58 LINE",
"314 58 LINE",
"314 0 LINE",
"987 0 LINE"
);
}
);
width = 1041;
},
{
anchors = (
{
name = bot;
position = "{555, 0}";
},
{
name = top;
position = "{640, 1153}";
}
);
components = (
{
name = uc_main_stem;
transform = "{1, 0, 0, 1, 0, 0}";
}
);
layerId = "1F09728C-766D-4240-AE17-E499EF32E23D";
name = Regular;
paths = (
{
closed = 1;
nodes = (
"988 452 LINE",
"843 452 LINE",
"843 116 LINE",
"334 116 LINE",
"334 0 LINE",
"988 0 LINE"
);
}
);
width = 1084;
},
{
anchors = (
{
name = bot;
position = "{599, 0}";
},
{
name = mid;
position = "{805, 733}";
},
{
name = top;
position = "{825, 1152}";
}
);
components = (
{
name = uc_main_stem;
transform = "{1, 0, 0, 1, 0, 0}";
}
);
layerId = "EFCDB4D9-E20B-4A8D-9DB5-150AD166B0AE";
name = Bold;
paths = (
{
closed = 1;
nodes = (
"1101 506 LINE",
"921 506 LINE",
"921 141 LINE",
"395 141 LINE",
"395 0 LINE",
"1101 0 LINE"
);
}
);
width = 1189;
}
);
leftKerningGroup = H_Right;
unicode = 004C;
userData = {
com.typemytype.robofont.layerData = {
b = {
anchors = (
);
components = (
);
contours = (
);
lib = {
};
name = L;
unicodes = (
);
width = 1040.655;
};
};
};
},
{
glyphname = M;
lastChange = "2013-12-17 22:01:01 -0800";
layers = (
{
anchors = (
{
name = top;
position = "{800, 1152}";
}
);
layerId = "98C086B7-81AA-4491-8494-0C6A76849168";
name = Light;
paths = (
{
closed = 1;
nodes = (
"1482 1152 LINE",
"1243 1152 LINE",
"812 226 LINE",
"362 1152 LINE",
"122 1152 LINE",
"122 1093 LINE",
"273 1093 LINE",
"273 58 LINE",
"122 58 LINE",
"122 0 LINE",
"497 0 LINE",
"497 58 LINE",
"347 58 LINE",
"347 1015 LINE",
"804 88 LINE",
"819 88 LINE",
"1258 1015 LINE",
"1258 58 LINE",
"1107 58 LINE",
"1107 0 LINE",
"1482 0 LINE",
"1482 58 LINE",
"1331 58 LINE",
"1331 1093 LINE",
"1482 1093 LINE"
);
}
);
width = 1604;
},
{
anchors = (
{
name = top;
position = "{850, 1153}";
}
);
layerId = "1F09728C-766D-4240-AE17-E499EF32E23D";
name = Regular;
paths = (
{
closed = 1;
nodes = (
"1560 1153 LINE",
"1170 1153 LINE",
"832 362 LINE",
"499 1153 LINE",
"114 1153 LINE",
"114 1037 LINE",
"262 1037 LINE",
"262 116 LINE",
"114 116 LINE",
"114 0 LINE",
"529 0 LINE",
"529 116 LINE",
"396 116 LINE",
"396 1022 LINE",
"808 45 LINE",
"850 45 LINE",
"1265 1023 LINE",
"1265 116 LINE",
"1132 116 LINE",
"1132 0 LINE",
"1560 0 LINE",
"1560 116 LINE",
"1413 116 LINE",
"1413 1037 LINE",
"1560 1037 LINE"
);
}
);
width = 1674;
},
{
anchors = (
{
name = top;
position = "{925, 1152}";
}
);
layerId = "EFCDB4D9-E20B-4A8D-9DB5-150AD166B0AE";
name = Bold;
paths = (
{
closed = 1;
nodes = (
"1730 1152 LINE",
"1253 1152 LINE",
"921 399 LINE",
"586 1152 LINE",
"125 1152 LINE",
"125 1012 LINE",
"282 1012 LINE",
"282 141 LINE",
"125 141 LINE",
"125 0 LINE",
"587 0 LINE",
"587 141 LINE",
"440 141 LINE",
"440 997 LINE",
"866 40 LINE",
"941 40 LINE",
"1369 998 LINE",
"1369 141 LINE",
"1222 141 LINE",
"1222 0 LINE",
"1731 0 LINE",
"1731 141 LINE",
"1574 141 LINE",
"1574 1012 LINE",
"1730 1012 LINE"
);
}
);
width = 1856;
}
);
leftKerningGroup = H_Right;
rightKerningGroup = H_Left;
unicode = 004D;
userData = {
com.typemytype.robofont.layerData = {
b = {
anchors = (
);
components = (
);
contours = (
);
lib = {
};
name = M;
unicodes = (
);
width = 1604.46;
};
};
};
},
{
glyphname = N;
lastChange = "2013-12-17 22:01:01 -0800";
layers = (
{
anchors = (
{
name = bot;
position = "{713, 0}";
},
{
name = top;
position = "{710, 1152}";
}
);
layerId = "98C086B7-81AA-4491-8494-0C6A76849168";
name = Light;
paths = (
{
closed = 1;
nodes = (
"1347 1152 LINE",
"985 1152 LINE",
"985 1093 LINE",
"1136 1093 LINE",
"1136 117 LINE",
"347 1152 LINE",
"122 1152 LINE",
"122 1093 LINE",
"273 1093 LINE",
"273 58 LINE",
"122 58 LINE",
"122 0 LINE",
"497 0 LINE",
"497 58 LINE",
"347 58 LINE",
"347 1040 LINE",
"1136 0 LINE",
"1210 0 LINE",
"1210 1093 LINE",
"1347 1093 LINE"
);
}
);
width = 1423;
},
{
anchors = (
{
name = bot;
position = "{755, 0}";
},
{
name = top;
position = "{720, 1153}";
}
);
layerId = "1F09728C-766D-4240-AE17-E499EF32E23D";
name = Regular;
paths = (
{
closed = 1;
nodes = (
"1351 1153 LINE",
"879 1153 LINE",
"879 1037 LINE",
"1044 1037 LINE",
"1044 211 LINE",
"496 1153 LINE",
"114 1153 LINE",
"114 1037 LINE",
"283 1037 LINE",
"283 116 LINE",
"114 116 LINE",
"114 0 LINE",
"586 0 LINE",
"586 116 LINE",
"417 116 LINE",
"417 997 LINE",
"995 0 LINE",
"1178 0 LINE",
"1178 1037 LINE",
"1351 1037 LINE"
);
}
);
width = 1416;
},
{
anchors = (
{
name = bot;
position = "{789, 0}";
},
{
name = top;
position = "{785, 1152}";
}
);
layerId = "EFCDB4D9-E20B-4A8D-9DB5-150AD166B0AE";
name = Bold;
paths = (
{
closed = 1;
nodes = (
"1468 1152 LINE",
"957 1152 LINE",
"957 1012 LINE",
"1126 1012 LINE",
"1126 289 LINE",
"561 1152 LINE",
"125 1152 LINE",
"125 1012 LINE",
"298 1012 LINE",
"298 141 LINE",
"125 141 LINE",
"125 0 LINE",
"631 0 LINE",
"631 141 LINE",
"461 141 LINE",
"461 943 LINE",
"1074 0 LINE",
"1290 0 LINE",
"1290 1012 LINE",
"1468 1012 LINE"
);
}
);
width = 1571;
}
);
leftKerningGroup = H_Right;
rightKerningGroup = H_Left;
unicode = 004E;
userData = {
com.typemytype.robofont.layerData = {
b = {
anchors = (
);
components = (
);
contours = (
);
lib = {
};
name = N;
unicodes = (
);
width = 1423.07;
};
};
};
},
{
glyphname = O;
lastChange = "2013-12-17 22:01:01 -0800";
layers = (
{
anchors = (
{
name = ogonek;
position = "{779, 0}";
},
{
name = top;
position = "{717, 1152}";
}
);
layerId = "98C086B7-81AA-4491-8494-0C6A76849168";
name = Light;
paths = (
{
closed = 1;
nodes = (
"321 1172 OFFCURVE",
"120 872 OFFCURVE",
"120 572 CURVE SMOOTH",
"120 273 OFFCURVE",
"319 -23 OFFCURVE",
"718 -23 CURVE SMOOTH",
"1118 -23 OFFCURVE",
"1317 273 OFFCURVE",
"1317 572 CURVE SMOOTH",
"1317 872 OFFCURVE",
"1116 1172 OFFCURVE",
"718 1172 CURVE SMOOTH"
);
},
{
closed = 1;
nodes = (
"1061 1104 OFFCURVE",
"1238 836 OFFCURVE",
"1238 573 CURVE SMOOTH",
"1238 309 OFFCURVE",
"1061 43 OFFCURVE",
"718 43 CURVE SMOOTH",
"369 43 OFFCURVE",
"198 302 OFFCURVE",
"198 573 CURVE SMOOTH",
"198 836 OFFCURVE",
"372 1104 OFFCURVE",
"718 1104 CURVE SMOOTH"
);
}
);
width = 1437;
},
{
anchors = (
{
name = ogonek;
position = "{755, 0}";
},
{
name = top;
position = "{700, 1153}";
}
);
layerId = "1F09728C-766D-4240-AE17-E499EF32E23D";
name = Regular;
paths = (
{
closed = 1;
nodes = (
"348 1171 OFFCURVE",
"108 923 OFFCURVE",
"108 575 CURVE SMOOTH",
"108 229 OFFCURVE",
"351 -16 OFFCURVE",
"702 -18 CURVE SMOOTH",
"1053 -18 OFFCURVE",
"1298 234 OFFCURVE",
"1298 575 CURVE SMOOTH",
"1298 924 OFFCURVE",
"1055 1171 OFFCURVE",
"701 1171 CURVE SMOOTH"
);
},
{
closed = 1;
nodes = (
"953 1036 OFFCURVE",
"1120 831 OFFCURVE",
"1120 576 CURVE SMOOTH",
"1120 322 OFFCURVE",
"954 116 OFFCURVE",
"702 116 CURVE SMOOTH",
"453 116 OFFCURVE",
"285 324 OFFCURVE",
"285 576 CURVE SMOOTH",
"285 830 OFFCURVE",
"452 1036 OFFCURVE",
"702 1037 CURVE SMOOTH"
);
}
);
width = 1406;
},
{
anchors = (
{
name = ogonek;
position = "{873, 0}";
},
{
name = top;
position = "{765, 1152}";
}
);
layerId = "EFCDB4D9-E20B-4A8D-9DB5-150AD166B0AE";
name = Bold;
paths = (
{
closed = 1;
nodes = (
"405 1174 OFFCURVE",
"134 917 OFFCURVE",
"134 574 CURVE SMOOTH",
"134 233 OFFCURVE",
"406 -22 OFFCURVE",
"768 -22 CURVE SMOOTH",
"1131 -22 OFFCURVE",
"1404 233 OFFCURVE",
"1404 573 CURVE SMOOTH",
"1404 916 OFFCURVE",
"1131 1174 OFFCURVE",
"767 1174 CURVE SMOOTH"
);
},
{
closed = 1;
nodes = (
"995 1016 OFFCURVE",
"1165 826 OFFCURVE",
"1165 573 CURVE SMOOTH",
"1165 324 OFFCURVE",
"994 138 OFFCURVE",
"767 138 CURVE SMOOTH",
"541 138 OFFCURVE",
"371 324 OFFCURVE",
"371 572 CURVE SMOOTH",
"371 826 OFFCURVE",
"541 1016 OFFCURVE",
"768 1016 CURVE SMOOTH"
);
}
);
width = 1538;
}
);
leftKerningGroup = O_Right;
rightKerningGroup = O_Left;
unicode = 004F;
userData = {
com.typemytype.robofont.layerData = {
b = {
anchors = (
);
components = (
);
contours = (
);
lib = {
};
name = O;
unicodes = (
);
width = 1437;
};
};
};
},
{
glyphname = P;
lastChange = "2013-12-17 22:01:01 -0800";
layers = (
{
anchors = (
{
name = top;
position = "{640, 1152}";
}
);
components = (
{
name = uc_main_stem;
transform = "{1, 0, 0, 1, 0, 0}";
}
);
layerId = "98C086B7-81AA-4491-8494-0C6A76849168";
name = Light;
paths = (
{
closed = 1;
nodes = (
"317 1152 LINE",
"317 1093 LINE",
"718 1093 LINE SMOOTH",
"881 1093 OFFCURVE",
"984 994 OFFCURVE",
"984 836 CURVE SMOOTH",
"984 657 OFFCURVE",
"876 544 OFFCURVE",
"705 544 CURVE SMOOTH",
"447 544 LINE",
"447 483 LINE",
"705 483 LINE SMOOTH",
"922 483 OFFCURVE",
"1058 620 OFFCURVE",
"1058 839 CURVE SMOOTH",
"1058 1031 OFFCURVE",
"927 1152 OFFCURVE",
"718 1152 CURVE SMOOTH"
);
}
);
width = 1180;
},
{
anchors = (
{
name = top;
position = "{580, 1153}";
}
);
components = (
{
name = uc_main_stem;
transform = "{1, 0, 0, 1, 0, 0}";
}
);
layerId = "1F09728C-766D-4240-AE17-E499EF32E23D";
name = Regular;
paths = (
{
closed = 1;
nodes = (
"334 1152 LINE",
"334 1036 LINE",
"670 1036 LINE SMOOTH",
"809 1036 OFFCURVE",
"896 952 OFFCURVE",
"896 818 CURVE SMOOTH",
"894 670 OFFCURVE",
"788 577 OFFCURVE",
"621 577 CURVE SMOOTH",
"481 577 LINE",
"483 472 LINE",
"591 472 LINE SMOOTH",
"880 472 OFFCURVE",
"1061 605 OFFCURVE",
"1061 816 CURVE SMOOTH",
"1061 1022 OFFCURVE",
"909 1152 OFFCURVE",
"668 1152 CURVE SMOOTH"
);
}
);
width = 1144;
},
{
anchors = (
{
name = top;
position = "{629, 1152}";
}
);
components = (
{
name = uc_main_stem;
transform = "{1, 0, 0, 1, 0, 0}";
}
);
layerId = "EFCDB4D9-E20B-4A8D-9DB5-150AD166B0AE";
name = Bold;
paths = (
{
closed = 1;
nodes = (
"400 1152 LINE",
"400 1012 LINE",
"702 1012 LINE SMOOTH",
"849 1012 OFFCURVE",
"926 944 OFFCURVE",
"926 814 CURVE SMOOTH",
"926 678 OFFCURVE",
"830 607 OFFCURVE",
"645 607 CURVE SMOOTH",
"571 607 LINE",
"571 467 LINE",
"654 467 LINE SMOOTH",
"982 467 OFFCURVE",
"1153 586 OFFCURVE",
"1153 814 CURVE SMOOTH",
"1153 1036 OFFCURVE",
"989 1152 OFFCURVE",
"674 1152 CURVE SMOOTH"
);
}
);
width = 1250;
}
);
leftKerningGroup = H_Right;
rightKerningGroup = P_Left;
unicode = 0050;
userData = {
com.typemytype.robofont.layerData = {
b = {
anchors = (
);
components = (
);
contours = (
{
points = (
{
segmentType = line;
smooth = 0;
x = 353;
y = 1095;
},
{
segmentType = line;
smooth = 1;
x = 759;
y = 1095;
},
{
smooth = 0;
x = 936;
y = 1095;
},
{
smooth = 0;
x = 1024;
y = 960;
},
{
segmentType = curve;
smooth = 1;
x = 1024;
y = 823;
},
{
smooth = 0;
x = 1024;
y = 683;
},
{
smooth = 0;
x = 934;
y = 544;
},
{
segmentType = curve;
smooth = 1;
x = 759;
y = 544;
},
{
segmentType = line;
smooth = 0;
x = 353;
y = 544;
}
);
},
{
points = (
{
segmentType = line;
smooth = 0;
x = 135;
y = 0;
},
{
segmentType = line;
smooth = 0;
x = 512;
y = 0;
},
{
segmentType = line;
smooth = 0;
x = 512;
y = 58;
},
{
segmentType = line;
smooth = 0;
x = 353;
y = 58;
},
{
segmentType = line;
smooth = 0;
x = 353;
y = 483;
},
{
segmentType = line;
smooth = 1;
x = 759;
y = 483;
},
{
smooth = 0;
x = 984;
y = 483;
},
{
smooth = 0;
x = 1098;
y = 656;
},
{
segmentType = curve;
smooth = 1;
x = 1098;
y = 826;
},
{
smooth = 0;
x = 1098;
y = 989;
},
{
smooth = 0;
x = 984;
y = 1154;
},
{
segmentType = curve;
smooth = 1;
x = 759;
y = 1154;
},
{
segmentType = line;
smooth = 0;
x = 122;
y = 1154;
},
{
segmentType = line;
smooth = 0;
x = 122;
y = 1095;
},
{
segmentType = line;
smooth = 0;
x = 278;
y = 1095;
},
{
segmentType = line;
smooth = 0;
x = 278;
y = 58;
},
{
segmentType = line;
smooth = 0;
x = 135;
y = 58;
}
);
}
);
lib = {
};
name = P;
unicodes = (
);
width = 1179.97;
};
};
};
},
{
glyphname = Q;
lastChange = "2013-12-17 22:01:01 -0800";
layers = (
{
components = (
{
name = O;
transform = "{1, 0, 0, 1, 0, 0}";
}
);
layerId = "98C086B7-81AA-4491-8494-0C6A76849168";
name = Light;
paths = (
{
closed = 1;
nodes = (
"656 10 LINE",
"806 -108 OFFCURVE",
"887 -206 OFFCURVE",
"1024 -206 CURVE SMOOTH",
"1070 -206 OFFCURVE",
"1117 -198 OFFCURVE",
"1172 -179 CURVE",
"1151 -124 LINE",
"1107 -139 OFFCURVE",
"1069 -146 OFFCURVE",
"1032 -146 CURVE SMOOTH",
"932 -146 OFFCURVE",
"847 -68 OFFCURVE",
"752 10 CURVE"
);
}
);
width = 1429;
},
{
components = (
{
name = O;
transform = "{1, 0, 0, 1, 0, 0}";
}
);
layerId = "1F09728C-766D-4240-AE17-E499EF32E23D";
name = Regular;
paths = (
{
closed = 1;
nodes = (
"554 49 LINE",
"743 -140 OFFCURVE",
"905 -229 OFFCURVE",
"1035 -229 CURVE SMOOTH",
"1100 -229 OFFCURVE",
"1159 -214 OFFCURVE",
"1217 -192 CURVE",
"1172 -70 LINE",
"1137 -81 OFFCURVE",
"1088 -97 OFFCURVE",
"1029 -97 CURVE SMOOTH",
"959 -97 OFFCURVE",
"856 -45 OFFCURVE",
"766 44 CURVE"
);
}
);
width = 1407;
},
{
components = (
{
name = O;
transform = "{1, 0, 0, 1, 0, 0}";
}
);
layerId = "EFCDB4D9-E20B-4A8D-9DB5-150AD166B0AE";
name = Bold;
paths = (
{
closed = 1;
nodes = (
"602 57 LINE",
"774 -194 OFFCURVE",
"991 -263 OFFCURVE",
"1150 -263 CURVE SMOOTH",
"1219 -263 OFFCURVE",
"1278 -251 OFFCURVE",
"1324 -230 CURVE",
"1278 -93 LINE",
"1238 -109 OFFCURVE",
"1194 -117 OFFCURVE",
"1149 -117 CURVE SMOOTH",
"1041 -117 OFFCURVE",
"927 -68 OFFCURVE",
"844 53 CURVE"
);
}
);
width = 1538;
}
);
leftKerningGroup = O_Right;
rightKerningGroup = O_Left;
unicode = 0051;
userData = {
com.typemytype.robofont.layerData = {
b = {
anchors = (
);
components = (
);
contours = (
);
lib = {
};
name = Q;
unicodes = (
);
width = 1428.68;
};
};
};
},
{
glyphname = R;
lastChange = "2013-12-17 22:01:01 -0800";
layers = (
{
anchors = (
{
name = bot;
position = "{703, 0}";
},
{
name = top;
position = "{630, 1152}";
}
);
components = (
{
name = uc_main_stem;
transform = "{1, 0, 0, 1, 0, 0}";
}
);
layerId = "98C086B7-81AA-4491-8494-0C6A76849168";
name = Light;
paths = (
{
closed = 1;
nodes = (
"317 1152 LINE",
"317 1093 LINE",
"721 1093 LINE SMOOTH",
"898 1093 OFFCURVE",
"985 971 OFFCURVE",
"985 845 CURVE SMOOTH",
"985 723 OFFCURVE",
"896 600 OFFCURVE",
"721 600 CURVE SMOOTH",
"317 600 LINE",
"317 539 LINE",
"641 539 LINE",
"961 0 LINE",
"1178 0 LINE",
"1178 58 LINE",
"1015 58 LINE",
"721 539 LINE",
"945 539 OFFCURVE",
"1059 696 OFFCURVE",
"1059 848 CURVE SMOOTH",
"1059 1000 OFFCURVE",
"945 1152 OFFCURVE",
"721 1152 CURVE SMOOTH"
);
}
);
width = 1259;
},
{
anchors = (
{
name = bot;
position = "{703, 0}";
},
{
name = top;
position = "{600, 1152}";
}
);
components = (
{
name = uc_main_stem;
transform = "{1, 0, 0, 1, 0, 0}";
}
);
layerId = "1F09728C-766D-4240-AE17-E499EF32E23D";
name = Regular;
paths = (
{
closed = 1;
nodes = (
"330 1152 LINE",
"330 1037 LINE",
"653 1037 LINE SMOOTH",
"781 1037 OFFCURVE",
"879 979 OFFCURVE",
"879 857 CURVE SMOOTH",
"879 726 OFFCURVE",
"801 658 OFFCURVE",
"660 657 CURVE SMOOTH",
"344 657 LINE",
"344 538 LINE",
"630 538 LINE",
"913 0 LINE",
"1166 0 LINE",
"1166 116 LINE",
"1020 116 LINE",
"786 558 LINE",
"959 592 OFFCURVE",
"1045 691 OFFCURVE",
"1045 855 CURVE SMOOTH",
"1045 1067 OFFCURVE",
"900 1152 OFFCURVE",
"665 1152 CURVE SMOOTH"
);
}
);
width = 1252;
},
{
anchors = (
{
name = bot;
position = "{759, 0}";
},
{
name = top;
position = "{642, 1152}";
}
);
components = (
{
name = uc_main_stem;
transform = "{1, 0, 0, 1, 0, 0}";
}
);
layerId = "EFCDB4D9-E20B-4A8D-9DB5-150AD166B0AE";
name = Bold;
paths = (
{
closed = 1;
nodes = (
"397 1152 LINE",
"397 1012 LINE",
"726 1012 LINE SMOOTH",
"859 1012 OFFCURVE",
"928 949 OFFCURVE",
"928 850 CURVE SMOOTH",
"928 758 OFFCURVE",
"880 669 OFFCURVE",
"712 669 CURVE SMOOTH",
"403 669 LINE",
"403 524 LINE",
"673 524 LINE",
"968 0 LINE",
"1292 0 LINE",
"1292 141 LINE",
"1121 141 LINE",
"879 548 LINE",
"1062 594 OFFCURVE",
"1147 691 OFFCURVE",
"1147 853 CURVE SMOOTH",
"1147 1079 OFFCURVE",
"969 1152 OFFCURVE",
"724 1152 CURVE SMOOTH"
);
}
);
width = 1373;
}
);
leftKerningGroup = H_Right;
rightKerningGroup = R_Left;
unicode = 0052;
userData = {
com.typemytype.robofont.layerData = {
b = {
anchors = (
);
components = (
);
contours = (
{
points = (
{
segmentType = line;
smooth = 0;
x = 135;
y = 0;
},
{
segmentType = line;
smooth = 0;
x = 512;
y = 0;
},
{
segmentType = line;
smooth = 0;
x = 512;
y = 58;
},
{
segmentType = line;
smooth = 0;
x = 353;
y = 58;
},
{
segmentType = line;
smooth = 0;
x = 353;
y = 539;
},
{
segmentType = line;
smooth = 0;
x = 641;
y = 539;
},
{
segmentType = line;
smooth = 0;
x = 961;
y = 0;
},
{
segmentType = line;
smooth = 0;
x = 1178;
y = 0;
},
{
segmentType = line;
smooth = 0;
x = 1178;
y = 58;
},
{
segmentType = line;
smooth = 0;
x = 1015;
y = 58;
},
{
segmentType = line;
smooth = 0;
x = 721;
y = 539;
},
{
smooth = 0;
x = 945;
y = 539;
},
{
smooth = 0;
x = 1059;
y = 696;
},
{
segmentType = curve;
smooth = 1;
x = 1059;
y = 848;
},
{
smooth = 0;
x = 1059;
y = 1000;
},
{
smooth = 0;
x = 945;
y = 1154;
},
{
segmentType = curve;
smooth = 1;
x = 721;
y = 1154;
},
{
segmentType = line;
smooth = 0;
x = 122;
y = 1154;
},
{
segmentType = line;
smooth = 0;
x = 122;
y = 1095;
},
{
segmentType = line;
smooth = 0;
x = 278;
y = 1095;
},
{
segmentType = line;
smooth = 0;
x = 278;
y = 58;
},
{
segmentType = line;
smooth = 0;
x = 135;
y = 58;
}
);
},
{
points = (
{
segmentType = line;
smooth = 0;
x = 353;
y = 1095;
},
{
segmentType = line;
smooth = 1;
x = 721;
y = 1095;
},
{
smooth = 0;
x = 898;
y = 1095;
},
{
smooth = 0;
x = 985;
y = 971;
},
{
segmentType = curve;
smooth = 1;
x = 985;
y = 845;
},
{
smooth = 0;
x = 985;
y = 723;
},
{
smooth = 0;
x = 896;
y = 600;
},
{
segmentType = curve;
smooth = 1;
x = 721;
y = 600;
},
{
segmentType = line;
smooth = 0;
x = 353;
y = 600;
}
);
}
);
lib = {
};
name = R;
unicodes = (
);
width = 1258.51;
};
};
};
},
{
glyphname = S;
lastChange = "2013-12-17 22:01:01 -0800";
layers = (
{
anchors = (
{
name = bot;
position = "{642, 0}";
},
{
name = top;
position = "{580, 1152}";
}
);
layerId = "98C086B7-81AA-4491-8494-0C6A76849168";
name = Light;
paths = (
{
closed = 1;
nodes = (
"355 1172 OFFCURVE",
"184 1067 OFFCURVE",
"184 856 CURVE SMOOTH",
"184 360 OFFCURVE",
"969 730 OFFCURVE",
"955 297 CURVE SMOOTH",
"951 166 OFFCURVE",
"861 47 OFFCURVE",
"644 47 CURVE SMOOTH",
"417 47 OFFCURVE",
"261 134 OFFCURVE",
"261 277 CURVE SMOOTH",
"261 387 LINE",
"187 387 LINE",
"187 -1 LINE",
"261 -1 LINE",
"261 122 LINE",
"335 22 OFFCURVE",
"459 -23 OFFCURVE",
"639 -23 CURVE SMOOTH",
"945 -23 OFFCURVE",
"1026 171 OFFCURVE",
"1026 295 CURVE SMOOTH",
"1026 821 OFFCURVE",
"255 439 OFFCURVE",
"264 857 CURVE SMOOTH",
"267 1001 OFFCURVE",
"354 1104 OFFCURVE",
"568 1104 CURVE SMOOTH",
"714 1104 OFFCURVE",
"885 1024 OFFCURVE",
"885 941 CURVE SMOOTH",
"885 839 LINE",
"959 839 LINE",
"959 1152 LINE",
"885 1152 LINE",
"885 1049 LINE",
"828 1131 OFFCURVE",
"679 1172 OFFCURVE",
"567 1172 CURVE SMOOTH"
);
}
);
width = 1144;
},
{
anchors = (
{
name = bot;
position = "{631, 0}";
},
{
name = top;
position = "{570, 1153}";
}
);
layerId = "1F09728C-766D-4240-AE17-E499EF32E23D";
name = Regular;
paths = (
{
closed = 1;
nodes = (
"351 1171 OFFCURVE",
"195 1059 OFFCURVE",
"195 858 CURVE SMOOTH",
"195 399 OFFCURVE",
"852 642 OFFCURVE",
"852 298 CURVE SMOOTH",
"852 178 OFFCURVE",
"741 110 OFFCURVE",
"609 110 CURVE SMOOTH",
"490 110 OFFCURVE",
"394 180 OFFCURVE",
"338 261 CURVE",
"338 387 LINE",
"203 387 LINE",
"203 0 LINE",
"338 0 LINE",
"338 101 LINE",
"407 24 OFFCURVE",
"521 -18 OFFCURVE",
"635 -18 CURVE SMOOTH",
"844 -18 OFFCURVE",
"1017 105 OFFCURVE",
"1017 303 CURVE SMOOTH",
"1017 771 OFFCURVE",
"351 563 OFFCURVE",
"351 855 CURVE SMOOTH",
"351 984 OFFCURVE",
"438 1043 OFFCURVE",
"569 1043 CURVE SMOOTH",
"673 1043 OFFCURVE",
"775 993 OFFCURVE",
"820 928 CURVE",
"820 818 LINE",
"955 818 LINE",
"955 1153 LINE",
"820 1153 LINE",
"820 1079 LINE",
"742 1140 OFFCURVE",
"652 1171 OFFCURVE",
"551 1171 CURVE SMOOTH"
);
}
);
width = 1147;
},
{
anchors = (
{
name = bot;
position = "{629, -1}";
},
{
name = top;
position = "{575, 1152}";
}
);
layerId = "EFCDB4D9-E20B-4A8D-9DB5-150AD166B0AE";
name = Bold;
paths = (
{
closed = 1;
nodes = (
"335 1174 OFFCURVE",
"174 1066 OFFCURVE",
"174 863 CURVE SMOOTH",
"174 650 OFFCURVE",
"341 578 OFFCURVE",
"520 528 CURVE SMOOTH",
"698 478 OFFCURVE",
"819 440 OFFCURVE",
"819 308 CURVE SMOOTH",
"819 209 OFFCURVE",
"749 135 OFFCURVE",
"623 135 CURVE SMOOTH",
"507 135 OFFCURVE",
"392 204 OFFCURVE",
"353 266 CURVE",
"353 390 LINE",
"182 390 LINE",
"182 -1 LINE",
"353 -1 LINE",
"353 94 LINE",
"431 26 OFFCURVE",
"527 -19 OFFCURVE",
"639 -19 CURVE SMOOTH",
"848 -19 OFFCURVE",
"1030 107 OFFCURVE",
"1030 318 CURVE SMOOTH",
"1030 540 OFFCURVE",
"859 617 OFFCURVE",
"692 665 CURVE SMOOTH",
"507 718 OFFCURVE",
"370 750 OFFCURVE",
"370 884 CURVE SMOOTH",
"370 957 OFFCURVE",
"444 1022 OFFCURVE",
"571 1022 CURVE SMOOTH",
"666 1022 OFFCURVE",
"738 994 OFFCURVE",
"797 922 CURVE",
"797 820 LINE",
"966 820 LINE",
"966 1157 LINE",
"797 1157 LINE",
"797 1083 LINE",
"731 1143 OFFCURVE",
"644 1174 OFFCURVE",
"550 1174 CURVE SMOOTH"
);
}
);
width = 1170;
}
);
leftKerningGroup = S_Right;
rightKerningGroup = S_Left;
unicode = 0053;
userData = {
com.typemytype.robofont.layerData = {
b = {
anchors = (
);
components = (
);
contours = (
{
points = (
{
segmentType = curve;
smooth = 1;
x = 636;
y = "-23";
},
{
smooth = 0;
x = 930;
y = "-23";
},
{
smooth = 0;
x = 1026;
y = 171;
},
{
segmentType = curve;
smooth = 1;
x = 1026;
y = 295;
},
{
smooth = 0;
x = 1026;
y = 543;
},
{
smooth = 0;
x = 829;
y = 599;
},
{
segmentType = curve;
smooth = 1;
x = 606;
y = 622;
},
{
smooth = 0;
x = 405;
y = 643;
},
{
smooth = 0;
x = 269;
y = 667;
},
{
segmentType = curve;
smooth = 1;
x = 269;
y = 851;
},
{
smooth = 0;
x = 269;
y = 998;
},
{
smooth = 0;
x = 360;
y = 1104;
},
{
segmentType = curve;
smooth = 1;
x = 573;
y = 1104;
},
{
smooth = 0;
x = 719;
y = 1104;
},
{
smooth = 0;
x = 885;
y = 1024;
},
{
segmentType = curve;
smooth = 1;
x = 885;
y = 941;
},
{
segmentType = line;
smooth = 0;
x = 885;
y = 839;
},
{
segmentType = line;
smooth = 0;
x = 959;
y = 839;
},
{
segmentType = line;
smooth = 0;
x = 959;
y = 1152;
},
{
segmentType = line;
smooth = 0;
x = 885;
y = 1152;
},
{
segmentType = line;
smooth = 0;
x = 885;
y = 1049;
},
{
smooth = 0;
x = 828;
y = 1131;
},
{
smooth = 0;
x = 673;
y = 1172;
},
{
segmentType = curve;
smooth = 1;
x = 561;
y = 1172;
},
{
smooth = 0;
x = 360;
y = 1172;
},
{
smooth = 0;
x = 184;
y = 1066;
},
{
segmentType = curve;
smooth = 1;
x = 184;
y = 863;
},
{
smooth = 0;
x = 184;
y = 635;
},
{
smooth = 0;
x = 332;
y = 579;
},
{
segmentType = curve;
smooth = 1;
x = 584;
y = 553;
},
{
smooth = 0;
x = 805;
y = 531;
},
{
smooth = 0;
x = 942;
y = 488;
},
{
segmentType = curve;
smooth = 1;
x = 942;
y = 300;
},
{
smooth = 0;
x = 942;
y = 169;
},
{
smooth = 0;
x = 831;
y = 47;
},
{
segmentType = curve;
smooth = 1;
x = 644;
y = 47;
},
{
smooth = 0;
x = 448;
y = 47;
},
{
smooth = 0;
x = 261;
y = 118;
},
{
segmentType = curve;
smooth = 1;
x = 261;
y = 247;
},
{
segmentType = line;
smooth = 0;
x = 261;
y = 387;
},
{
segmentType = line;
smooth = 0;
x = 187;
y = 387;
},
{
segmentType = line;
smooth = 0;
x = 187;
y = "-1";
},
{
segmentType = line;
smooth = 0;
x = 261;
y = "-1";
},
{
segmentType = line;
smooth = 0;
x = 261;
y = 122;
},
{
smooth = 0;
x = 335;
y = 22;
},
{
smooth = 0;
x = 496;
y = "-23";
}
);
}
);
lib = {
};
name = S;
unicodes = (
);
width = 1143.505;
};
};
};
},
{
glyphname = T;
lastChange = "2013-12-17 22:01:01 -0800";
layers = (
{
anchors = (
{
name = bot;
position = "{573, 0}";
},
{
name = top;
position = "{573, 1152}";
}
);
components = (
{
name = uc_main_stem;
transform = "{1, 0, 0, 1, 255, 0}";
}
);
layerId = "98C086B7-81AA-4491-8494-0C6A76849168";
name = Light;
paths = (
{
closed = 1;
nodes = (
"1085 1152 LINE",
"68 1152 LINE",
"68 786 LINE",
"139 786 LINE",
"139 1093 LINE",
"1013 1093 LINE",
"1013 786 LINE",
"1085 786 LINE"
);
}
);
width = 1151;
},
{
anchors = (
{
name = bot;
position = "{597, 0}";
},
{
name = mid;
position = "{584, 622}";
},
{
name = top;
position = "{591, 1153}";
}
);
components = (
{
name = uc_main_stem;
transform = "{1, 0, 0, 1, 260, 0}";
}
);
layerId = "1F09728C-766D-4240-AE17-E499EF32E23D";
name = Regular;
paths = (
{
closed = 1;
nodes = (
"1054 1153 LINE",
"107 1153 LINE",
"107 808 LINE",
"236 808 LINE",
"236 1037 LINE",
"923 1037 LINE",
"923 808 LINE",
"1054 808 LINE"
);
}
);
width = 1161;
},
{
anchors = (
{
name = bot;
position = "{635, 0}";
},
{
name = mid;
position = "{627, 623}";
},
{
name = top;
position = "{627, 1152}";
}
);
components = (
{
name = uc_main_stem;
transform = "{1, 0, 0, 1, 242, 0}";
}
);
layerId = "EFCDB4D9-E20B-4A8D-9DB5-150AD166B0AE";
name = Bold;
paths = (
{
closed = 1;
nodes = (
"1145 1152 LINE",
"107 1152 LINE",
"107 741 LINE",
"267 741 LINE",
"267 1012 LINE",
"985 1012 LINE",
"985 741 LINE",
"1145 741 LINE"
);
}
);
width = 1252;
}
);
leftKerningGroup = T_Right;
rightKerningGroup = T_Left;
unicode = 0054;
userData = {
com.typemytype.robofont.layerData = {
b = {
anchors = (
);
components = (
);
contours = (
);
lib = {
};
name = T;
unicodes = (
);
width = 1150.985;
};
};
};
},
{
glyphname = U;
lastChange = "2013-12-17 22:01:01 -0800";
layers = (
{
anchors = (
{
name = ogonek;
position = "{803, 0}";
},
{
name = top;
position = "{733, 1152}";
}
);
layerId = "98C086B7-81AA-4491-8494-0C6A76849168";
name = Light;
paths = (
{
closed = 1;
nodes = (
"1380 1152 LINE",
"1003 1152 LINE",
"1003 1093 LINE",
"1154 1093 LINE",
"1154 378 LINE SMOOTH",
"1154 157 OFFCURVE",
"937 43 OFFCURVE",
"722 43 CURVE SMOOTH",
"518 43 OFFCURVE",
"314 152 OFFCURVE",
"314 378 CURVE SMOOTH",
"314 1093 LINE",
"465 1093 LINE",
"465 1152 LINE",
"88 1152 LINE",
"88 1093 LINE",
"238 1093 LINE",
"238 376 LINE SMOOTH",
"238 109 OFFCURVE",
"481 -23 OFFCURVE",
"724 -23 CURVE SMOOTH",
"976 -23 OFFCURVE",
"1230 112 OFFCURVE",
"1230 376 CURVE SMOOTH",
"1230 1093 LINE",
"1380 1093 LINE"
);
}
);
width = 1455;
},
{
anchors = (
{
name = ogonek;
position = "{755, 0}";
},
{
name = top;
position = "{670, 1153}";
}
);
layerId = "1F09728C-766D-4240-AE17-E499EF32E23D";
name = Regular;
paths = (
{
closed = 1;
nodes = (
"1226 1153 LINE",
"793 1153 LINE",
"793 1037 LINE",
"935 1037 LINE",
"935 389 LINE SMOOTH",
"935 202 OFFCURVE",
"863 116 OFFCURVE",
"672 116 CURVE SMOOTH",
"494 116 OFFCURVE",
"388 195 OFFCURVE",
"388 378 CURVE SMOOTH",
"388 1037 LINE",
"530 1037 LINE",
"530 1153 LINE",
"83 1153 LINE",
"83 1037 LINE",
"226 1037 LINE",
"226 382 LINE SMOOTH",
"226 116 OFFCURVE",
"401 -18 OFFCURVE",
"665 -18 CURVE SMOOTH",
"940 -18 OFFCURVE",
"1097 106 OFFCURVE",
"1097 380 CURVE SMOOTH",
"1097 1037 LINE",
"1226 1037 LINE"
);
}
);
width = 1307;
},
{
anchors = (
{
name = ogonek;
position = "{813, 0}";
},
{
name = top;
position = "{745, 1152}";
}
);
layerId = "EFCDB4D9-E20B-4A8D-9DB5-150AD166B0AE";
name = Bold;
paths = (
{
closed = 1;
nodes = (
"1347 1152 LINE",
"859 1152 LINE",
"859 1012 LINE",
"1010 1012 LINE",
"1010 411 LINE SMOOTH",
"1010 237 OFFCURVE",
"919 141 OFFCURVE",
"738 141 CURVE SMOOTH",
"565 141 OFFCURVE",
"476 238 OFFCURVE",
"476 406 CURVE SMOOTH",
"476 1012 LINE",
"631 1012 LINE",
"631 1152 LINE",
"106 1152 LINE",
"106 1012 LINE",
"258 1012 LINE",
"258 440 LINE SMOOTH",
"258 180 OFFCURVE",
"364 -19 OFFCURVE",
"732 -19 CURVE SMOOTH",
"1002 -19 OFFCURVE",
"1193 111 OFFCURVE",
"1193 420 CURVE SMOOTH",
"1193 1012 LINE",
"1347 1012 LINE"
);
}
);
width = 1428;
}
);
leftKerningGroup = U_Right;
rightKerningGroup = U_Left;
unicode = 0055;
userData = {
com.typemytype.robofont.layerData = {
b = {
anchors = (
);
components = (
);
contours = (
);
lib = {
};
name = U;
unicodes = (
);
width = 1454.86;
};
};
};
},
{
glyphname = V;
lastChange = "2013-12-17 22:01:01 -0800";
layers = (
{
layerId = "98C086B7-81AA-4491-8494-0C6A76849168";
name = Light;
paths = (
{
closed = 1;
nodes = (
"1215 1154 LINE",
"847 1154 LINE",
"847 1095 LINE",
"1000 1095 LINE",
"633 94 LINE",
"263 1095 LINE",
"418 1095 LINE",
"418 1154 LINE",
"41 1154 LINE",
"41 1095 LINE",
"180 1095 LINE",
"592 0 LINE",
"672 0 LINE",
"1087 1095 LINE",
"1215 1095 LINE"
);
}
);
width = 1258;
},
{
layerId = "1F09728C-766D-4240-AE17-E499EF32E23D";
name = Regular;
paths = (
{
closed = 1;
nodes = (
"1293 1153 LINE",
"848 1153 LINE",
"848 1037 LINE",
"989 1037 LINE",
"677 184 LINE",
"360 1037 LINE",
"501 1037 LINE",
"501 1153 LINE",
"46 1153 LINE",
"46 1037 LINE",
"192 1037 LINE",
"595 0 LINE",
"749 0 LINE",
"1147 1037 LINE",
"1293 1037 LINE"
);
}
);
width = 1334;
},
{
layerId = "EFCDB4D9-E20B-4A8D-9DB5-150AD166B0AE";
name = Bold;
paths = (
{
closed = 1;
nodes = (
"1354 1152 LINE",
"872 1152 LINE",
"872 1012 LINE",
"1016 1012 LINE",
"724 236 LINE",
"428 1012 LINE",
"574 1012 LINE",
"574 1152 LINE",
"53 1152 LINE",
"53 1012 LINE",
"203 1012 LINE",
"614 0 LINE",
"802 0 LINE",
"1204 1012 LINE",
"1354 1012 LINE"
);
}
);
width = 1407;
}
);
leftKerningGroup = V_Right;
rightKerningGroup = V_Left;
unicode = 0056;
userData = {
com.typemytype.robofont.layerData = {
b = {
anchors = (
);
components = (
);
contours = (
);
lib = {
};
name = V;
unicodes = (
);
width = 1257.575;
};
};
};
},
{
glyphname = W;
lastChange = "2013-12-17 22:01:01 -0800";
layers = (
{
anchors = (
{
name = bot;
position = "{973, 0}";
},
{
name = top;
position = "{970, 1152}";
}
);
layerId = "98C086B7-81AA-4491-8494-0C6A76849168";
name = Light;
paths = (
{
closed = 1;
nodes = (
"1868 1152 LINE",
"1495 1152 LINE",
"1495 1093 LINE",
"1644 1093 LINE",
"1333 94 LINE",
"1008 1093 LINE",
"1155 1093 LINE",
"1155 1152 LINE",
"783 1152 LINE",
"783 1093 LINE",
"926 1093 LINE",
"615 94 LINE",
"290 1093 LINE",
"446 1093 LINE",
"446 1152 LINE",
"69 1152 LINE",
"69 1093 LINE",
"208 1093 LINE",
"573 0 LINE",
"656 0 LINE",
"968 974 LINE",
"1291 0 LINE",
"1373 0 LINE",
"1728 1093 LINE",
"1868 1093 LINE"
);
}
);
width = 1937;
},
{
anchors = (
{
name = top;
position = "{951, 1153}";
}
);
layerId = "1F09728C-766D-4240-AE17-E499EF32E23D";
name = Regular;
paths = (
{
closed = 1;
nodes = (
"1852 1153 LINE",
"1423 1153 LINE",
"1423 1037 LINE",
"1553 1037 LINE",
"1323 210 LINE",
"1082 1037 LINE",
"1221 1037 LINE",
"1221 1153 LINE",
"702 1153 LINE",
"702 1037 LINE",
"842 1037 LINE",
"602 210 LINE",
"364 1037 LINE",
"501 1037 LINE",
"501 1153 LINE",
"60 1153 LINE",
"60 1037 LINE",
"203 1037 LINE",
"519 0 LINE",
"677 0 LINE",
"955 949 LINE",
"1240 0 LINE",
"1398 0 LINE",
"1708 1037 LINE",
"1852 1037 LINE"
);
}
);
width = 1906;
},
{
anchors = (
{
name = top;
position = "{986, 1152}";
}
);
layerId = "EFCDB4D9-E20B-4A8D-9DB5-150AD166B0AE";
name = Bold;
paths = (
{
closed = 1;
nodes = (
"1897 1152 LINE",
"1435 1152 LINE",
"1435 1012 LINE",
"1579 1012 LINE",
"1343 282 LINE",
"1106 1012 LINE",
"1233 1012 LINE",
"1233 1152 LINE",
"729 1152 LINE",
"729 1012 LINE",
"859 1012 LINE",
"627 282 LINE",
"389 1012 LINE",
"532 1012 LINE",
"532 1152 LINE",
"38 1152 LINE",
"38 1012 LINE",
"183 1012 LINE",
"522 0 LINE",
"703 0 LINE",
"969 816 LINE",
"1239 0 LINE",
"1423 0 LINE",
"1754 1012 LINE",
"1897 1012 LINE"
);
}
);
width = 1935;
}
);
leftKerningGroup = W_Right;
rightKerningGroup = W_Left;
unicode = 0057;
userData = {
com.typemytype.robofont.layerData = {
b = {
anchors = (
);
components = (
);
contours = (
);
lib = {
};
name = W;
unicodes = (
);
width = 1937.32;
};
};
};
},
{
glyphname = X;
lastChange = "2013-12-17 22:01:01 -0800";
layers = (
{
layerId = "98C086B7-81AA-4491-8494-0C6A76849168";
name = Light;
paths = (
{
closed = 1;
nodes = (
"1158 1154 LINE",
"781 1154 LINE",
"781 1095 LINE",
"930 1095 LINE",
"633 650 LINE",
"335 1095 LINE",
"484 1095 LINE",
"484 1154 LINE",
"108 1154 LINE",
"108 1095 LINE",
"258 1095 LINE",
"595 593 LINE",
"240 58 LINE",
"96 58 LINE",
"96 0 LINE",
"473 0 LINE",
"473 58 LINE",
"324 58 LINE",
"636 531 LINE",
"954 58 LINE",
"803 58 LINE",
"803 0 LINE",
"1180 0 LINE",
"1180 58 LINE",
"1030 58 LINE",
"674 588 LINE",
"1010 1095 LINE",
"1158 1095 LINE"
);
}
);
width = 1273;
},
{
layerId = "1F09728C-766D-4240-AE17-E499EF32E23D";
name = Regular;
paths = (
{
closed = 1;
nodes = (
"1150 1153 LINE",
"698 1153 LINE",
"698 1037 LINE",
"840 1037 LINE",
"610 705 LINE",
"385 1037 LINE",
"522 1037 LINE",
"522 1153 LINE",
"53 1153 LINE",
"53 1037 LINE",
"209 1037 LINE",
"523 582 LINE",
"205 116 LINE",
"42 116 LINE",
"42 0 LINE",
"510 0 LINE",
"510 116 LINE",
"364 116 LINE",
"603 470 LINE",
"843 116 LINE",
"702 116 LINE",
"702 0 LINE",
"1181 0 LINE",
"1181 116 LINE",
"1023 116 LINE",
"690 595 LINE",
"997 1037 LINE",
"1150 1037 LINE"
);
}
);
width = 1223;
},
{
layerId = "EFCDB4D9-E20B-4A8D-9DB5-150AD166B0AE";
name = Bold;
paths = (
{
closed = 1;
nodes = (
"1301 1152 LINE",
"810 1152 LINE",
"810 1020 LINE",
"946 1020 LINE",
"729 711 LINE",
"511 1020 LINE",
"645 1020 LINE",
"645 1152 LINE",
"113 1152 LINE",
"113 1020 LINE",
"275 1020 LINE",
"594 587 LINE",
"270 133 LINE",
"100 133 LINE",
"100 0 LINE",
"607 0 LINE",
"607 133 LINE",
"465 133 LINE",
"695 471 LINE",
"926 133 LINE",
"786 133 LINE",
"786 0 LINE",
"1334 0 LINE",
"1334 133 LINE",
"1165 133 LINE",
"827 596 LINE",
"1139 1020 LINE",
"1301 1020 LINE"
);
}
);
width = 1434;
}
);
rightKerningGroup = X_Left;
unicode = 0058;
userData = {
com.typemytype.robofont.layerData = {
b = {
anchors = (
);
components = (
);
contours = (
);
lib = {
};
name = X;
unicodes = (
);
width = 1273.47;
};
};
};
},
{
glyphname = Y;
lastChange = "2013-12-17 22:01:01 -0800";
layers = (
{
anchors = (
{
name = top;
position = "{640, 1152}";
}
);
layerId = "98C086B7-81AA-4491-8494-0C6A76849168";
name = Light;
paths = (
{
closed = 1;
nodes = (
"1226 1152 LINE",
"849 1152 LINE",
"849 1093 LINE",
"998 1093 LINE",
"633 475 LINE",
"262 1093 LINE",
"409 1093 LINE",
"409 1152 LINE",
"32 1152 LINE",
"32 1093 LINE",
"180 1093 LINE",
"593 408 LINE",
"593 58 LINE",
"442 58 LINE",
"442 0 LINE",
"819 0 LINE",
"819 58 LINE",
"669 58 LINE",
"669 408 LINE",
"1080 1093 LINE",
"1226 1093 LINE"
);
}
);
width = 1258;
},
{
anchors = (
{
name = top;
position = "{660, 1153}";
}
);
layerId = "1F09728C-766D-4240-AE17-E499EF32E23D";
name = Regular;
paths = (
{
closed = 1;
nodes = (
"1224 1153 LINE",
"764 1153 LINE",
"764 1037 LINE",
"914 1037 LINE",
"657 648 LINE",
"383 1037 LINE",
"533 1037 LINE",
"533 1153 LINE",
"58 1153 LINE",
"58 1037 LINE",
"207 1037 LINE",
"565 530 LINE",
"565 116 LINE",
"406 116 LINE",
"406 0 LINE",
"889 0 LINE",
"889 116 LINE",
"725 116 LINE",
"725 530 LINE",
"1068 1037 LINE",
"1224 1037 LINE"
);
}
);
width = 1268;
},
{
anchors = (
{
name = top;
position = "{684, 1152}";
}
);
layerId = "EFCDB4D9-E20B-4A8D-9DB5-150AD166B0AE";
name = Bold;
paths = (
{
closed = 1;
nodes = (
"1289 1152 LINE",
"795 1152 LINE",
"795 1012 LINE",
"937 1012 LINE",
"694 646 LINE",
"436 1012 LINE",
"579 1012 LINE",
"579 1152 LINE",
"48 1152 LINE",
"48 1012 LINE",
"200 1012 LINE",
"564 509 LINE",
"564 141 LINE",
"397 141 LINE",
"397 0 LINE",
"953 0 LINE",
"953 141 LINE",
"782 141 LINE",
"782 510 LINE",
"1130 1012 LINE",
"1289 1012 LINE"
);
}
);
width = 1337;
}
);
leftKerningGroup = Y_Right;
rightKerningGroup = Y_Left;
unicode = 0059;
userData = {
com.typemytype.robofont.layerData = {
b = {
anchors = (
);
components = (
);
contours = (
);
lib = {
};
name = Y;
unicodes = (
);
width = 1257.575;
};
};
};
},
{
glyphname = Z;
lastChange = "2013-12-17 22:01:01 -0800";
layers = (
{
anchors = (
{
name = bot;
position = "{633, 0}";
},
{
name = top;
position = "{640, 1152}";
}
);
layerId = "98C086B7-81AA-4491-8494-0C6A76849168";
name = Light;
paths = (
{
closed = 1;
nodes = (
"1047 1152 LINE",
"162 1152 LINE",
"162 811 LINE",
"234 811 LINE",
"234 1086 LINE",
"964 1086 LINE",
"144 90 LINE",
"144 0 LINE",
"1081 0 LINE",
"1081 352 LINE",
"1009 352 LINE",
"1009 65 LINE",
"222 65 LINE",
"1047 1076 LINE"
);
}
);
width = 1219;
},
{
anchors = (
{
name = top;
position = "{620, 1153}";
}
);
layerId = "1F09728C-766D-4240-AE17-E499EF32E23D";
name = Regular;
paths = (
{
closed = 1;
nodes = (
"1009 1153 LINE",
"177 1153 LINE",
"177 818 LINE",
"306 818 LINE",
"306 1037 LINE",
"804 1037 LINE",
"147 128 LINE",
"147 0 LINE",
"1019 0 LINE",
"1019 335 LINE",
"890 335 LINE",
"890 116 LINE",
"342 116 LINE",
"1009 1041 LINE"
);
}
);
width = 1163;
},
{
anchors = (
{
name = top;
position = "{657, 1152}";
}
);
layerId = "EFCDB4D9-E20B-4A8D-9DB5-150AD166B0AE";
name = Bold;
paths = (
{
closed = 1;
nodes = (
"1096 1152 LINE",
"195 1152 LINE",
"195 792 LINE",
"354 792 LINE",
"354 1012 LINE",
"827 1012 LINE",
"163 151 LINE",
"163 0 LINE",
"1106 0 LINE",
"1106 375 LINE",
"948 375 LINE",
"948 141 LINE",
"423 141 LINE",
"1096 1018 LINE"
);
}
);
width = 1256;
}
);
unicode = 005A;
userData = {
com.typemytype.robofont.layerData = {
b = {
anchors = (
);
components = (
);
contours = (
);
lib = {
};
name = Z;
unicodes = (
);
width = 1219.24;
};
};
};
},
{
glyphname = AE;
lastChange = "2013-12-17 22:01:01 -0800";
layers = (
{
layerId = "98C086B7-81AA-4491-8494-0C6A76849168";
name = Light;
paths = (
{
closed = 1;
nodes = (
"1717 1152 LINE",
"707 1152 LINE",
"695 1089 LINE",
"853 1089 LINE",
"229 62 LINE",
"72 62 LINE",
"60 0 LINE",
"462 0 LINE",
"474 62 LINE",
"316 62 LINE",
"558 441 LINE",
"1039 441 LINE",
"1116 62 LINE",
"952 62 LINE",
"940 0 LINE",
"1968 0 LINE",
"1899 376 LINE",
"1822 376 LINE",
"1878 70 LINE",
"1201 70 LINE",
"1103 534 LINE",
"1529 534 LINE",
"1560 362 LINE",
"1627 362 LINE",
"1553 762 LINE",
"1486 762 LINE",
"1516 604 LINE",
"1090 604 LINE",
"996 1082 LINE",
"1654 1082 LINE",
"1710 776 LINE",
"1787 776 LINE"
);
},
{
closed = 1;
nodes = (
"924 1078 LINE",
"1028 502 LINE",
"591 502 LINE",
"915 1078 LINE"
);
}
);
width = 2097;
},
{
layerId = "1F09728C-766D-4240-AE17-E499EF32E23D";
name = Regular;
paths = (
{
closed = 1;
nodes = (
"1487 1153 LINE",
"410 1153 LINE",
"394 1037 LINE",
"496 1037 LINE",
"121 116 LINE",
"-12 116 LINE",
"-23 0 LINE",
"430 0 LINE",
"441 116 LINE",
"287 116 LINE",
"393 424 LINE",
"854 424 LINE",
"928 116 LINE",
"756 116 LINE",
"744 0 LINE",
"1735 0 LINE",
"1657 328 LINE",
"1528 328 LINE",
"1580 116 LINE",
"1089 116 LINE",
"982 548 LINE",
"1341 548 LINE",
"1380 410 LINE",
"1478 410 LINE",
"1393 769 LINE",
"1296 769 LINE",
"1320 655 LINE",
"958 655 LINE",
"867 1037 LINE",
"1380 1037 LINE",
"1431 832 LINE",
"1563 832 LINE"
);
},
{
closed = 1;
nodes = (
"707 1037 LINE",
"825 545 LINE",
"442 545 LINE",
"639 1037 LINE"
);
}
);
width = 1733;
},
{
layerId = "EFCDB4D9-E20B-4A8D-9DB5-150AD166B0AE";
name = Bold;
paths = (
{
closed = 1;
nodes = (
"1792 1152 LINE",
"577 1152 LINE",
"577 1012 LINE",
"695 1012 LINE",
"135 141 LINE",
"-11 141 LINE",
"-11 0 LINE",
"501 0 LINE",
"501 141 LINE",
"362 141 LINE",
"524 413 LINE",
"911 413 LINE",
"911 141 LINE",
"757 141 LINE",
"757 0 LINE",
"1794 0 LINE",
"1794 355 LINE",
"1628 355 LINE",
"1628 141 LINE",
"1128 141 LINE",
"1128 524 LINE",
"1457 524 LINE",
"1457 411 LINE",
"1559 411 LINE",
"1559 789 LINE",
"1457 789 LINE",
"1457 673 LINE",
"1127 673 LINE",
"1127 1012 LINE",
"1626 1012 LINE",
"1626 804 LINE",
"1792 804 LINE"
);
},
{
closed = 1;
nodes = (
"911 1012 LINE",
"911 544 LINE",
"590 544 LINE",
"887 1012 LINE"
);
}
);
width = 1877;
}
);
unicode = 00C6;
userData = {
com.typemytype.robofont.layerData = {
b = {
anchors = (
);
components = (
);
contours = (
);
lib = {
};
name = AE;
unicodes = (
);
width = 2097;
};
};
};
},
{
glyphname = Oslash;
lastChange = "2013-12-17 22:01:01 -0800";
layers = (
{
components = (
{
name = O;
transform = "{1, 0, 0, 1, 0, 0}";
}
);
layerId = "98C086B7-81AA-4491-8494-0C6A76849168";
name = Light;
paths = (
{
closed = 1;
nodes = (
"1211 1203 LINE",
"235 -47 LINE",
"269 -73 LINE",
"1243 1179 LINE"
);
}
);
width = 1519;
},
{
components = (
{
name = O;
transform = "{1, -0.035, 0.035, 1, -20, 25}";
}
);
layerId = "1F09728C-766D-4240-AE17-E499EF32E23D";
name = Regular;
paths = (
{
closed = 1;
nodes = (
"1169 1198 LINE",
"193 -18 LINE",
"277 -77 LINE",
"1253 1139 LINE"
);
}
);
width = 1321;
},
{
components = (
{
name = O;
transform = "{1, 0, 0, 1, 0, 0}";
}
);
layerId = "EFCDB4D9-E20B-4A8D-9DB5-150AD166B0AE";
name = Bold;
paths = (
{
closed = 1;
nodes = (
"1231 1222 LINE",
"259 -7 LINE",
"358 -77 LINE",
"1330 1152 LINE"
);
}
);
width = 1439;
}
);
leftKerningGroup = O_Right;
rightKerningGroup = O_Left;
unicode = 00D8;
userData = {
com.typemytype.robofont.layerData = {
b = {
anchors = (
);
components = (
);
contours = (
);
lib = {
};
name = Oslash;
unicodes = (
);
width = 1519;
};
};
};
},
{
glyphname = Thorn;
lastChange = "2013-12-17 22:01:01 -0800";
layers = (
{
layerId = "98C086B7-81AA-4491-8494-0C6A76849168";
name = Light;
paths = (
{
closed = 1;
nodes = (
"493 1152 LINE",
"106 1152 LINE",
"106 1089 LINE",
"257 1089 LINE",
"257 62 LINE",
"104 62 LINE",
"104 0 LINE",
"508 0 LINE",
"508 62 LINE",
"338 62 LINE",
"338 302 LINE",
"699 302 LINE SMOOTH",
"919 302 OFFCURVE",
"1037 464 OFFCURVE",
"1037 621 CURVE SMOOTH",
"1037 774 OFFCURVE",
"928 923 OFFCURVE",
"699 923 CURVE SMOOTH",
"338 923 LINE",
"338 1089 LINE",
"493 1089 LINE"
);
},
{
closed = 1;
nodes = (
"699 860 LINE SMOOTH",
"875 860 OFFCURVE",
"958 743 OFFCURVE",
"958 621 CURVE SMOOTH",
"958 495 OFFCURVE",
"867 367 OFFCURVE",
"699 367 CURVE SMOOTH",
"338 367 LINE",
"338 860 LINE"
);
}
);
width = 1130;
},
{
layerId = "1F09728C-766D-4240-AE17-E499EF32E23D";
name = Regular;
paths = (
{
closed = 1;
nodes = (
"534 1153 LINE",
"63 1153 LINE",
"63 1037 LINE",
"214 1037 LINE",
"214 116 LINE",
"63 116 LINE",
"63 0 LINE",
"534 0 LINE",
"534 116 LINE",
"376 116 LINE",
"376 261 LINE",
"522 261 LINE SMOOTH",
"825 261 OFFCURVE",
"992 333 OFFCURVE",
"992 607 CURVE SMOOTH",
"992 830 OFFCURVE",
"825 943 OFFCURVE",
"596 942 CURVE SMOOTH",
"374 942 LINE",
"374 1038 LINE",
"534 1038 LINE"
);
},
{
closed = 1;
nodes = (
"601 815 LINE SMOOTH",
"746 815 OFFCURVE",
"827 741 OFFCURVE",
"827 596 CURVE SMOOTH",
"824 448 OFFCURVE",
"738 386 OFFCURVE",
"552 386 CURVE SMOOTH",
"374 386 LINE",
"374 815 LINE"
);
}
);
width = 1030;
},
{
layerId = "EFCDB4D9-E20B-4A8D-9DB5-150AD166B0AE";
name = Bold;
paths = (
{
closed = 1;
nodes = (
"619 1152 LINE",
"62 1152 LINE",
"62 1012 LINE",
"220 1012 LINE",
"220 141 LINE",
"57 141 LINE",
"57 0 LINE",
"606 0 LINE",
"606 141 LINE",
"439 141 LINE",
"439 259 LINE",
"586 259 LINE SMOOTH",
"878 259 OFFCURVE",
"1085 340 OFFCURVE",
"1085 603 CURVE SMOOTH",
"1085 824 OFFCURVE",
"916 925 OFFCURVE",
"606 925 CURVE SMOOTH",
"439 925 LINE",
"439 1012 LINE",
"619 1012 LINE"
);
},
{
closed = 1;
nodes = (
"593 780 LINE SMOOTH",
"788 780 OFFCURVE",
"858 734 OFFCURVE",
"858 604 CURVE SMOOTH",
"858 482 OFFCURVE",
"791 406 OFFCURVE",
"577 406 CURVE SMOOTH",
"439 406 LINE",
"439 780 LINE"
);
}
);
width = 1124;
}
);
leftKerningGroup = H_Right;
unicode = 00DE;
userData = {
com.typemytype.robofont.layerData = {
b = {
anchors = (
);
components = (
);
contours = (
);
lib = {
};
name = Thorn;
unicodes = (
);
width = 1130;
};
};
};
},
{
glyphname = Hbar;
lastChange = "2013-12-17 22:04:04 -0800";
layers = (
{
components = (
{
name = H;
transform = "{1, 0, 0, 1, 0, 0}";
}
);
layerId = "98C086B7-81AA-4491-8494-0C6A76849168";
name = Light;
paths = (
{
closed = 1;
nodes = (
"1302 882 LINE",
"141 882 LINE",
"141 831 LINE",
"1302 831 LINE"
);
}
);
width = 1445;
},
{
components = (
{
name = H;
transform = "{1, 0, 0, 1, 0, 0}";
}
);
layerId = "1F09728C-766D-4240-AE17-E499EF32E23D";
name = Regular;
paths = (
{
closed = 1;
nodes = (
"1266 895 LINE",
"116 895 LINE",
"116 810 LINE",
"1266 810 LINE"
);
}
);
width = 1381;
},
{
components = (
{
name = H;
transform = "{1, 0, 0, 1, 0, 0}";
}
);
layerId = "EFCDB4D9-E20B-4A8D-9DB5-150AD166B0AE";
name = Bold;
paths = (
{
closed = 1;
nodes = (
"1371 895 LINE",
"162 895 LINE",
"162 790 LINE",
"1371 790 LINE"
);
}
);
width = 1535;
}
);
unicode = 0126;
userData = {
com.typemytype.robofont.layerData = {
b = {
anchors = (
);
components = (
);
contours = (
);
lib = {
};
name = Hbar;
unicodes = (
);
width = 1350;
};
};
};
},
{
glyphname = Lslash;
lastChange = "2013-12-17 23:03:18 -0800";
layers = (
{
components = (
{
name = L;
transform = "{1, 0, 0, 1, 0, 0}";
}
);
layerId = "98C086B7-81AA-4491-8494-0C6A76849168";
name = Light;
paths = (
{
closed = 1;
nodes = (
"140 637 LINE",
"140 557 LINE",
"562 807 LINE",
"562 887 LINE"
);
}
);
width = 1169;
},
{
layerId = "1F09728C-766D-4240-AE17-E499EF32E23D";
name = Regular;
paths = (
{
closed = 1;
nodes = (
"533 1153 LINE",
"59 1153 LINE",
"59 1037 LINE",
"217 1037 LINE",
"217 641 LINE",
"60 579 LINE",
"60 450 LINE",
"217 512 LINE",
"217 116 LINE",
"59 116 LINE",
"59 0 LINE",
"933 0 LINE",
"933 452 LINE",
"788 452 LINE",
"788 116 LINE",
"378 116 LINE",
"378 576 LINE",
"627 676 LINE",
"627 805 LINE",
"378 705 LINE",
"378 1037 LINE",
"533 1037 LINE"
);
}
);
width = 984;
},
{
components = (
{
name = L;
transform = "{1, 0, 0, 1, 0, 0}";
}
);
layerId = "EFCDB4D9-E20B-4A8D-9DB5-150AD166B0AE";
name = Bold;
paths = (
{
closed = 1;
nodes = (
"713 879 LINE",
"97 579 LINE",
"97 450 LINE",
"713 743 LINE"
);
}
);
width = 1189;
}
);
unicode = 0141;
userData = {
com.typemytype.robofont.layerData = {
b = {
anchors = (
);
components = (
);
contours = (
);
lib = {
};
name = Lslash;
unicodes = (
);
width = 1169;
};
};
};
},
{
glyphname = OE;
lastChange = "2013-12-17 22:01:01 -0800";
layers = (
{
layerId = "98C086B7-81AA-4491-8494-0C6A76849168";
name = Light;
paths = (
{
closed = 1;
nodes = (
"1827 1152 LINE",
"794 1152 LINE SMOOTH",
"401 1152 OFFCURVE",
"154 928 OFFCURVE",
"154 571 CURVE SMOOTH",
"154 220 OFFCURVE",
"401 0 OFFCURVE",
"794 0 CURVE SMOOTH",
"1849 0 LINE",
"1849 376 LINE",
"1772 376 LINE",
"1772 70 LINE",
"1120 70 LINE",
"1120 534 LINE",
"1553 534 LINE",
"1553 362 LINE",
"1620 362 LINE",
"1620 762 LINE",
"1553 762 LINE",
"1553 604 LINE",
"1120 604 LINE",
"1120 1082 LINE",
"1750 1082 LINE",
"1750 796 LINE",
"1827 796 LINE"
);
},
{
closed = 1;
nodes = (
"1038 1076 LINE",
"1038 70 LINE",
"794 70 LINE SMOOTH",
"452 70 OFFCURVE",
"238 264 OFFCURVE",
"238 572 CURVE SMOOTH",
"238 882 OFFCURVE",
"452 1076 OFFCURVE",
"794 1076 CURVE SMOOTH"
);
}
);
width = 2019;
},
{
layerId = "1F09728C-766D-4240-AE17-E499EF32E23D";
name = Regular;
paths = (
{
closed = 1;
nodes = (
"1818 1152 LINE",
"688 1152 LINE SMOOTH",
"355 1151 OFFCURVE",
"130 911 OFFCURVE",
"131 575 CURVE SMOOTH",
"130 241 OFFCURVE",
"356 0 OFFCURVE",
"688 0 CURVE SMOOTH",
"1818 0 LINE",
"1818 328 LINE",
"1689 328 LINE",
"1689 116 LINE",
"1178 116 LINE",
"1178 526 LINE",
"1523 526 LINE",
"1523 410 LINE",
"1624 410 LINE",
"1624 769 LINE",
"1524 769 LINE",
"1524 639 LINE",
"1176 639 LINE",
"1176 1037 LINE",
"1686 1037 LINE",
"1686 832 LINE",
"1818 832 LINE"
);
},
{
closed = 1;
nodes = (
"1017 1036 LINE",
"1017 114 LINE",
"737 116 LINE SMOOTH",
"475 118 OFFCURVE",
"308 300 OFFCURVE",
"309 577 CURVE",
"308 855 OFFCURVE",
"463 1038 OFFCURVE",
"728 1037 CURVE SMOOTH"
);
}
);
width = 1920;
},
{
layerId = "EFCDB4D9-E20B-4A8D-9DB5-150AD166B0AE";
name = Bold;
paths = (
{
closed = 1;
nodes = (
"1941 1152 LINE",
"800 1152 LINE SMOOTH",
"409 1152 OFFCURVE",
"164 933 OFFCURVE",
"164 583 CURVE SMOOTH",
"164 225 OFFCURVE",
"410 0 OFFCURVE",
"801 0 CURVE SMOOTH",
"1944 0 LINE",
"1944 341 LINE",
"1777 341 LINE",
"1777 136 LINE",
"1298 136 LINE",
"1298 526 LINE",
"1606 526 LINE",
"1606 417 LINE",
"1708 417 LINE",
"1708 780 LINE",
"1607 780 LINE",
"1607 669 LINE",
"1298 669 LINE",
"1298 1016 LINE",
"1775 1016 LINE",
"1775 817 LINE",
"1941 817 LINE"
);
},
{
closed = 1;
nodes = (
"1080 1016 LINE",
"1080 136 LINE",
"818 136 LINE SMOOTH",
"562 136 OFFCURVE",
"402 308 OFFCURVE",
"402 582 CURVE SMOOTH",
"402 849 OFFCURVE",
"562 1016 OFFCURVE",
"816 1016 CURVE SMOOTH"
);
}
);
width = 2046;
}
);
leftKerningGroup = O_Right;
unicode = 0152;
userData = {
com.typemytype.robofont.layerData = {
b = {
anchors = (
);
components = (
);
contours = (
);
lib = {
};
name = OE;
unicodes = (
);
width = 2019;
};
};
};
},
{
glyphname = a;
lastChange = "2013-12-17 22:01:01 -0800";
layers = (
{
anchors = (
{
name = ogonek;
position = "{805, 0}";
},
{
name = top;
position = "{465, 805}";
}
);
layerId = "98C086B7-81AA-4491-8494-0C6A76849168";
name = Light;
paths = (
{
closed = 1;
nodes = (
"376 826 OFFCURVE",
"287 802 OFFCURVE",
"166 757 CURVE",
"182 696 LINE",
"266 731 OFFCURVE",
"370 762 OFFCURVE",
"463 762 CURVE SMOOTH",
"587 762 OFFCURVE",
"687 713 OFFCURVE",
"687 552 CURVE SMOOTH",
"687 424 LINE",
"595 441 OFFCURVE",
"497 457 OFFCURVE",
"408 457 CURVE SMOOTH",
"247 457 OFFCURVE",
"117 398 OFFCURVE",
"117 214 CURVE SMOOTH",
"117 72 OFFCURVE",
"229 -23 OFFCURVE",
"385 -23 CURVE SMOOTH",
"475 -23 OFFCURVE",
"580 10 OFFCURVE",
"687 83 CURVE",
"703 0 LINE",
"890 0 LINE",
"890 57 LINE",
"764 57 LINE",
"764 554 LINE SMOOTH",
"764 683 OFFCURVE",
"682 826 OFFCURVE",
"458 826 CURVE SMOOTH"
);
},
{
closed = 1;
nodes = (
"505 397 OFFCURVE",
"600 382 OFFCURVE",
"687 369 CURVE",
"687 143 LINE",
"569 71 OFFCURVE",
"470 42 OFFCURVE",
"392 42 CURVE SMOOTH",
"265 42 OFFCURVE",
"195 120 OFFCURVE",
"195 212 CURVE SMOOTH",
"195 353 OFFCURVE",
"295 397 OFFCURVE",
"422 397 CURVE SMOOTH"
);
}
);
width = 941;
},
{
anchors = (
{
name = ogonek;
position = "{744, 0}";
},
{
name = top;
position = "{473, 805}";
}
);
layerId = "1F09728C-766D-4240-AE17-E499EF32E23D";
name = Regular;
paths = (
{
closed = 1;
nodes = (
"354 826 OFFCURVE",
"237 789 OFFCURVE",
"148 731 CURVE",
"201 634 LINE",
"293 681 OFFCURVE",
"383 705 OFFCURVE",
"458 705 CURVE SMOOTH",
"565 705 OFFCURVE",
"640 655 OFFCURVE",
"640 554 CURVE SMOOTH",
"640 450 LINE",
"572 463 OFFCURVE",
"507 470 OFFCURVE",
"446 470 CURVE SMOOTH",
"242 470 OFFCURVE",
"108 405 OFFCURVE",
"108 206 CURVE SMOOTH",
"108 69 OFFCURVE",
"233 -18 OFFCURVE",
"375 -18 CURVE SMOOTH",
"463 -18 OFFCURVE",
"593 19 OFFCURVE",
"653 93 CURVE",
"653 93 OFFCURVE",
"655 21 OFFCURVE",
"655 0 CURVE",
"921 0 LINE",
"921 116 LINE",
"788 116 LINE",
"788 545 LINE SMOOTH",
"788 741 OFFCURVE",
"635 826 OFFCURVE",
"464 826 CURVE SMOOTH"
);
},
{
closed = 1;
nodes = (
"517 372 OFFCURVE",
"614 361 OFFCURVE",
"640 356 CURVE",
"640 182 LINE",
"577 123 OFFCURVE",
"493 93 OFFCURVE",
"390 93 CURVE SMOOTH",
"307 93 OFFCURVE",
"248 145 OFFCURVE",
"248 222 CURVE SMOOTH",
"248 342 OFFCURVE",
"330 372 OFFCURVE",
"464 372 CURVE SMOOTH"
);
}
);
width = 961;
},
{
anchors = (
{
name = ogonek;
position = "{839, 0}";
},
{
name = top;
position = "{555, 849}";
}
);
layerId = "EFCDB4D9-E20B-4A8D-9DB5-150AD166B0AE";
name = Bold;
paths = (
{
closed = 1;
nodes = (
"418 826 OFFCURVE",
"269 790 OFFCURVE",
"179 723 CURVE",
"240 601 LINE",
"331 655 OFFCURVE",
"455 679 OFFCURVE",
"530 679 CURVE SMOOTH",
"638 679 OFFCURVE",
"704 627 OFFCURVE",
"704 522 CURVE SMOOTH",
"704 453 LINE",
"636 466 OFFCURVE",
"575 474 OFFCURVE",
"512 474 CURVE SMOOTH",
"300 474 OFFCURVE",
"141 404 OFFCURVE",
"141 217 CURVE SMOOTH",
"141 87 OFFCURVE",
"254 -22 OFFCURVE",
"431 -22 CURVE SMOOTH",
"531 -22 OFFCURVE",
"609 4 OFFCURVE",
"713 83 CURVE",
"722 0 LINE",
"1047 0 LINE",
"1047 135 LINE",
"900 135 LINE",
"900 534 LINE SMOOTH",
"900 732 OFFCURVE",
"737 826 OFFCURVE",
"539 826 CURVE SMOOTH"
);
},
{
closed = 1;
nodes = (
"589 358 OFFCURVE",
"653 345 OFFCURVE",
"704 341 CURVE",
"704 190 LINE",
"636 135 OFFCURVE",
"552 105 OFFCURVE",
"473 105 CURVE SMOOTH",
"383 105 OFFCURVE",
"328 153 OFFCURVE",
"328 223 CURVE SMOOTH",
"328 330 OFFCURVE",
"421 358 OFFCURVE",
"524 358 CURVE SMOOTH"
);
}
);
width = 1124;
}
);
leftKerningGroup = a_Right;
unicode = 0061;
userData = {
com.typemytype.robofont.layerData = {
b = {
anchors = (
);
components = (
);
contours = (
{
points = (
{
segmentType = curve;
smooth = 1;
x = 391;
y = "-14";
},
{
smooth = 0;
x = 507;
y = "-14";
},
{
smooth = 0;
x = 593;
y = 21;
},
{
segmentType = curve;
smooth = 0;
x = 687;
y = 91;
},
{
segmentType = line;
smooth = 0;
x = 703;
y = "-1";
},
{
segmentType = line;
smooth = 0;
x = 890;
y = "-1";
},
{
segmentType = line;
smooth = 0;
x = 890;
y = 57;
},
{
segmentType = line;
smooth = 0;
x = 764;
y = 57;
},
{
segmentType = line;
smooth = 1;
x = 764;
y = 569;
},
{
smooth = 0;
x = 764;
y = 672;
},
{
smooth = 0;
x = 710;
y = 819;
},
{
segmentType = curve;
smooth = 1;
x = 461;
y = 819;
},
{
smooth = 0;
x = 332;
y = 819;
},
{
smooth = 0;
x = 226;
y = 792;
},
{
segmentType = curve;
smooth = 0;
x = 155;
y = 724;
},
{
segmentType = line;
smooth = 0;
x = 190;
y = 668;
},
{
smooth = 0;
x = 247;
y = 726;
},
{
smooth = 0;
x = 339;
y = 755;
},
{
segmentType = curve;
smooth = 1;
x = 459;
y = 755;
},
{
smooth = 0;
x = 600;
y = 755;
},
{
smooth = 0;
x = 687;
y = 706;
},
{
segmentType = curve;
smooth = 1;
x = 687;
y = 551;
},
{
segmentType = line;
smooth = 0;
x = 687;
y = 428;
},
{
smooth = 0;
x = 609;
y = 443;
},
{
smooth = 0;
x = 539;
y = 455;
},
{
segmentType = curve;
smooth = 1;
x = 465;
y = 455;
},
{
smooth = 0;
x = 295;
y = 455;
},
{
smooth = 0;
x = 117;
y = 433;
},
{
segmentType = curve;
smooth = 1;
x = 117;
y = 222;
},
{
smooth = 0;
x = 117;
y = 96;
},
{
smooth = 0;
x = 206;
y = "-14";
}
);
},
{
points = (
{
segmentType = curve;
smooth = 1;
x = 401;
y = 50;
},
{
smooth = 0;
x = 246;
y = 50;
},
{
smooth = 0;
x = 195;
y = 142;
},
{
segmentType = curve;
smooth = 1;
x = 195;
y = 220;
},
{
smooth = 0;
x = 195;
y = 390;
},
{
smooth = 0;
x = 346;
y = 393;
},
{
segmentType = curve;
smooth = 1;
x = 462;
y = 393;
},
{
smooth = 0;
x = 559;
y = 393;
},
{
smooth = 0;
x = 687;
y = 368;
},
{
segmentType = curve;
smooth = 0;
x = 687;
y = 368;
},
{
segmentType = line;
smooth = 0;
x = 687;
y = 151;
},
{
smooth = 0;
x = 606;
y = 76;
},
{
smooth = 0;
x = 511;
y = 50;
}
);
}
);
lib = {
};
name = a;
unicodes = (
);
width = 941;
};
};
};
},
{
glyphname = uni0201;
lastChange = "2013-12-17 22:01:01 -0800";
layers = (
{
components = (
{
name = a;
transform = "{1, 0, 0, 1, 0, 0}";
},
{
name = uni030F;
transform = "{1, 0, 0, 1, 81, 0}";
}
);
layerId = "98C086B7-81AA-4491-8494-0C6A76849168";
name = Light;
width = 941;
},
{
components = (
{
name = a;
transform = "{1, 0, 0, 1, 0, 0}";
},
{
name = uni030F;
transform = "{1, 0, 0, 1, 124, 0}";
}
);
layerId = "1F09728C-766D-4240-AE17-E499EF32E23D";
name = Regular;
width = 961;
},
{
layerId = "EFCDB4D9-E20B-4A8D-9DB5-150AD166B0AE";
name = Bold;
paths = (
{
closed = 1;
nodes = (
"386 865 OFFCURVE",
"260 829 OFFCURVE",
"170 760 CURVE",
"253 636 LINE",
"344 691 OFFCURVE",
"435 718 OFFCURVE",
"510 718 CURVE SMOOTH",
"618 718 OFFCURVE",
"695 662 OFFCURVE",
"695 555 CURVE SMOOTH",
"695 485 LINE",
"627 498 OFFCURVE",
"566 506 OFFCURVE",
"503 506 CURVE SMOOTH",
"291 506 OFFCURVE",
"132 432 OFFCURVE",
"132 233 CURVE SMOOTH",
"132 100 OFFCURVE",
"245 -19 OFFCURVE",
"422 -19 CURVE SMOOTH",
"522 -19 OFFCURVE",
"600 8 OFFCURVE",
"704 88 CURVE",
"713 0 LINE",
"1038 0 LINE",
"1038 141 LINE",
"891 141 LINE",
"891 567 LINE SMOOTH",
"891 769 OFFCURVE",
"705 865 OFFCURVE",
"507 865 CURVE SMOOTH"
);
},
{
closed = 1;
nodes = (
"580 385 OFFCURVE",
"644 372 OFFCURVE",
"695 368 CURVE",
"695 197 LINE",
"627 141 OFFCURVE",
"543 111 OFFCURVE",
"464 111 CURVE SMOOTH",
"374 111 OFFCURVE",
"319 168 OFFCURVE",
"319 239 CURVE SMOOTH",
"319 356 OFFCURVE",
"412 385 OFFCURVE",
"515 385 CURVE SMOOTH"
);
}
);
width = 1129;
}
);
leftKerningGroup = a_Right;
unicode = 0201;
userData = {
com.typemytype.robofont.layerData = {
b = {
anchors = (
);
components = (
);
contours = (
);
lib = {
};
name = uni0201;
unicodes = (
);
width = 868;
};
};
};
},
{
glyphname = uni0203;
lastChange = "2013-12-17 22:01:01 -0800";
layers = (
{
components = (
{
name = a;
transform = "{1, 0, 0, 1, 0, 0}";
},
{
name = uni0311;
transform = "{1, 0, 0, 1, 31, 0}";
}
);
layerId = "98C086B7-81AA-4491-8494-0C6A76849168";
name = Light;
width = 941;
},
{
components = (
{
name = a;
transform = "{1, 0, 0, 1, 0, 0}";
},
{
name = uni0311;
transform = "{1, 0, 0, 1, 174, 0}";
}
);
layerId = "1F09728C-766D-4240-AE17-E499EF32E23D";
name = Regular;
width = 961;
},
{
layerId = "EFCDB4D9-E20B-4A8D-9DB5-150AD166B0AE";
name = Bold;
paths = (
{
closed = 1;
nodes = (
"428 1227 OFFCURVE",
"313 1123 OFFCURVE",
"301 968 CURVE",
"460 968 LINE",
"472 1038 OFFCURVE",
"514 1077 OFFCURVE",
"584 1077 CURVE SMOOTH",
"650 1077 OFFCURVE",
"697 1038 OFFCURVE",
"706 968 CURVE",
"869 968 LINE",
"854 1122 OFFCURVE",
"743 1227 OFFCURVE",
"584 1227 CURVE SMOOTH"
);
},
{
closed = 1;
nodes = (
"386 865 OFFCURVE",
"260 829 OFFCURVE",
"170 760 CURVE",
"253 636 LINE",
"344 691 OFFCURVE",
"435 718 OFFCURVE",
"510 718 CURVE SMOOTH",
"618 718 OFFCURVE",
"695 662 OFFCURVE",
"695 555 CURVE SMOOTH",
"695 485 LINE",
"627 498 OFFCURVE",
"566 506 OFFCURVE",
"503 506 CURVE SMOOTH",
"291 506 OFFCURVE",
"132 432 OFFCURVE",
"132 233 CURVE SMOOTH",
"132 100 OFFCURVE",
"245 -19 OFFCURVE",
"422 -19 CURVE SMOOTH",
"522 -19 OFFCURVE",
"600 8 OFFCURVE",
"704 88 CURVE",
"713 0 LINE",
"1038 0 LINE",
"1038 141 LINE",
"891 141 LINE",
"891 567 LINE SMOOTH",
"891 769 OFFCURVE",
"705 865 OFFCURVE",
"507 865 CURVE SMOOTH"
);
},
{
closed = 1;
nodes = (
"580 385 OFFCURVE",
"644 372 OFFCURVE",
"695 368 CURVE",
"695 197 LINE",
"627 141 OFFCURVE",
"543 111 OFFCURVE",
"464 111 CURVE SMOOTH",
"374 111 OFFCURVE",
"319 168 OFFCURVE",
"319 239 CURVE SMOOTH",
"319 356 OFFCURVE",
"412 385 OFFCURVE",
"515 385 CURVE SMOOTH"
);
}
);
width = 1129;
}
);
leftKerningGroup = a_Right;
unicode = 0203;
userData = {
com.typemytype.robofont.layerData = {
b = {
anchors = (
);
components = (
);
contours = (
);
lib = {
};
name = uni0203;
unicodes = (
);
width = 868;
};
};
};
},
{
glyphname = b;
lastChange = "2013-12-17 22:01:01 -0800";
layers = (
{
components = (
{
name = lc_ascender_stem_1;
transform = "{1, 0, 0, 1, -3, 0}";
},
{
name = lc_bowl_right;
transform = "{1, 0, 0, 1, -3, 0}";
}
);
layerId = "98C086B7-81AA-4491-8494-0C6A76849168";
name = Light;
width = 1108;
},
{
layerId = "1F09728C-766D-4240-AE17-E499EF32E23D";
name = Regular;
paths = (
{
closed = 1;
nodes = (
"564.082 820 OFFCURVE",
"464.474 781.538 OFFCURVE",
"377.438 696.438 CURVE",
"377 1153 LINE",
"86 1153 LINE",
"86 1037 LINE",
"229 1037 LINE",
"229 116 LINE",
"95 116 LINE",
"95 0 LINE",
"372 0 LINE",
"377 92.5 LINE",
"377 72 LINE",
"461 12 OFFCURVE",
"551 -18 OFFCURVE",
"636 -18 CURVE SMOOTH",
"843 -18 OFFCURVE",
"1022 147 OFFCURVE",
"1022 403 CURVE SMOOTH",
"1022 660 OFFCURVE",
"851 820 OFFCURVE",
"659 820 CURVE SMOOTH"
);
},
{
closed = 1;
nodes = (
"533.332 101 OFFCURVE",
"449.714 132.728 OFFCURVE",
"377.919 195.198 CURVE",
"377.558 571.557 LINE",
"460.412 654.183 OFFCURVE",
"552.186 695 OFFCURVE",
"635 695 CURVE SMOOTH",
"764 695 OFFCURVE",
"868 594 OFFCURVE",
"868 399 CURVE SMOOTH",
"868 201 OFFCURVE",
"749 101 OFFCURVE",
"611 101 CURVE SMOOTH"
);
}
);
width = 1098;
},
{
layerId = "EFCDB4D9-E20B-4A8D-9DB5-150AD166B0AE";
name = Bold;
paths = (
{
closed = 1;
nodes = (
"457 1215 LINE",
"111 1215 LINE",
"111 1075 LINE",
"258 1075 LINE",
"258 141 LINE",
"134 141 LINE",
"134 0 LINE",
"455 0 LINE",
"456 104 LINE",
"521 23 OFFCURVE",
"630 -19 OFFCURVE",
"740 -19 CURVE SMOOTH",
"968 -19 OFFCURVE",
"1145 159 OFFCURVE",
"1145 433 CURVE SMOOTH",
"1145 677 OFFCURVE",
"986 866 OFFCURVE",
"741 866 CURVE SMOOTH",
"623 866 OFFCURVE",
"542 830 OFFCURVE",
"457 750 CURVE"
);
},
{
closed = 1;
nodes = (
"854 710 OFFCURVE",
"938 586 OFFCURVE",
"938 419 CURVE SMOOTH",
"938 253 OFFCURVE",
"856 137 OFFCURVE",
"697 137 CURVE SMOOTH",
"573 137 OFFCURVE",
"479 228 OFFCURVE",
"457 253 CURVE",
"457 587 LINE",
"477 613 OFFCURVE",
"570 710 OFFCURVE",
"695 710 CURVE SMOOTH"
);
}
);
width = 1259;
}
);
rightKerningGroup = o_Left;
unicode = 0062;
userData = {
com.typemytype.robofont.layerData = {
b = {
anchors = (
);
components = (
);
contours = (
);
lib = {
};
name = b;
unicodes = (
);
width = 1108.02362213;
};
};
};
},
{
glyphname = c;
lastChange = "2013-12-17 22:01:01 -0800";
layers = (
{
anchors = (
{
name = bot;
position = "{481, 0}";
},
{
name = top;
position = "{508, 805}";
}
);
layerId = "98C086B7-81AA-4491-8494-0C6A76849168";
name = Light;
paths = (
{
closed = 1;
nodes = (
"840 825 LINE",
"767 825 LINE",
"767 714 LINE",
"711 783 OFFCURVE",
"614 819 OFFCURVE",
"509 819 CURVE SMOOTH",
"311 819 OFFCURVE",
"90 689 OFFCURVE",
"90 406 CURVE SMOOTH",
"90 150 OFFCURVE",
"281 -14 OFFCURVE",
"504 -14 CURVE SMOOTH",
"625 -14 OFFCURVE",
"754 34 OFFCURVE",
"868 142 CURVE",
"845 208 LINE",
"737 99 OFFCURVE",
"617 51 OFFCURVE",
"507 51 CURVE SMOOTH",
"322 51 OFFCURVE",
"169 190 OFFCURVE",
"169 406 CURVE SMOOTH",
"169 653 OFFCURVE",
"349 757 OFFCURVE",
"512 757 CURVE SMOOTH",
"646 757 OFFCURVE",
"769 688 OFFCURVE",
"776 570 CURVE",
"840 570 LINE"
);
}
);
width = 977;
},
{
anchors = (
{
name = bot;
position = "{495, 0}";
},
{
name = top;
position = "{481, 805}";
}
);
layerId = "1F09728C-766D-4240-AE17-E499EF32E23D";
name = Regular;
paths = (
{
closed = 1;
nodes = (
"238 820 OFFCURVE",
"64 643 OFFCURVE",
"64 408 CURVE SMOOTH",
"64 160 OFFCURVE",
"235 -19 OFFCURVE",
"483 -19 CURVE SMOOTH",
"644 -19 OFFCURVE",
"774 43 OFFCURVE",
"849 157 CURVE",
"760 246 LINE",
"699 153 OFFCURVE",
"617 103 OFFCURVE",
"476 107 CURVE SMOOTH",
"318 112 OFFCURVE",
"220 233 OFFCURVE",
"220 400 CURVE SMOOTH",
"220 569 OFFCURVE",
"331 695 OFFCURVE",
"479 695 CURVE SMOOTH",
"614 695 OFFCURVE",
"680 629 OFFCURVE",
"711 517 CURVE",
"840 517 LINE",
"840 805 LINE",
"707 805 LINE",
"711 713 LINE",
"676 783 OFFCURVE",
"562 820 OFFCURVE",
"471 820 CURVE SMOOTH"
);
}
);
width = 944;
},
{
anchors = (
{
name = bot;
position = "{559, 0}";
},
{
name = top;
position = "{555, 849}";
}
);
layerId = "EFCDB4D9-E20B-4A8D-9DB5-150AD166B0AE";
name = Bold;
paths = (
{
closed = 1;
nodes = (
"285 866 OFFCURVE",
"96 676 OFFCURVE",
"96 423 CURVE SMOOTH",
"96 170 OFFCURVE",
"286 -19 OFFCURVE",
"544 -19 CURVE SMOOTH",
"728 -19 OFFCURVE",
"864 63 OFFCURVE",
"938 170 CURVE",
"846 284 LINE",
"783 204 OFFCURVE",
"704 131 OFFCURVE",
"547 137 CURVE SMOOTH",
"393 143 OFFCURVE",
"302 272 OFFCURVE",
"302 428 CURVE SMOOTH",
"302 590 OFFCURVE",
"405 704 OFFCURVE",
"547 711 CURVE SMOOTH",
"678 717 OFFCURVE",
"768 653 OFFCURVE",
"795 535 CURVE",
"942 535 LINE",
"942 849 LINE",
"779 849 LINE",
"780 759 LINE",
"752 818 OFFCURVE",
"644 866 OFFCURVE",
"540 866 CURVE SMOOTH"
);
}
);
width = 1074;
}
);
leftKerningGroup = o_Right;
unicode = 0063;
userData = {
com.typemytype.robofont.layerData = {
b = {
anchors = (
);
components = (
);
contours = (
{
points = (
{
smooth = 0;
x = 633;
y = "-14";
},
{
smooth = 0;
x = 758;
y = 33;
},
{
segmentType = curve;
smooth = 0;
x = 868;
y = 142;
},
{
segmentType = line;
smooth = 0;
x = 845;
y = 213;
},
{
smooth = 0;
x = 763;
y = 105;
},
{
smooth = 0;
x = 637;
y = 51;
},
{
segmentType = curve;
smooth = 1;
x = 515;
y = 51;
},
{
smooth = 0;
x = 316;
y = 51;
},
{
smooth = 0;
x = 169;
y = 193;
},
{
segmentType = curve;
smooth = 1;
x = 169;
y = 406;
},
{
smooth = 0;
x = 169;
y = 630;
},
{
smooth = 0;
x = 336;
y = 755;
},
{
segmentType = curve;
smooth = 1;
x = 515;
y = 755;
},
{
smooth = 0;
x = 705;
y = 755;
},
{
smooth = 0;
x = 768;
y = 657;
},
{
segmentType = curve;
smooth = 0;
x = 776;
y = 570;
},
{
segmentType = line;
smooth = 0;
x = 840;
y = 570;
},
{
segmentType = line;
smooth = 0;
x = 840;
y = 825;
},
{
segmentType = line;
smooth = 0;
x = 767;
y = 825;
},
{
segmentType = line;
smooth = 0;
x = 767;
y = 714;
},
{
smooth = 0;
x = 736;
y = 764;
},
{
smooth = 0;
x = 645;
y = 819;
},
{
segmentType = curve;
smooth = 1;
x = 522;
y = 819;
},
{
smooth = 0;
x = 268.9681295134022;
y = 819;
},
{
smooth = 0;
x = 90;
y = 650;
},
{
segmentType = curve;
smooth = 1;
x = 90;
y = 406;
},
{
smooth = 0;
x = 90;
y = 145;
},
{
smooth = 0;
x = 286;
y = "-14";
},
{
segmentType = curve;
smooth = 1;
x = 515;
y = "-14";
}
);
}
);
lib = {
};
name = c;
unicodes = (
);
width = 977;
};
};
};
},
{
glyphname = ccircumflex;
lastChange = "2013-12-17 22:01:01 -0800";
layers = (
{
components = (
{
name = c;
transform = "{1, 0, 0, 1, 0, 0}";
},
{
name = circumflex;
transform = "{1, 0, 0, 1, 294, 0}";
}
);
layerId = "98C086B7-81AA-4491-8494-0C6A76849168";
name = Light;
width = 977;
},
{
components = (
{
name = c;
transform = "{1, 0, 0, 1, 0, 0}";
},
{
name = circumflex;
transform = "{1, 0, 0, 1, 182, 0}";
}
);
layerId = "1F09728C-766D-4240-AE17-E499EF32E23D";
name = Regular;
width = 944;
},
{
layerId = "EFCDB4D9-E20B-4A8D-9DB5-150AD166B0AE";
name = Bold;
paths = (
{
closed = 1;
nodes = (
"682 1297 LINE",
"399 1297 LINE",
"265 968 LINE",
"440 968 LINE",
"541 1220 LINE",
"642 968 LINE",
"822 968 LINE"
);
},
{
closed = 1;
nodes = (
"299 866 OFFCURVE",
"121 672 OFFCURVE",
"121 423 CURVE SMOOTH",
"121 201 OFFCURVE",
"267 -19 OFFCURVE",
"572 -19 CURVE SMOOTH",
"756 -19 OFFCURVE",
"886 53 OFFCURVE",
"966 189 CURVE",
"833 274 LINE",
"776 184 OFFCURVE",
"679 137 OFFCURVE",
"575 137 CURVE SMOOTH",
"417 137 OFFCURVE",
"327 251 OFFCURVE",
"327 428 CURVE SMOOTH",
"327 599 OFFCURVE",
"417 711 OFFCURVE",
"575 711 CURVE SMOOTH",
"701 711 OFFCURVE",
"765 637 OFFCURVE",
"792 535 CURVE",
"949 535 LINE",
"949 849 LINE",
"786 849 LINE",
"787 769 LINE",
"740 820 OFFCURVE",
"655 866 OFFCURVE",
"551 866 CURVE SMOOTH"
);
}
);
width = 1097;
}
);
leftKerningGroup = o_Right;
unicode = 0109;
userData = {
com.typemytype.robofont.layerData = {
b = {
anchors = (
);
components = (
);
contours = (
);
lib = {
};
name = ccircumflex;
unicodes = (
);
width = 925;
};
};
};
},
{
glyphname = d;
lastChange = "2013-12-18 03:43:20 -0800";
layers = (
{
anchors = (
{
name = mid;
position = "{844, 958}";
}
);
components = (
{
name = lc_bowl_left;
transform = "{1, 0, 0, 1, -45, 0}";
},
{
name = lc_ascender_stem_2;
transform = "{1, 0, 0, 1, 576, 0}";
}
);
layerId = "98C086B7-81AA-4491-8494-0C6A76849168";
name = Light;
width = 1098;
},
{
anchors = (
{
name = mid;
position = "{835, 909}";
}
);
components = (
{
name = lc_bowl_left;
transform = "{1, 0, 0, 1, -25, 0}";
},
{
name = lc_ascender_stem_2;
transform = "{1, 0, 0, 1, 534, 0}";
}
);
layerId = "1F09728C-766D-4240-AE17-E499EF32E23D";
name = Regular;
width = 1084;
},
{
anchors = (
{
name = mid;
position = "{893, 937}";
}
);
layerId = "EFCDB4D9-E20B-4A8D-9DB5-150AD166B0AE";
name = Bold;
paths = (
{
closed = 1;
nodes = (
"995 1215 LINE",
"640 1215 LINE",
"640 1075 LINE",
"798 1075 LINE",
"798 753 LINE",
"714 829 OFFCURVE",
"635 866 OFFCURVE",
"520 866 CURVE SMOOTH",
"274 866 OFFCURVE",
"114 672 OFFCURVE",
"114 428 CURVE SMOOTH",
"114 137 OFFCURVE",
"306 -19 OFFCURVE",
"519 -19 CURVE SMOOTH",
"628 -19 OFFCURVE",
"720 17 OFFCURVE",
"796 98 CURVE",
"796 0 LINE",
"1141 0 LINE",
"1141 141 LINE",
"995 141 LINE"
);
},
{
closed = 1;
nodes = (
"684 711 OFFCURVE",
"774 613 OFFCURVE",
"797 588 CURVE",
"797 250 LINE",
"773 226 OFFCURVE",
"686 137 OFFCURVE",
"562 137 CURVE SMOOTH",
"402 137 OFFCURVE",
"319 256 OFFCURVE",
"319 419 CURVE SMOOTH",
"319 588 OFFCURVE",
"401 711 OFFCURVE",
"560 711 CURVE SMOOTH"
);
}
);
width = 1242;
}
);
leftKerningGroup = o_Right;
unicode = 0064;
userData = {
com.typemytype.robofont.layerData = {
b = {
anchors = (
);
components = (
);
contours = (
);
lib = {
};
name = d;
unicodes = (
);
width = 1098;
};
};
};
},
{
glyphname = e;
lastChange = "2013-12-17 23:04:49 -0800";
layers = (
{
anchors = (
{
name = ogonek;
position = "{587, 0}";
},
{
name = top;
position = "{510, 805}";
}
);
layerId = "98C086B7-81AA-4491-8494-0C6A76849168";
name = Light;
paths = (
{
closed = 1;
nodes = (
"890 406 LINE SMOOTH",
"884 687 OFFCURVE",
"692 819 OFFCURVE",
"497 819 CURVE SMOOTH",
"295 819 OFFCURVE",
"90 675 OFFCURVE",
"90 403 CURVE SMOOTH",
"90 138 OFFCURVE",
"294 -14 OFFCURVE",
"514 -14 CURVE SMOOTH",
"639 -14 OFFCURVE",
"768 35 OFFCURVE",
"868 139 CURVE",
"836 197 LINE",
"754 100 OFFCURVE",
"633 50 OFFCURVE",
"517 50 CURVE SMOOTH",
"344 50 OFFCURVE",
"181 159 OFFCURVE",
"169.669 383 CURVE",
"890 383 LINE"
);
},
{
closed = 1;
nodes = (
"170.291 442 LINE",
"186 643 OFFCURVE",
"347 755 OFFCURVE",
"505 755 CURVE SMOOTH",
"653 755 OFFCURVE",
"798 657 OFFCURVE",
"820 442 CURVE"
);
}
);
width = 992;
},
{
anchors = (
{
name = ogonek;
position = "{586, 0}";
},
{
name = top;
position = "{496, 805}";
}
);
layerId = "1F09728C-766D-4240-AE17-E499EF32E23D";
name = Regular;
paths = (
{
closed = 1;
nodes = (
"256 820 OFFCURVE",
"76 646 OFFCURVE",
"76 402 CURVE SMOOTH",
"76 151 OFFCURVE",
"250 -18 OFFCURVE",
"506 -18 CURVE SMOOTH",
"675 -18 OFFCURVE",
"770 34 OFFCURVE",
"857 138 CURVE",
"779 224 LINE",
"694 131 OFFCURVE",
"614 107 OFFCURVE",
"506 107 CURVE SMOOTH",
"343 108 OFFCURVE",
"248 209 OFFCURVE",
"239 365 CURVE",
"883 365 LINE",
"883 631 OFFCURVE",
"757 820 OFFCURVE",
"500 820 CURVE SMOOTH"
);
},
{
closed = 1;
nodes = (
"650 695 OFFCURVE",
"723 599 OFFCURVE",
"739 467 CURVE",
"241 467 LINE",
"266 611 OFFCURVE",
"347 695 OFFCURVE",
"504 695 CURVE SMOOTH"
);
}
);
width = 967;
},
{
anchors = (
{
name = ogonek;
position = "{688, 0}";
},
{
name = top;
position = "{576, 849}";
}
);
layerId = "EFCDB4D9-E20B-4A8D-9DB5-150AD166B0AE";
name = Bold;
paths = (
{
closed = 1;
nodes = (
"312 866 OFFCURVE",
"114 680 OFFCURVE",
"114 420 CURVE SMOOTH",
"114 169 OFFCURVE",
"296 -19 OFFCURVE",
"589 -19 CURVE SMOOTH",
"762 -19 OFFCURVE",
"915 50 OFFCURVE",
"976 129 CURVE",
"900 245 LINE",
"796 161 OFFCURVE",
"692 132 OFFCURVE",
"598 132 CURVE SMOOTH",
"421 132 OFFCURVE",
"331 238 OFFCURVE",
"321 383 CURVE",
"1007 383 LINE",
"1007 655 OFFCURVE",
"862 866 OFFCURVE",
"580 866 CURVE SMOOTH"
);
},
{
closed = 1;
nodes = (
"717 721 OFFCURVE",
"798 628 OFFCURVE",
"816 501 CURVE",
"324 501 LINE",
"346 634 OFFCURVE",
"429 721 OFFCURVE",
"579 721 CURVE SMOOTH"
);
}
);
width = 1119;
}
);
leftKerningGroup = o_Right;
unicode = 0065;
userData = {
com.typemytype.robofont.layerData = {
b = {
anchors = (
);
components = (
);
contours = (
{
points = (
{
segmentType = line;
smooth = 0;
x = 171;
y = 442;
},
{
smooth = 0;
x = 182;
y = 592;
},
{
smooth = 0;
x = 296;
y = 755;
},
{
segmentType = curve;
smooth = 1;
x = 507;
y = 755;
},
{
smooth = 0;
x = 699;
y = 755;
},
{
smooth = 0;
x = 803;
y = 616;
},
{
segmentType = curve;
smooth = 0;
x = 820;
y = 442;
}
);
},
{
points = (
{
segmentType = line;
smooth = 0;
x = 890;
y = 383;
},
{
smooth = 0;
x = 889;
y = 601;
},
{
smooth = 0;
x = 778.7683168889999;
y = 819;
},
{
segmentType = curve;
smooth = 1;
x = 502;
y = 819;
},
{
smooth = 0;
x = 232;
y = 819;
},
{
smooth = 0;
x = 90;
y = 618;
},
{
segmentType = curve;
smooth = 1;
x = 90;
y = 403;
},
{
smooth = 0;
x = 90;
y = 150;
},
{
smooth = 0;
x = 284;
y = "-14";
},
{
segmentType = curve;
smooth = 1;
x = 511;
y = "-14";
},
{
smooth = 0;
x = 657;
y = "-14";
},
{
smooth = 0;
x = 761;
y = 34;
},
{
segmentType = curve;
smooth = 0;
x = 868;
y = 139;
},
{
segmentType = line;
smooth = 0;
x = 836;
y = 197;
},
{
smooth = 0;
x = 747;
y = 103;
},
{
smooth = 0;
x = 652;
y = 50;
},
{
segmentType = curve;
smooth = 1;
x = 515;
y = 50;
},
{
smooth = 0;
x = 347;
y = 50;
},
{
smooth = 0;
x = 182;
y = 162;
},
{
segmentType = curve;
smooth = 0;
x = 169;
y = 383;
}
);
}
);
lib = {
};
name = e;
unicodes = (
);
width = 992;
};
};
};
},
{
glyphname = f;
lastChange = "2013-12-17 22:01:01 -0800";
layers = (
{
layerId = "98C086B7-81AA-4491-8494-0C6A76849168";
name = Light;
paths = (
{
closed = 1;
nodes = (
"342 1185 OFFCURVE",
"252 1123 OFFCURVE",
"252 1007 CURVE SMOOTH",
"252 805 LINE",
"104 805 LINE",
"104 750 LINE",
"252 750 LINE",
"252 58 LINE",
"104 58 LINE",
"104 0 LINE",
"512 0 LINE",
"512 58 LINE",
"328 58 LINE",
"328 750 LINE",
"545 750 LINE",
"545 805 LINE",
"328 805 LINE",
"328 1009 LINE SMOOTH",
"328 1084 OFFCURVE",
"381 1125 OFFCURVE",
"432 1125 CURVE SMOOTH",
"480 1125 OFFCURVE",
"533 1109 OFFCURVE",
"546 1023 CURVE",
"599 1043 LINE",
"584 1151 OFFCURVE",
"513 1185 OFFCURVE",
"429 1185 CURVE SMOOTH"
);
}
);
width = 661;
},
{
layerId = "1F09728C-766D-4240-AE17-E499EF32E23D";
name = Regular;
paths = (
{
closed = 1;
nodes = (
"324 1171 OFFCURVE",
"221 1084 OFFCURVE",
"221 943 CURVE SMOOTH",
"221 805 LINE",
"92 805 LINE",
"92 689 LINE",
"221 689 LINE",
"221 116 LINE",
"80 116 LINE",
"80 0 LINE",
"531 0 LINE",
"531 116 LINE",
"369 116 LINE",
"369 689 LINE",
"532 689 LINE",
"532 805 LINE",
"369 805 LINE",
"369 934 LINE SMOOTH",
"369 1013 OFFCURVE",
"419 1054 OFFCURVE",
"481 1054 CURVE SMOOTH",
"529 1054 OFFCURVE",
"565 1026 OFFCURVE",
"582 963 CURVE",
"692 996 LINE",
"669 1117 OFFCURVE",
"600 1171 OFFCURVE",
"472 1171 CURVE SMOOTH"
);
}
);
width = 635;
},
{
layerId = "EFCDB4D9-E20B-4A8D-9DB5-150AD166B0AE";
name = Bold;
paths = (
{
closed = 1;
nodes = (
"342 1233 OFFCURVE",
"258 1119 OFFCURVE",
"258 951 CURVE SMOOTH",
"258 849 LINE",
"128 849 LINE",
"128 709 LINE",
"258 709 LINE",
"258 141 LINE",
"132 141 LINE",
"132 0 LINE",
"624 0 LINE",
"624 141 LINE",
"456 141 LINE",
"456 709 LINE",
"621 709 LINE",
"621 849 LINE",
"456 849 LINE",
"456 948 LINE SMOOTH",
"456 1054 OFFCURVE",
"487 1096 OFFCURVE",
"545 1096 CURVE SMOOTH",
"610 1096 OFFCURVE",
"626 1047 OFFCURVE",
"637 979 CURVE",
"790 1019 LINE",
"780 1187 OFFCURVE",
"656 1233 OFFCURVE",
"538 1233 CURVE SMOOTH"
);
}
);
width = 811;
}
);
unicode = 0066;
userData = {
com.typemytype.robofont.layerData = {
b = {
anchors = (
);
components = (
);
contours = (
);
lib = {
};
name = f;
unicodes = (
);
width = 661.4400000000001;
};
};
};
},
{
glyphname = g;
lastChange = "2013-12-17 22:01:01 -0800";
layers = (
{
anchors = (
{
name = top;
position = "{505, 805}";
}
);
components = (
{
name = lc_bowl_left;
transform = "{1, 0, 0, 0.980, -45, 15}";
}
);
layerId = "98C086B7-81AA-4491-8494-0C6A76849168";
name = Light;
paths = (
{
closed = 1;
nodes = (
"1037 805 LINE",
"804 805 LINE",
"804 -44 LINE SMOOTH",
"804 -215 OFFCURVE",
"697 -312 OFFCURVE",
"500 -312 CURVE SMOOTH",
"423 -312 OFFCURVE",
"332 -297 OFFCURVE",
"229 -266 CURVE",
"214 -331 LINE",
"316 -360 OFFCURVE",
"411 -375 OFFCURVE",
"497 -375 CURVE SMOOTH",
"725 -375 OFFCURVE",
"880 -267 OFFCURVE",
"880 -27 CURVE SMOOTH",
"880 751 LINE",
"1037 751 LINE"
);
}
);
width = 1075;
},
{
anchors = (
{
name = top;
position = "{462, 805}";
}
);
components = (
{
name = lc_bowl_left;
transform = "{1, 0, 0, 0.980, -45, 15}";
}
);
layerId = "1F09728C-766D-4240-AE17-E499EF32E23D";
name = Regular;
paths = (
{
closed = 1;
nodes = (
"1019 805 LINE",
"720 805 LINE",
"720 -66 LINE SMOOTH",
"720 -192 OFFCURVE",
"586 -235 OFFCURVE",
"448 -235 CURVE SMOOTH",
"364 -235 OFFCURVE",
"287 -217 OFFCURVE",
"218 -182 CURVE",
"171 -292 LINE",
"245 -337 OFFCURVE",
"340 -359 OFFCURVE",
"456 -359 CURVE SMOOTH",
"688 -359 OFFCURVE",
"868 -260 OFFCURVE",
"868 -42 CURVE SMOOTH",
"868 689 LINE",
"1019 689 LINE"
);
}
);
width = 1052;
},
{
anchors = (
{
name = top;
position = "{555, 849}";
}
);
components = (
{
name = lc_bowl_left;
transform = "{1, 0, 0, 0.980, -45, 15}";
}
);
layerId = "EFCDB4D9-E20B-4A8D-9DB5-150AD166B0AE";
name = Bold;
paths = (
{
closed = 1;
nodes = (
"1126 849 LINE",
"793 849 LINE",
"794 -26 LINE SMOOTH",
"794 -110 OFFCURVE",
"747 -226 OFFCURVE",
"554 -226 CURVE SMOOTH",
"482 -226 OFFCURVE",
"391 -210 OFFCURVE",
"275 -171 CURVE",
"237 -309 LINE",
"370 -362 OFFCURVE",
"483 -384 OFFCURVE",
"577 -384 CURVE SMOOTH",
"871 -384 OFFCURVE",
"991 -173 OFFCURVE",
"991 -17 CURVE SMOOTH",
"991 709 LINE",
"1126 709 LINE"
);
}
);
width = 1219;
}
);
unicode = 0067;
userData = {
com.typemytype.robofont.layerData = {
b = {
anchors = (
);
components = (
);
contours = (
{
points = (
{
segmentType = curve;
smooth = 1;
x = 510;
y = "-333";
},
{
smooth = 0;
x = 722;
y = "-333";
},
{
smooth = 0;
x = 880;
y = "-225";
},
{
segmentType = curve;
smooth = 0;
x = 880;
y = 15;
},
{
segmentType = line;
smooth = 0;
x = 880;
y = 735;
},
{
segmentType = line;
smooth = 0;
x = 1005;
y = 735;
},
{
segmentType = line;
smooth = 0;
x = 1005;
y = 789;
},
{
segmentType = line;
smooth = 0;
x = 804;
y = 789;
},
{
segmentType = line;
smooth = 0;
x = 804;
y = 673;
},
{
smooth = 0;
x = 804;
y = 673;
},
{
smooth = 0;
x = 804;
y = "-2";
},
{
segmentType = curve;
smooth = 1;
x = 804;
y = "-2";
},
{
smooth = 0;
x = 804;
y = "-173";
},
{
smooth = 0;
x = 695;
y = "-271";
},
{
segmentType = curve;
smooth = 1;
x = 515;
y = "-271";
},
{
smooth = 0;
x = 444;
y = "-271";
},
{
smooth = 0;
x = 362;
y = "-255";
},
{
segmentType = curve;
smooth = 0;
x = 272;
y = "-224";
},
{
segmentType = line;
smooth = 0;
x = 257;
y = "-289";
},
{
smooth = 0;
x = 345;
y = "-318";
},
{
smooth = 0;
x = 431;
y = "-333";
}
);
}
);
lib = {
};
name = g;
unicodes = (
);
width = 1075;
};
};
};
},
{
glyphname = i;
lastChange = "2013-12-17 22:01:01 -0800";
layers = (
{
anchors = (
{
name = ogonek;
position = "{314, 0}";
}
);
components = (
{
name = lc_xheight_stem;
transform = "{1, 0, 0, 1, 0, 0}";
}
);
layerId = "98C086B7-81AA-4491-8494-0C6A76849168";
name = Light;
paths = (
{
closed = 1;
nodes = (
"302 1152 LINE SMOOTH",
"259 1152 OFFCURVE",
"237 1122 OFFCURVE",
"237 1091 CURVE SMOOTH",
"237 1062 OFFCURVE",
"259 1030 OFFCURVE",
"302 1030 CURVE SMOOTH",
"305 1030 LINE SMOOTH",
"349 1030 OFFCURVE",
"371 1062 OFFCURVE",
"371 1091 CURVE SMOOTH",
"371 1122 OFFCURVE",
"349 1152 OFFCURVE",
"305 1152 CURVE SMOOTH"
);
}
);
width = 503;
},
{
anchors = (
{
name = ogonek;
position = "{369, 0}";
}
);
components = (
{
name = lc_xheight_stem;
transform = "{1, 0, 0, 1, 0, 0}";
}
);
layerId = "1F09728C-766D-4240-AE17-E499EF32E23D";
name = Regular;
paths = (
{
closed = 1;
nodes = (
"300 1152 OFFCURVE",
"262 1120 OFFCURVE",
"262 1066 CURVE SMOOTH",
"262 1010 OFFCURVE",
"303 979 OFFCURVE",
"363 979 CURVE SMOOTH",
"405 979 OFFCURVE",
"445 1021 OFFCURVE",
"445 1066 CURVE SMOOTH",
"445 1109 OFFCURVE",
"405 1152 OFFCURVE",
"364 1152 CURVE SMOOTH"
);
}
);
width = 623;
},
{
anchors = (
{
name = ogonek;
position = "{377, 0}";
}
);
components = (
{
name = lc_xheight_stem;
transform = "{1, 0, 0, 1, 0, 0}";
}
);
layerId = "EFCDB4D9-E20B-4A8D-9DB5-150AD166B0AE";
name = Bold;
paths = (
{
closed = 1;
nodes = (
"313 1227 OFFCURVE",
"263 1179 OFFCURVE",
"263 1119 CURVE SMOOTH",
"263 1058 OFFCURVE",
"313 1011 OFFCURVE",
"376 1011 CURVE SMOOTH",
"441 1011 OFFCURVE",
"491 1058 OFFCURVE",
"491 1119 CURVE SMOOTH",
"491 1179 OFFCURVE",
"441 1227 OFFCURVE",
"376 1227 CURVE SMOOTH"
);
}
);
width = 688;
}
);
unicode = 0069;
userData = {
com.typemytype.robofont.layerData = {
b = {
anchors = (
);
components = (
);
contours = (
);
lib = {
};
name = i;
unicodes = (
);
width = 503;
};
};
};
},
{
glyphname = j;
lastChange = "2013-12-17 23:57:40 -0800";
layers = (
{
layerId = "98C086B7-81AA-4491-8494-0C6A76849168";
name = Light;
paths = (
{
closed = 1;
nodes = (
"220 1152 OFFCURVE",
"198 1122 OFFCURVE",
"198 1091 CURVE SMOOTH",
"198 1062 OFFCURVE",
"220 1030 OFFCURVE",
"263 1030 CURVE SMOOTH",
"307 1030 OFFCURVE",
"329 1062 OFFCURVE",
"329 1091 CURVE SMOOTH",
"329 1122 OFFCURVE",
"307 1152 OFFCURVE",
"263 1152 CURVE SMOOTH"
);
},
{
closed = 1;
nodes = (
"310 805 LINE",
"66 805 LINE",
"66 750 LINE",
"234 750 LINE",
"234 -30 LINE SMOOTH",
"234 -141 OFFCURVE",
"234 -200 OFFCURVE",
"103 -200 CURVE SMOOTH",
"28 -200 LINE",
"28 -258 LINE",
"105 -258 LINE SMOOTH",
"310 -258 OFFCURVE",
"310 -135 OFFCURVE",
"310 -19 CURVE SMOOTH"
);
}
);
width = 444;
},
{
layerId = "1F09728C-766D-4240-AE17-E499EF32E23D";
name = Regular;
paths = (
{
closed = 1;
nodes = (
"284 1153 OFFCURVE",
"243 1116 OFFCURVE",
"243 1066 CURVE SMOOTH",
"243 1016 OFFCURVE",
"284 979 OFFCURVE",
"335 979 CURVE SMOOTH",
"386 979 OFFCURVE",
"427 1016 OFFCURVE",
"427 1066 CURVE SMOOTH",
"427 1116 OFFCURVE",
"386 1153 OFFCURVE",
"335 1153 CURVE SMOOTH"
);
},
{
closed = 1;
nodes = (
"414 805 LINE",
"72 805 LINE",
"72 689 LINE",
"266 689 LINE",
"266 -8 LINE SMOOTH",
"266 -113 OFFCURVE",
"248 -179 OFFCURVE",
"147 -179 CURVE SMOOTH",
"40 -179 LINE",
"40 -303 LINE",
"131 -303 LINE SMOOTH",
"352 -303 OFFCURVE",
"414 -221 OFFCURVE",
"414 19 CURVE SMOOTH"
);
}
);
width = 559;
},
{
layerId = "EFCDB4D9-E20B-4A8D-9DB5-150AD166B0AE";
name = Bold;
paths = (
{
closed = 1;
nodes = (
"288 1227 OFFCURVE",
"239 1179 OFFCURVE",
"239 1119 CURVE SMOOTH",
"239 1058 OFFCURVE",
"288 1011 OFFCURVE",
"353 1011 CURVE SMOOTH",
"416 1011 OFFCURVE",
"468 1058 OFFCURVE",
"468 1119 CURVE SMOOTH",
"468 1179 OFFCURVE",
"416 1227 OFFCURVE",
"353 1227 CURVE SMOOTH"
);
},
{
closed = 1;
nodes = (
"457 804 LINE",
"92 804 LINE",
"92 664 LINE",
"259 664 LINE",
"259 -13 LINE SMOOTH",
"259 -134 OFFCURVE",
"230 -186 OFFCURVE",
"126 -186 CURVE SMOOTH",
"30 -186 LINE",
"30 -342 LINE",
"126 -342 LINE SMOOTH",
"430 -342 OFFCURVE",
"457 -184 OFFCURVE",
"457 47 CURVE SMOOTH"
);
}
);
width = 594;
}
);
unicode = 006A;
userData = {
com.typemytype.robofont.layerData = {
b = {
anchors = (
);
components = (
);
contours = (
);
lib = {
};
name = j;
unicodes = (
);
width = 444.48;
};
};
};
},
{
glyphname = k;
lastChange = "2013-12-17 22:01:01 -0800";
layers = (
{
anchors = (
{
name = bot;
position = "{519, 0}";
}
);
components = (
{
name = lc_ascender_stem;
transform = "{1, 0, 0, 1, 0, 0}";
}
);
layerId = "98C086B7-81AA-4491-8494-0C6A76849168";
name = Light;
paths = (
{
closed = 1;
nodes = (
"928 805 LINE",
"549 805 LINE",
"549 747 LINE",
"688 747 LINE",
"300 421 LINE",
"722 58 LINE",
"594 58 LINE",
"594 0 LINE",
"962 0 LINE",
"962 58 LINE",
"827 58 LINE",
"389 421 LINE",
"786 747 LINE",
"928 747 LINE"
);
}
);
width = 1051;
},
{
anchors = (
{
name = bot;
position = "{567, 0}";
}
);
components = (
{
name = lc_ascender_stem;
transform = "{1, 0, 0, 1, 0, 0}";
}
);
layerId = "1F09728C-766D-4240-AE17-E499EF32E23D";
name = Regular;
paths = (
{
closed = 1;
nodes = (
"1014 805 LINE",
"567 805 LINE",
"567 689 LINE",
"699 689 LINE",
"361 417 LINE",
"711 116 LINE",
"615 116 LINE",
"615 0 LINE",
"1036 0 LINE",
"1036 116 LINE",
"896 116 LINE",
"550 415 LINE",
"875 689 LINE",
"1014 689 LINE"
);
}
);
width = 1070;
},
{
anchors = (
{
name = bot;
position = "{620, 0}";
}
);
components = (
{
name = lc_ascender_stem;
transform = "{1, 0, 0, 1, 0, 0}";
}
);
layerId = "EFCDB4D9-E20B-4A8D-9DB5-150AD166B0AE";
name = Bold;
paths = (
{
closed = 1;
nodes = (
"1110 849 LINE",
"624 849 LINE",
"624 709 LINE",
"769 709 LINE",
"437 438 LINE",
"761 141 LINE",
"677 141 LINE",
"677 0 LINE",
"1122 0 LINE",
"1122 141 LINE",
"983 141 LINE",
"658 440 LINE",
"971 709 LINE",
"1110 709 LINE"
);
}
);
width = 1209;
}
);
rightKerningGroup = k_Left;
unicode = 006B;
userData = {
com.typemytype.robofont.guides = (
{
angle = 0;
isGlobal = 0;
magnetic = 5;
x = 474;
y = 421;
}
);
com.typemytype.robofont.layerData = {
b = {
anchors = (
);
components = (
);
contours = (
);
lib = {
};
name = k;
unicodes = (
);
width = 1050.88;
};
};
};
},
{
glyphname = o;
lastChange = "2013-12-17 22:01:01 -0800";
layers = (
{
anchors = (
{
name = top;
position = "{505, 805}";
}
);
layerId = "98C086B7-81AA-4491-8494-0C6A76849168";
name = Light;
paths = (
{
closed = 1;
nodes = (
"289 826 OFFCURVE",
"80 677 OFFCURVE",
"80 406 CURVE SMOOTH",
"80 130 OFFCURVE",
"291 -22 OFFCURVE",
"507 -22 CURVE SMOOTH",
"724 -22 OFFCURVE",
"938 128 OFFCURVE",
"938 406 CURVE SMOOTH",
"938 680 OFFCURVE",
"723 826 OFFCURVE",
"507 826 CURVE SMOOTH"
);
},
{
closed = 1;
nodes = (
"686 762 OFFCURVE",
"861 634 OFFCURVE",
"861 406 CURVE SMOOTH",
"861 170 OFFCURVE",
"686 42 OFFCURVE",
"507 42 CURVE SMOOTH",
"330 42 OFFCURVE",
"159 170 OFFCURVE",
"159 406 CURVE SMOOTH",
"159 634 OFFCURVE",
"330 762 OFFCURVE",
"507 762 CURVE SMOOTH"
);
}
);
width = 1018;
},
{
anchors = (
{
name = ogonek;
position = "{555, 0}";
},
{
name = top;
position = "{502, 805}";
}
);
layerId = "1F09728C-766D-4240-AE17-E499EF32E23D";
name = Regular;
paths = (
{
closed = 1;
nodes = (
"253 826 OFFCURVE",
"76 652 OFFCURVE",
"76 406 CURVE SMOOTH",
"76 155 OFFCURVE",
"252 -22 OFFCURVE",
"501 -22 CURVE SMOOTH",
"752 -22 OFFCURVE",
"929 154 OFFCURVE",
"929 402 CURVE SMOOTH",
"929 650 OFFCURVE",
"753 826 OFFCURVE",
"503 826 CURVE SMOOTH"
);
},
{
closed = 1;
nodes = (
"660 701 OFFCURVE",
"773 577 OFFCURVE",
"773 401 CURVE SMOOTH",
"773 227 OFFCURVE",
"660 104 OFFCURVE",
"501 103 CURVE SMOOTH",
"343 104 OFFCURVE",
"232 227 OFFCURVE",
"232 401 CURVE SMOOTH",
"232 577 OFFCURVE",
"343 701 OFFCURVE",
"501 701 CURVE SMOOTH"
);
}
);
width = 1005;
},
{
anchors = (
{
name = top;
position = "{533, 849}";
}
);
layerId = "EFCDB4D9-E20B-4A8D-9DB5-150AD166B0AE";
name = Bold;
paths = (
{
closed = 1;
nodes = (
"281 826 OFFCURVE",
"92 645 OFFCURVE",
"92 404 CURVE SMOOTH",
"92 161 OFFCURVE",
"280 -22 OFFCURVE",
"530 -22 CURVE SMOOTH",
"783 -22 OFFCURVE",
"972 161 OFFCURVE",
"972 404 CURVE SMOOTH",
"972 645 OFFCURVE",
"783 826 OFFCURVE",
"532 826 CURVE SMOOTH"
);
},
{
closed = 1;
nodes = (
"674 671 OFFCURVE",
"765 568 OFFCURVE",
"765 404 CURVE SMOOTH",
"765 238 OFFCURVE",
"675 134 OFFCURVE",
"531 134 CURVE SMOOTH",
"387 134 OFFCURVE",
"297 238 OFFCURVE",
"297 403 CURVE SMOOTH",
"297 568 OFFCURVE",
"387 671 OFFCURVE",
"530 671 CURVE SMOOTH"
);
}
);
width = 1064;
}
);
leftKerningGroup = o_Right;
rightKerningGroup = o_Left;
unicode = 006F;
userData = {
com.typemytype.robofont.layerData = {
b = {
anchors = (
);
components = (
);
contours = (
);
lib = {
};
name = o;
unicodes = (
);
width = 1038;
};
};
};
},
{
glyphname = q;
lastChange = "2013-12-17 22:01:01 -0800";
layers = (
{
components = (
{
name = lc_bowl_left;
transform = "{1, 0, 0, 1, -38, 0}";
}
);
layerId = "98C086B7-81AA-4491-8494-0C6A76849168";
name = Light;
paths = (
{
closed = 1;
nodes = (
"1010 790 LINE",
"819 790 LINE",
"805 674 LINE",
"805 -264 LINE",
"664 -264 LINE",
"664 -322 LINE",
"1024 -322 LINE",
"1024 -264 LINE",
"882 -264 LINE",
"882 732 LINE",
"1010 732 LINE"
);
}
);
width = 1103;
},
{
components = (
{
name = lc_bowl_left;
transform = "{1, 0, 0, 1, -38, 0}";
}
);
layerId = "1F09728C-766D-4240-AE17-E499EF32E23D";
name = Regular;
paths = (
{
closed = 1;
nodes = (
"1043 805 LINE",
"756 805 LINE",
"753 699 LINE",
"753 -179 LINE",
"589 -179 LINE",
"589 -303 LINE",
"1053 -303 LINE",
"1053 -179 LINE",
"901 -179 LINE",
"901 689 LINE",
"1043 689 LINE"
);
}
);
width = 1121;
},
{
components = (
{
name = lc_bowl_left;
transform = "{1, 0, 0, 1, -38, 0}";
}
);
layerId = "EFCDB4D9-E20B-4A8D-9DB5-150AD166B0AE";
name = Bold;
paths = (
{
closed = 1;
nodes = (
"1136 849 LINE",
"793 849 LINE",
"791 746 LINE",
"791 -181 LINE",
"625 -181 LINE",
"625 -330 LINE",
"1136 -330 LINE",
"1136 -181 LINE",
"989 -181 LINE",
"989 709 LINE",
"1136 709 LINE"
);
}
);
width = 1220;
}
);
leftKerningGroup = o_Right;
unicode = 0071;
userData = {
com.typemytype.robofont.layerData = {
b = {
anchors = (
);
components = (
);
contours = (
);
lib = {
};
name = q;
unicodes = (
);
width = 1102.72;
};
};
};
},
{
glyphname = r;
lastChange = "2013-12-18 00:15:16 -0800";
layers = (
{
anchors = (
{
name = bot;
position = "{320, 0}";
},
{
name = top;
position = "{455, 805}";
}
);
components = (
{
name = lc_xheight_stem;
transform = "{1, 0, 0, 1, 0, 0}";
}
);
layerId = "98C086B7-81AA-4491-8494-0C6A76849168";
name = Light;
paths = (
{
closed = 1;
nodes = (
"703 784 LINE",
"651 808 OFFCURVE",
"602 821 OFFCURVE",
"557 821 CURVE SMOOTH",
"457 821 OFFCURVE",
"376 756 OFFCURVE",
"329 582 CURVE",
"351 449 LINE",
"351 636 OFFCURVE",
"443 762 OFFCURVE",
"567 762 CURVE SMOOTH",
"605 762 OFFCURVE",
"646 751 OFFCURVE",
"689 725 CURVE"
);
}
);
width = 758;
},
{
anchors = (
{
name = bot;
position = "{357, 0}";
},
{
name = top;
position = "{403, 805}";
}
);
background = {
paths = (
{
closed = 1;
nodes = (
"722 784 LINE",
"674 806 OFFCURVE",
"623 820 OFFCURVE",
"573 820 CURVE SMOOTH",
"473 820 OFFCURVE",
"378 761 OFFCURVE",
"316 582 CURVE",
"338 449 LINE",
"338 647 OFFCURVE",
"440 759 OFFCURVE",
"574 759 CURVE SMOOTH",
"616 759 OFFCURVE",
"662 748 OFFCURVE",
"708 725 CURVE"
);
}
);
};
components = (
{
name = lc_xheight_stem;
transform = "{1, 0, 0, 1, 0, 0}";
}
);
layerId = "1F09728C-766D-4240-AE17-E499EF32E23D";
name = Regular;
paths = (
{
closed = 1;
nodes = (
"728 797 OFFCURVE",
"677 812 OFFCURVE",
"631 812 CURVE SMOOTH",
"526 812 OFFCURVE",
"447 735 OFFCURVE",
"412 589 CURVE",
"429 430 LINE",
"429 576 OFFCURVE",
"497 688 OFFCURVE",
"616 688 CURVE SMOOTH",
"655 688 OFFCURVE",
"698 676 OFFCURVE",
"747 650 CURVE",
"783 767 LINE"
);
}
);
width = 787;
},
{
anchors = (
{
name = bot;
position = "{377, 0}";
},
{
name = top;
position = "{555, 849}";
}
);
components = (
{
name = lc_xheight_stem;
transform = "{1, 0, 0, 1, 2, 0}";
}
);
layerId = "EFCDB4D9-E20B-4A8D-9DB5-150AD166B0AE";
name = Bold;
paths = (
{
closed = 1;
nodes = (
"854 768 LINE",
"795 794 OFFCURVE",
"736 812 OFFCURVE",
"681 812 CURVE SMOOTH",
"575 812 OFFCURVE",
"484 745 OFFCURVE",
"436 539 CURVE",
"477 419 LINE",
"477 559 OFFCURVE",
"559 637 OFFCURVE",
"660 637 CURVE SMOOTH",
"707 637 OFFCURVE",
"757 621 OFFCURVE",
"806 587 CURVE"
);
}
);
width = 895;
}
);
rightKerningGroup = r_Left;
unicode = 0072;
userData = {
com.typemytype.robofont.layerData = {
b = {
anchors = (
);
components = (
);
contours = (
{
points = (
{
segmentType = line;
smooth = 0;
x = 338;
y = 449;
},
{
smooth = 0;
x = 338;
y = 643;
},
{
smooth = 0;
x = 441;
y = 756;
},
{
segmentType = curve;
smooth = 1;
x = 570;
y = 756;
},
{
smooth = 0;
x = 614;
y = 756;
},
{
smooth = 0;
x = 651;
y = 742;
},
{
segmentType = curve;
smooth = 0;
x = 704;
y = 716;
},
{
segmentType = line;
smooth = 0;
x = 722;
y = 784;
},
{
smooth = 0;
x = 664;
y = 810;
},
{
smooth = 0;
x = 622;
y = 820;
},
{
segmentType = curve;
smooth = 1;
x = 575;
y = 820;
},
{
smooth = 0;
x = 467;
y = 820;
},
{
smooth = 0;
x = 381;
y = 769;
},
{
segmentType = curve;
smooth = 0;
x = 316;
y = 582;
}
);
}
);
lib = {
};
name = r;
unicodes = (
);
width = 758;
};
};
};
},
{
glyphname = s;
lastChange = "2013-12-17 22:01:01 -0800";
layers = (
{
anchors = (
{
name = bot;
position = "{466, 0}";
},
{
name = top;
position = "{435, 805}";
}
);
layerId = "98C086B7-81AA-4491-8494-0C6A76849168";
name = Light;
paths = (
{
closed = 1;
nodes = (
"278 818 OFFCURVE",
"137 752 OFFCURVE",
"137 595 CURVE SMOOTH",
"137 436 OFFCURVE",
"289 402 OFFCURVE",
"476 381 CURVE SMOOTH",
"631 363 OFFCURVE",
"711 327 OFFCURVE",
"711 212 CURVE SMOOTH",
"711 104 OFFCURVE",
"595 50 OFFCURVE",
"470 50 CURVE SMOOTH",
"358 50 OFFCURVE",
"234 87 OFFCURVE",
"199 161 CURVE",
"199 257 LINE",
"133 257 LINE",
"133 -1 LINE",
"199 -1 LINE",
"199 69 LINE",
"254 13 OFFCURVE",
"359 -14 OFFCURVE",
"466 -14 CURVE SMOOTH",
"624 -14 OFFCURVE",
"788 58 OFFCURVE",
"788 213 CURVE SMOOTH",
"788 389 OFFCURVE",
"645 424 OFFCURVE",
"502 445 CURVE SMOOTH",
"359 466 OFFCURVE",
"216 474 OFFCURVE",
"216 597 CURVE SMOOTH",
"216 707 OFFCURVE",
"326 754 OFFCURVE",
"441 754 CURVE SMOOTH",
"529 754 OFFCURVE",
"621 723 OFFCURVE",
"666 667 CURVE",
"666 549 LINE",
"733 549 LINE",
"733 802 LINE",
"666 802 LINE",
"666 744 LINE",
"607 798 OFFCURVE",
"515 818 OFFCURVE",
"422 818 CURVE SMOOTH"
);
}
);
width = 889;
},
{
anchors = (
{
name = bot;
position = "{477, 0}";
},
{
name = top;
position = "{397, 805}";
}
);
layerId = "1F09728C-766D-4240-AE17-E499EF32E23D";
name = Regular;
paths = (
{
closed = 1;
nodes = (
"729 823 LINE",
"600 823 LINE",
"600 758 LINE",
"553 793 OFFCURVE",
"480 820 OFFCURVE",
"399 820 CURVE SMOOTH",
"264 820 OFFCURVE",
"111 756 OFFCURVE",
"111 599 CURVE SMOOTH",
"111 465 OFFCURVE",
"202 411 OFFCURVE",
"342 381 CURVE SMOOTH",
"453 357 LINE SMOOTH",
"592 327 OFFCURVE",
"635 299 OFFCURVE",
"633 214 CURVE",
"628 129 OFFCURVE",
"557 93 OFFCURVE",
"472 93 CURVE SMOOTH",
"386 93 OFFCURVE",
"295 127 OFFCURVE",
"241 191 CURVE",
"231 292 LINE",
"115 292 LINE",
"115 0 LINE",
"246 0 LINE",
"246 66 LINE",
"312 15 OFFCURVE",
"394 -18 OFFCURVE",
"483 -18 CURVE SMOOTH",
"633 -18 OFFCURVE",
"772 52 OFFCURVE",
"772 229 CURVE SMOOTH",
"772 384 OFFCURVE",
"675 438 OFFCURVE",
"505 476 CURVE SMOOTH",
"407 498 LINE SMOOTH",
"314 519 OFFCURVE",
"252 529 OFFCURVE",
"256 615 CURVE SMOOTH",
"259 678 OFFCURVE",
"320 712 OFFCURVE",
"410 712 CURVE SMOOTH",
"485 712 OFFCURVE",
"560 688 OFFCURVE",
"608 646 CURVE",
"624 559 LINE",
"729 559 LINE"
);
}
);
width = 840;
},
{
anchors = (
{
name = bot;
position = "{539, 0}";
},
{
name = top;
position = "{487, 849}";
}
);
layerId = "EFCDB4D9-E20B-4A8D-9DB5-150AD166B0AE";
name = Bold;
paths = (
{
closed = 1;
nodes = (
"277 865 OFFCURVE",
"152 757 OFFCURVE",
"152 620 CURVE SMOOTH",
"152 448 OFFCURVE",
"290 393 OFFCURVE",
"428 359 CURVE SMOOTH",
"566 325 OFFCURVE",
"704 312 OFFCURVE",
"704 224 CURVE SMOOTH",
"704 155 OFFCURVE",
"640 119 OFFCURVE",
"527 119 CURVE SMOOTH",
"432 119 OFFCURVE",
"355 154 OFFCURVE",
"318 216 CURVE",
"318 283 LINE",
"162 283 LINE",
"162 0 LINE",
"318 0 LINE",
"318 51 LINE",
"377 3 OFFCURVE",
"446 -19 OFFCURVE",
"551 -19 CURVE",
"551 -22 LINE",
"757 -22 OFFCURVE",
"885 80 OFFCURVE",
"885 227 CURVE SMOOTH",
"885 407 OFFCURVE",
"746 466 OFFCURVE",
"607 501 CURVE SMOOTH",
"468 536 OFFCURVE",
"329 547 OFFCURVE",
"329 631 CURVE SMOOTH",
"329 692 OFFCURVE",
"390 728 OFFCURVE",
"488 728 CURVE SMOOTH",
"576 728 OFFCURVE",
"634 701 OFFCURVE",
"675 653 CURVE",
"675 584 LINE",
"837 584 LINE",
"837 848 LINE",
"675 848 LINE",
"675 795 LINE",
"622 842 OFFCURVE",
"544 865 OFFCURVE",
"466 865 CURVE SMOOTH"
);
}
);
width = 990;
}
);
unicode = 0073;
userData = {
com.typemytype.robofont.layerData = {
b = {
anchors = (
);
components = (
);
contours = (
);
lib = {
};
name = s;
unicodes = (
);
width = 888.96;
};
};
};
},
{
glyphname = t;
lastChange = "2013-12-17 22:01:01 -0800";
layers = (
{
anchors = (
{
name = bot;
position = "{365, 0}";
}
);
layerId = "98C086B7-81AA-4491-8494-0C6A76849168";
name = Light;
paths = (
{
closed = 1;
nodes = (
"261 1096 LINE",
"185 1078 LINE",
"185 805 LINE",
"39 805 LINE",
"39 752 LINE",
"185 752 LINE",
"185 240 LINE SMOOTH",
"185 123 OFFCURVE",
"229 0 OFFCURVE",
"433 0 CURVE SMOOTH",
"526 0 LINE",
"526 58 LINE",
"436 58 LINE SMOOTH",
"305 58 OFFCURVE",
"261 117 OFFCURVE",
"261 228 CURVE SMOOTH",
"261 752 LINE",
"491 752 LINE",
"491 805 LINE",
"261 805 LINE"
);
}
);
width = 576;
},
{
anchors = (
{
name = bot;
position = "{368, 10}";
},
{
name = mid;
position = "{280, 503}";
}
);
layerId = "1F09728C-766D-4240-AE17-E499EF32E23D";
name = Regular;
paths = (
{
closed = 1;
nodes = (
"309 1095 LINE",
"161 1063 LINE",
"161 805 LINE",
"34 805 LINE",
"34 689 LINE",
"161 689 LINE",
"161 300 LINE SMOOTH",
"161 95 OFFCURVE",
"207 0 OFFCURVE",
"393 0 CURVE SMOOTH",
"537 0 LINE",
"537 116 LINE",
"413 116 LINE SMOOTH",
"324 116 OFFCURVE",
"309 175 OFFCURVE",
"309 289 CURVE SMOOTH",
"309 689 LINE",
"512 689 LINE",
"521 805 LINE",
"309 805 LINE"
);
}
);
width = 585;
},
{
anchors = (
{
name = bot;
position = "{419, 0}";
},
{
name = mid;
position = "{294, 471}";
}
);
layerId = "EFCDB4D9-E20B-4A8D-9DB5-150AD166B0AE";
name = Bold;
paths = (
{
closed = 1;
nodes = (
"391 1156 LINE",
"196 1077 LINE",
"196 849 LINE",
"70 849 LINE",
"70 709 LINE",
"194 709 LINE",
"194 248 LINE SMOOTH",
"194 89 OFFCURVE",
"261 0 OFFCURVE",
"419 0 CURVE SMOOTH",
"603 0 LINE",
"603 141 LINE",
"458 141 LINE SMOOTH",
"406 141 OFFCURVE",
"391 174 OFFCURVE",
"391 259 CURVE SMOOTH",
"391 709 LINE",
"594 709 LINE",
"594 849 LINE",
"391 849 LINE"
);
}
);
width = 690;
}
);
rightKerningGroup = t_Left;
unicode = 0074;
userData = {
com.typemytype.robofont.layerData = {
b = {
anchors = (
);
components = (
);
contours = (
);
lib = {
};
name = t;
unicodes = (
);
width = 576;
};
};
};
},
{
glyphname = u;
lastChange = "2013-12-17 22:01:01 -0800";
layers = (
{
anchors = (
{
name = ogonek;
position = "{906, 0}";
},
{
name = top;
position = "{525, 805}";
}
);
layerId = "98C086B7-81AA-4491-8494-0C6A76849168";
name = Light;
paths = (
{
closed = 1;
nodes = (
"871 805 LINE",
"644 805 LINE",
"644 747 LINE",
"795 747 LINE",
"795 167 LINE",
"697 106 OFFCURVE",
"608 51 OFFCURVE",
"483 51 CURVE SMOOTH",
"327 51 OFFCURVE",
"300 131 OFFCURVE",
"300 230 CURVE SMOOTH",
"300 805 LINE",
"72 805 LINE",
"72 747 LINE",
"224 747 LINE",
"224 215 LINE SMOOTH",
"224 110 OFFCURVE",
"282 -13 OFFCURVE",
"476 -13 CURVE SMOOTH",
"596 -13 OFFCURVE",
"671 24 OFFCURVE",
"799 100 CURVE",
"806 0 LINE",
"1021 0 LINE",
"1021 56 LINE",
"871 56 LINE"
);
}
);
width = 1099;
},
{
anchors = (
{
name = ogonek;
position = "{800, 0}";
},
{
name = top;
position = "{491, 805}";
}
);
layerId = "1F09728C-766D-4240-AE17-E499EF32E23D";
name = Regular;
paths = (
{
closed = 1;
nodes = (
"848 805 LINE",
"552 805 LINE",
"552 689 LINE",
"700 689 LINE",
"700 250 LINE",
"626 155 OFFCURVE",
"550 107 OFFCURVE",
"459 107 CURVE SMOOTH",
"374 107 OFFCURVE",
"316 161 OFFCURVE",
"316 268 CURVE SMOOTH",
"316 805 LINE",
"32 805 LINE",
"32 689 LINE",
"168 689 LINE",
"168 261 LINE SMOOTH",
"168 75 OFFCURVE",
"265 -18 OFFCURVE",
"431 -18 CURVE SMOOTH",
"531 -18 OFFCURVE",
"616 21 OFFCURVE",
"700 100 CURVE",
"705 0 LINE",
"994 0 LINE",
"994 116 LINE",
"848 116 LINE"
);
}
);
width = 1021;
},
{
anchors = (
{
name = ogonek;
position = "{928, 0}";
},
{
name = top;
position = "{551, 804}";
}
);
layerId = "EFCDB4D9-E20B-4A8D-9DB5-150AD166B0AE";
name = Bold;
paths = (
{
closed = 1;
nodes = (
"983 804 LINE",
"646 804 LINE",
"646 664 LINE",
"787 664 LINE",
"787 259 LINE",
"723 186 OFFCURVE",
"634 137 OFFCURVE",
"553 137 CURVE SMOOTH",
"463 137 OFFCURVE",
"422 191 OFFCURVE",
"422 292 CURVE SMOOTH",
"422 804 LINE",
"98 804 LINE",
"98 664 LINE",
"225 664 LINE",
"225 269 LINE SMOOTH",
"225 90 OFFCURVE",
"317 -19 OFFCURVE",
"502 -19 CURVE SMOOTH",
"598 -19 OFFCURVE",
"699 21 OFFCURVE",
"787 96 CURVE",
"791 0 LINE",
"1132 0 LINE",
"1132 141 LINE",
"983 141 LINE"
);
}
);
width = 1211;
}
);
leftKerningGroup = u_Left;
unicode = 0075;
userData = {
com.typemytype.robofont.layerData = {
b = {
anchors = (
);
components = (
);
contours = (
);
lib = {
};
name = u;
unicodes = (
);
width = 1099;
};
};
};
},
{
glyphname = v;
lastChange = "2013-12-17 22:01:01 -0800";
layers = (
{
layerId = "98C086B7-81AA-4491-8494-0C6A76849168";
name = Light;
paths = (
{
closed = 1;
nodes = (
"1040 805 LINE",
"663 805 LINE",
"663 747 LINE",
"814 747 LINE",
"547 68 LINE",
"257 747 LINE",
"418 747 LINE",
"418 805 LINE",
"36 805 LINE",
"36 747 LINE",
"179 747 LINE",
"507 0 LINE",
"593 0 LINE",
"900 747 LINE",
"1040 747 LINE"
);
}
);
width = 1074;
},
{
layerId = "1F09728C-766D-4240-AE17-E499EF32E23D";
name = Regular;
paths = (
{
closed = 1;
nodes = (
"964 805 LINE",
"562 805 LINE",
"562 689 LINE",
"682 689 LINE",
"491 162 LINE",
"289 689 LINE",
"411 689 LINE",
"411 805 LINE",
"0 805 LINE",
"0 689 LINE",
"132 689 LINE",
"424 0 LINE",
"560 0 LINE",
"831 689 LINE",
"964 689 LINE"
);
}
);
width = 964;
},
{
layerId = "EFCDB4D9-E20B-4A8D-9DB5-150AD166B0AE";
name = Bold;
paths = (
{
closed = 1;
nodes = (
"1079 804 LINE",
"655 804 LINE",
"655 664 LINE",
"766 664 LINE",
"580 209 LINE",
"396 664 LINE",
"508 664 LINE",
"508 804 LINE",
"51 804 LINE",
"51 664 LINE",
"196 664 LINE",
"488 0 LINE",
"659 0 LINE",
"946 664 LINE",
"1079 664 LINE"
);
}
);
width = 1131;
}
);
leftKerningGroup = v_Left;
rightKerningGroup = v_Left;
unicode = 0076;
userData = {
com.typemytype.robofont.layerData = {
b = {
anchors = (
);
components = (
);
contours = (
);
lib = {
};
name = v;
unicodes = (
);
width = 1074.24;
};
};
};
},
{
glyphname = w;
lastChange = "2013-12-17 22:01:01 -0800";
layers = (
{
anchors = (
{
name = top;
position = "{805, 805}";
}
);
layerId = "98C086B7-81AA-4491-8494-0C6A76849168";
name = Light;
paths = (
{
closed = 1;
nodes = (
"1547 805 LINE",
"1189 805 LINE",
"1189 747 LINE",
"1326 747 LINE",
"1097 62 LINE",
"845 747 LINE",
"985 747 LINE",
"985 805 LINE",
"620 805 LINE",
"620 747 LINE",
"757 747 LINE",
"507 62 LINE",
"271 747 LINE",
"418 747 LINE",
"418 805 LINE",
"61 805 LINE",
"61 747 LINE",
"196 747 LINE",
"465 0 LINE",
"551 0 LINE",
"805 684 LINE",
"1058 0 LINE",
"1144 0 LINE",
"1412 747 LINE",
"1547 747 LINE"
);
}
);
width = 1608;
},
{
anchors = (
{
name = top;
position = "{718, 805}";
}
);
layerId = "1F09728C-766D-4240-AE17-E499EF32E23D";
name = Regular;
paths = (
{
closed = 1;
nodes = (
"1423 805 LINE",
"1047 805 LINE",
"1047 689 LINE",
"1167 689 LINE",
"1000 146 LINE",
"809 689 LINE",
"914 689 LINE",
"914 805 LINE",
"516 805 LINE",
"516 689 LINE",
"621 689 LINE",
"434 157 LINE",
"267 689 LINE",
"377 689 LINE",
"377 805 LINE",
"-2 805 LINE",
"-2 689 LINE",
"127 689 LINE",
"365 0 LINE",
"508 0 LINE",
"719 622 LINE",
"925 0 LINE",
"1067 0 LINE",
"1301 689 LINE",
"1423 689 LINE"
);
}
);
width = 1421;
},
{
anchors = (
{
name = top;
position = "{764, 804}";
}
);
layerId = "EFCDB4D9-E20B-4A8D-9DB5-150AD166B0AE";
name = Bold;
paths = (
{
closed = 1;
nodes = (
"1450 804 LINE",
"1076 804 LINE",
"1076 664 LINE",
"1174 664 LINE",
"1029 197 LINE",
"865 664 LINE",
"965 664 LINE",
"965 804 LINE",
"551 804 LINE",
"551 664 LINE",
"652 664 LINE",
"496 201 LINE",
"339 664 LINE",
"427 664 LINE",
"427 804 LINE",
"53 804 LINE",
"53 664 LINE",
"146 664 LINE",
"391 0 LINE",
"576 0 LINE",
"754 502 LINE",
"934 0 LINE",
"1119 0 LINE",
"1352 664 LINE",
"1450 664 LINE"
);
}
);
width = 1503;
}
);
leftKerningGroup = w_Left;
rightKerningGroup = w_Left;
unicode = 0077;
userData = {
com.typemytype.robofont.layerData = {
b = {
anchors = (
);
components = (
);
contours = (
);
lib = {
};
name = w;
unicodes = (
);
width = 1608;
};
};
};
},
{
glyphname = x;
lastChange = "2013-12-17 22:01:01 -0800";
layers = (
{
layerId = "98C086B7-81AA-4491-8494-0C6A76849168";
name = Light;
paths = (
{
closed = 1;
nodes = (
"1055 805 LINE",
"674 805 LINE",
"674 747 LINE",
"816 747 LINE",
"579 462 LINE",
"339 747 LINE",
"490 747 LINE",
"490 805 LINE",
"121 805 LINE",
"121 747 LINE",
"264 747 LINE",
"540 416 LINE",
"242 58 LINE",
"98 58 LINE",
"98 0 LINE",
"466 0 LINE",
"466 58 LINE",
"333 58 LINE",
"586 363 LINE",
"844 58 LINE",
"686 58 LINE",
"686 0 LINE",
"1066 0 LINE",
"1066 58 LINE",
"921 58 LINE",
"623 409 LINE",
"902 747 LINE",
"1055 747 LINE"
);
}
);
width = 1164;
},
{
layerId = "1F09728C-766D-4240-AE17-E499EF32E23D";
name = Regular;
paths = (
{
closed = 1;
nodes = (
"950 805 LINE",
"570 805 LINE",
"570 689 LINE",
"671 689 LINE",
"509 494 LINE",
"341 689 LINE",
"450 689 LINE",
"450 805 LINE",
"70 805 LINE",
"70 689 LINE",
"195 689 LINE",
"432 413 LINE",
"179 116 LINE",
"60 116 LINE",
"60 0 LINE",
"438 0 LINE",
"438 116 LINE",
"332 116 LINE",
"509 329 LINE",
"694 116 LINE",
"582 116 LINE",
"582 0 LINE",
"958 0 LINE",
"958 116 LINE",
"846 116 LINE",
"588 413 LINE",
"817 689 LINE",
"950 689 LINE"
);
}
);
width = 1018;
},
{
layerId = "EFCDB4D9-E20B-4A8D-9DB5-150AD166B0AE";
name = Bold;
paths = (
{
closed = 1;
nodes = (
"1035 804 LINE",
"622 804 LINE",
"622 664 LINE",
"720 664 LINE",
"575 502 LINE",
"429 664 LINE",
"529 664 LINE",
"529 804 LINE",
"104 804 LINE",
"104 664 LINE",
"227 664 LINE",
"464 409 LINE",
"219 141 LINE",
"111 141 LINE",
"111 0 LINE",
"514 0 LINE",
"514 141 LINE",
"402 141 LINE",
"561 316 LINE",
"726 141 LINE",
"611 141 LINE",
"611 0 LINE",
"1035 0 LINE",
"1035 141 LINE",
"929 141 LINE",
"674 420 LINE",
"900 664 LINE",
"1035 664 LINE"
);
}
);
width = 1133;
}
);
unicode = 0078;
userData = {
com.typemytype.robofont.layerData = {
b = {
anchors = (
);
components = (
);
contours = (
);
lib = {
};
name = x;
unicodes = (
);
width = 1163.52;
};
};
};
},
{
glyphname = y;
lastChange = "2013-12-18 00:20:28 -0800";
layers = (
{
anchors = (
{
name = top;
position = "{575, 805}";
}
);
layerId = "98C086B7-81AA-4491-8494-0C6A76849168";
name = Light;
paths = (
{
closed = 1;
nodes = (
"1064 805 LINE",
"686 805 LINE",
"686 747 LINE",
"847 747 LINE",
"582 87 LINE",
"295 747 LINE",
"437 747 LINE",
"437 805 LINE",
"54 805 LINE",
"54 747 LINE",
"211 747 LINE",
"518 58 LINE",
"572 58 LINE",
"505 -98 LINE SMOOTH",
"465 -190 OFFCURVE",
"381 -196 OFFCURVE",
"270 -196 CURVE SMOOTH",
"219 -196 LINE",
"219 -261 LINE",
"239 -261 LINE SMOOTH",
"401 -261 OFFCURVE",
"517 -258 OFFCURVE",
"575 -120 CURVE SMOOTH",
"934 747 LINE",
"1064 747 LINE"
);
}
);
width = 1089;
},
{
anchors = (
{
name = top;
position = "{514, 805}";
}
);
layerId = "1F09728C-766D-4240-AE17-E499EF32E23D";
name = Regular;
paths = (
{
closed = 1;
nodes = (
"999 805 LINE",
"586 805 LINE",
"586 689 LINE",
"713 689 LINE",
"528 125 LINE",
"297 689 LINE",
"421 689 LINE",
"421 805 LINE",
"15 805 LINE",
"15 689 LINE",
"141 689 LINE",
"414 43 LINE",
"508 43 LINE",
"476 -42 LINE SMOOTH",
"436 -149 OFFCURVE",
"380 -202 OFFCURVE",
"248 -202 CURVE SMOOTH",
"174 -202 LINE",
"174 -320 LINE",
"260 -320 LINE SMOOTH",
"502 -320 OFFCURVE",
"566 -179 OFFCURVE",
"637 36 CURVE SMOOTH",
"873 689 LINE",
"999 689 LINE"
);
}
);
width = 1005;
},
{
anchors = (
{
name = top;
position = "{576, 804}";
}
);
layerId = "EFCDB4D9-E20B-4A8D-9DB5-150AD166B0AE";
name = Bold;
paths = (
{
closed = 1;
nodes = (
"1098 804 LINE",
"648 804 LINE",
"648 664 LINE",
"773 664 LINE",
"592 182 LINE",
"380 664 LINE",
"486 664 LINE",
"486 804 LINE",
"40 804 LINE",
"40 664 LINE",
"181 664 LINE",
"470 45 LINE",
"547 45 LINE",
"516 -59 LINE SMOOTH",
"473 -195 OFFCURVE",
"424 -206 OFFCURVE",
"328 -206 CURVE SMOOTH",
"230 -206 LINE",
"230 -363 LINE",
"348 -363 LINE SMOOTH",
"589 -363 OFFCURVE",
"616 -242 OFFCURVE",
"701 -23 CURVE SMOOTH",
"967 664 LINE",
"1098 664 LINE"
);
}
);
width = 1141;
}
);
leftKerningGroup = y_Left;
rightKerningGroup = y_Left;
unicode = 0079;
userData = {
com.typemytype.robofont.layerData = {
b = {
anchors = (
);
components = (
);
contours = (
);
lib = {
};
name = y;
unicodes = (
);
width = 1088.64;
};
};
};
},
{
glyphname = z;
lastChange = "2013-12-18 00:21:12 -0800";
layers = (
{
anchors = (
{
name = top;
position = "{468, 805}";
}
);
layerId = "98C086B7-81AA-4491-8494-0C6A76849168";
name = Light;
paths = (
{
closed = 1;
nodes = (
"765 805 LINE",
"153 805 LINE",
"153 562 LINE",
"219 562 LINE",
"219 747 LINE",
"685 747 LINE",
"132 64 LINE",
"132 0 LINE",
"782 0 LINE",
"782 266 LINE",
"716 266 LINE",
"716 56 LINE",
"219 56 LINE",
"765 735 LINE"
);
}
);
width = 914;
},
{
anchors = (
{
name = top;
position = "{432, 805}";
}
);
layerId = "1F09728C-766D-4240-AE17-E499EF32E23D";
name = Regular;
paths = (
{
closed = 1;
nodes = (
"746 805 LINE",
"106 805 LINE",
"106 537 LINE",
"227 537 LINE",
"227 689 LINE",
"564 689 LINE",
"92 116 LINE",
"92 0 LINE",
"771 0 LINE",
"771 276 LINE",
"643 276 LINE",
"643 116 LINE",
"272 116 LINE",
"746 683 LINE"
);
}
);
width = 819;
},
{
anchors = (
{
name = top;
position = "{555, 804}";
}
);
layerId = "EFCDB4D9-E20B-4A8D-9DB5-150AD166B0AE";
name = Bold;
paths = (
{
closed = 1;
nodes = (
"923 804 LINE",
"182 804 LINE",
"182 517 LINE",
"328 517 LINE",
"328 670 LINE",
"689 670 LINE",
"174 135 LINE",
"174 0 LINE",
"922 0 LINE",
"922 298 LINE",
"771 298 LINE",
"771 133 LINE",
"404 133 LINE",
"923 665 LINE"
);
}
);
width = 1065;
}
);
unicode = 007A;
userData = {
com.typemytype.robofont.layerData = {
b = {
anchors = (
);
components = (
);
contours = (
);
lib = {
};
name = z;
unicodes = (
);
width = 913.92;
};
};
};
},
{
glyphname = ordfeminine;
lastChange = "2013-12-18 00:26:53 -0800";
layers = (
{
layerId = "98C086B7-81AA-4491-8494-0C6A76849168";
name = Light;
paths = (
{
closed = 1;
nodes = (
"280 1174 OFFCURVE",
"201 1154 OFFCURVE",
"145 1100 CURVE",
"181 1042 LINE",
"225 1088 OFFCURVE",
"290 1111 OFFCURVE",
"374 1111 CURVE SMOOTH",
"470 1111 OFFCURVE",
"529 1077 OFFCURVE",
"529 974 CURVE SMOOTH",
"529 897 LINE",
"477 907 OFFCURVE",
"425 915 OFFCURVE",
"375 915 CURVE SMOOTH",
"249 915 OFFCURVE",
"117 898 OFFCURVE",
"117 737 CURVE SMOOTH",
"117 644 OFFCURVE",
"184 560 OFFCURVE",
"322 560 CURVE SMOOTH",
"400 560 OFFCURVE",
"469 585 OFFCURVE",
"531 627 CURVE",
"540 569 LINE",
"708 569 LINE",
"708 629 LINE",
"602 629 LINE",
"602 986 LINE SMOOTH",
"602 1064 OFFCURVE",
"562 1174 OFFCURVE",
"375 1174 CURVE SMOOTH"
);
},
{
closed = 1;
nodes = (
"381 851 CURVE SMOOTH",
"437 851 OFFCURVE",
"507 841 OFFCURVE",
"529 836 CURVE",
"529 691 LINE",
"472 640 OFFCURVE",
"404 625 OFFCURVE",
"329 625 CURVE SMOOTH",
"225 625 OFFCURVE",
"191 685 OFFCURVE",
"191 736 CURVE SMOOTH",
"191 848 OFFCURVE",
"284 851 OFFCURVE"
);
}
);
width = 791;
},
{
layerId = "1F09728C-766D-4240-AE17-E499EF32E23D";
name = Regular;
paths = (
{
closed = 1;
nodes = (
"203 1174 OFFCURVE",
"128 1145 OFFCURVE",
"72 1089 CURVE",
"141 1016 LINE",
"176 1061 OFFCURVE",
"229 1084 OFFCURVE",
"302 1084 CURVE SMOOTH",
"395 1084 OFFCURVE",
"442 1045 OFFCURVE",
"442 968 CURVE SMOOTH",
"442 895 LINE",
"392 905 OFFCURVE",
"335 910 OFFCURVE",
"271 910 CURVE SMOOTH",
"133 910 OFFCURVE",
"36 856 OFFCURVE",
"36 711 CURVE SMOOTH",
"36 610 OFFCURVE",
"133 542 OFFCURVE",
"244 542 CURVE SMOOTH",
"246 542 LINE SMOOTH",
"311 542 OFFCURVE",
"380 568 OFFCURVE",
"453 619 CURVE",
"454 557 LINE",
"662 557 LINE",
"662 642 LINE",
"554 642 LINE",
"554 973 LINE SMOOTH",
"554 1116 OFFCURVE",
"459 1174 OFFCURVE",
"298 1174 CURVE SMOOTH"
);
},
{
closed = 1;
nodes = (
"354 834 OFFCURVE",
"402 822 OFFCURVE",
"442 822 CURVE",
"442 691 LINE",
"393 646 OFFCURVE",
"334 624 OFFCURVE",
"259 624 CURVE SMOOTH",
"193 624 OFFCURVE",
"144 659 OFFCURVE",
"144 719 CURVE SMOOTH",
"144 796 OFFCURVE",
"198 834 OFFCURVE",
"307 834 CURVE SMOOTH"
);
}
);
width = 696;
},
{
layerId = "EFCDB4D9-E20B-4A8D-9DB5-150AD166B0AE";
name = Bold;
paths = (
{
closed = 1;
nodes = (
"238 1174 OFFCURVE",
"145 1134 OFFCURVE",
"88 1056 CURVE",
"191 998 LINE",
"225 1047 OFFCURVE",
"278 1074 OFFCURVE",
"348 1074 CURVE SMOOTH",
"441 1074 OFFCURVE",
"499 1033 OFFCURVE",
"499 951 CURVE SMOOTH",
"499 869 LINE",
"442 890 OFFCURVE",
"383 903 OFFCURVE",
"328 903 CURVE SMOOTH",
"179 903 OFFCURVE",
"64 839 OFFCURVE",
"64 697 CURVE SMOOTH",
"64 590 OFFCURVE",
"157 502 OFFCURVE",
"291 502 CURVE SMOOTH",
"370 502 OFFCURVE",
"440 529 OFFCURVE",
"511 588 CURVE",
"511 515 LINE",
"739 515 LINE",
"739 616 LINE",
"624 616 LINE",
"624 964 LINE SMOOTH",
"624 1102 OFFCURVE",
"524 1174 OFFCURVE",
"363 1174 CURVE SMOOTH"
);
},
{
closed = 1;
nodes = (
"395 814 OFFCURVE",
"454 796 OFFCURVE",
"499 778 CURVE",
"499 669 LINE SMOOTH",
"447 622 OFFCURVE",
"375 595 OFFCURVE",
"311 595 CURVE SMOOTH",
"232 595 OFFCURVE",
"188 639 OFFCURVE",
"188 698 CURVE SMOOTH",
"188 785 OFFCURVE",
"256 814 OFFCURVE",
"339 814 CURVE SMOOTH"
);
}
);
width = 743;
}
);
unicode = 00AA;
userData = {
com.typemytype.robofont.layerData = {
b = {
anchors = (
);
components = (
);
contours = (
);
lib = {
};
name = ordfeminine;
unicodes = (
);
width = 791;
};
};
};
},
{
glyphname = ordmasculine;
lastChange = "2013-12-18 00:27:40 -0800";
layers = (
{
layerId = "98C086B7-81AA-4491-8494-0C6A76849168";
name = Light;
paths = (
{
closed = 1;
nodes = (
"240 1174 OFFCURVE",
"90 1068 OFFCURVE",
"90 863 CURVE SMOOTH",
"90 655 OFFCURVE",
"241 548 OFFCURVE",
"404 548 CURVE SMOOTH",
"566 548 OFFCURVE",
"720 655 OFFCURVE",
"720 863 CURVE SMOOTH",
"720 1070 OFFCURVE",
"566 1174 OFFCURVE",
"404 1174 CURVE SMOOTH"
);
},
{
closed = 1;
nodes = (
"530 1112 OFFCURVE",
"647 1027 OFFCURVE",
"647 863 CURVE SMOOTH",
"647 696 OFFCURVE",
"530 611 OFFCURVE",
"404 611 CURVE SMOOTH",
"277 611 OFFCURVE",
"163 696 OFFCURVE",
"163 863 CURVE SMOOTH",
"163 1027 OFFCURVE",
"277 1112 OFFCURVE",
"404 1112 CURVE SMOOTH"
);
}
);
width = 810;
},
{
layerId = "1F09728C-766D-4240-AE17-E499EF32E23D";
name = Regular;
paths = (
{
closed = 1;
nodes = (
"173 1170 OFFCURVE",
"38 1035 OFFCURVE",
"38 857 CURVE SMOOTH",
"38 678 OFFCURVE",
"172 544 OFFCURVE",
"351 544 CURVE SMOOTH",
"353 544 LINE SMOOTH",
"532 544 OFFCURVE",
"667 678 OFFCURVE",
"667 857 CURVE SMOOTH",
"667 1037 OFFCURVE",
"532 1171 OFFCURVE",
"353 1171 CURVE SMOOTH"
);
},
{
closed = 1;
nodes = (
"463 1068 OFFCURVE",
"546 978 OFFCURVE",
"546 857 CURVE SMOOTH",
"546 736 OFFCURVE",
"463 644 OFFCURVE",
"353 644 CURVE SMOOTH",
"242 644 OFFCURVE",
"158 736 OFFCURVE",
"158 857 CURVE SMOOTH",
"158 978 OFFCURVE",
"241 1068 OFFCURVE",
"352 1068 CURVE SMOOTH"
);
}
);
width = 704;
},
{
layerId = "EFCDB4D9-E20B-4A8D-9DB5-150AD166B0AE";
name = Bold;
paths = (
{
closed = 1;
nodes = (
"214 1174 OFFCURVE",
"69 1031 OFFCURVE",
"69 839 CURVE SMOOTH",
"69 648 OFFCURVE",
"214 505 OFFCURVE",
"407 505 CURVE SMOOTH",
"600 505 OFFCURVE",
"744 648 OFFCURVE",
"744 839 CURVE SMOOTH",
"744 1031 OFFCURVE",
"600 1174 OFFCURVE",
"407 1174 CURVE SMOOTH"
);
},
{
closed = 1;
nodes = (
"523 1059 OFFCURVE",
"610 965 OFFCURVE",
"610 839 CURVE SMOOTH",
"610 712 OFFCURVE",
"523 616 OFFCURVE",
"407 616 CURVE SMOOTH",
"290 616 OFFCURVE",
"202 712 OFFCURVE",
"202 839 CURVE SMOOTH",
"202 965 OFFCURVE",
"290 1059 OFFCURVE",
"407 1059 CURVE SMOOTH"
);
}
);
width = 813;
}
);
unicode = 00BA;
userData = {
com.typemytype.robofont.layerData = {
b = {
anchors = (
);
components = (
);
contours = (
);
lib = {
};
name = ordmasculine;
unicodes = (
);
width = 870;
};
};
};
},
{
glyphname = germandbls;
lastChange = "2013-12-18 00:27:57 -0800";
layers = (
{
layerId = "98C086B7-81AA-4491-8494-0C6A76849168";
name = Light;
paths = (
{
closed = 1;
nodes = (
"340 1255 OFFCURVE",
"238 1106 OFFCURVE",
"238 851 CURVE SMOOTH",
"238 62 LINE",
"85 62 LINE",
"85 0 LINE",
"435 0 LINE",
"435 62 LINE",
"319 62 LINE",
"319 856 LINE SMOOTH",
"319 1088 OFFCURVE",
"385 1180 OFFCURVE",
"591 1180 CURVE SMOOTH",
"768 1180 OFFCURVE",
"858 1072 OFFCURVE",
"858 955 CURVE SMOOTH",
"858 829 OFFCURVE",
"773 694 OFFCURVE",
"594 685 CURVE",
"594 641 LINE",
"887 641 OFFCURVE",
"993 493 OFFCURVE",
"993 337 CURVE SMOOTH",
"993 122 OFFCURVE",
"798 62 OFFCURVE",
"586 62 CURVE",
"586 0 LINE",
"925 0 OFFCURVE",
"1072 143 OFFCURVE",
"1072 337 CURVE SMOOTH",
"1072 517 OFFCURVE",
"935 668 OFFCURVE",
"718 676 CURVE",
"880 708 OFFCURVE",
"937 838 OFFCURVE",
"937 958 CURVE SMOOTH",
"937 1104 OFFCURVE",
"813 1255 OFFCURVE",
"587 1255 CURVE SMOOTH"
);
}
);
width = 1174;
},
{
layerId = "1F09728C-766D-4240-AE17-E499EF32E23D";
name = Regular;
paths = (
{
closed = 1;
nodes = (
"343 1171 OFFCURVE",
"222 1029 OFFCURVE",
"222 786 CURVE SMOOTH",
"222 116 LINE",
"72 116 LINE",
"72 0 LINE",
"493 0 LINE",
"493 116 LINE",
"362 116 LINE",
"362 790 LINE SMOOTH",
"362 961 OFFCURVE",
"440 1047 OFFCURVE",
"596 1047 CURVE SMOOTH",
"706 1047 OFFCURVE",
"782 983 OFFCURVE",
"782 874 CURVE SMOOTH",
"782 753 OFFCURVE",
"702 675 OFFCURVE",
"573 675 CURVE",
"573 569 LINE",
"757 571 OFFCURVE",
"890 501 OFFCURVE",
"889 346 CURVE SMOOTH",
"889 193 OFFCURVE",
"797 116 OFFCURVE",
"613 116 CURVE",
"613 0 LINE",
"815 0 OFFCURVE",
"960 64 OFFCURVE",
"1012 208 CURVE SMOOTH",
"1102 459 OFFCURVE",
"950 608 OFFCURVE",
"748 641 CURVE",
"866 678 OFFCURVE",
"925 760 OFFCURVE",
"925 889 CURVE",
"924 1071 OFFCURVE",
"777 1171 OFFCURVE",
"585 1171 CURVE SMOOTH"
);
}
);
width = 1114;
},
{
layerId = "EFCDB4D9-E20B-4A8D-9DB5-150AD166B0AE";
name = Bold;
paths = (
{
closed = 1;
nodes = (
"333 1233 OFFCURVE",
"196 1082 OFFCURVE",
"196 824 CURVE SMOOTH",
"196 141 LINE",
"43 141 LINE",
"43 0 LINE",
"525 0 LINE",
"525 141 LINE",
"409 141 LINE",
"409 828 LINE SMOOTH",
"409 1014 OFFCURVE",
"488 1079 OFFCURVE",
"614 1079 CURVE SMOOTH",
"717 1079 OFFCURVE",
"781 1014 OFFCURVE",
"781 920 CURVE SMOOTH",
"781 819 OFFCURVE",
"725 726 OFFCURVE",
"578 726 CURVE",
"578 586 LINE",
"805 586 OFFCURVE",
"882 492 OFFCURVE",
"882 368 CURVE SMOOTH",
"882 197 OFFCURVE",
"762 141 OFFCURVE",
"616 141 CURVE",
"616 0 LINE",
"966 0 OFFCURVE",
"1097 155 OFFCURVE",
"1097 368 CURVE SMOOTH",
"1097 526 OFFCURVE",
"992 636 OFFCURVE",
"809 678 CURVE",
"929 726 OFFCURVE",
"983 814 OFFCURVE",
"983 931 CURVE SMOOTH",
"983 1110 OFFCURVE",
"831 1233 OFFCURVE",
"614 1233 CURVE SMOOTH"
);
}
);
width = 1143;
}
);
unicode = 00DF;
userData = {
com.typemytype.robofont.layerData = {
b = {
anchors = (
);
components = (
);
contours = (
);
lib = {
};
name = germandbls;
unicodes = (
);
width = 1174;
};
};
};
},
{
glyphname = ae;
lastChange = "2013-12-18 00:28:02 -0800";
layers = (
{
layerId = "98C086B7-81AA-4491-8494-0C6A76849168";
name = Light;
paths = (
{
closed = 1;
nodes = (
"988 854 OFFCURVE",
"870 766 OFFCURVE",
"803 641 CURVE",
"780 746 OFFCURVE",
"702 854 OFFCURVE",
"497 854 CURVE SMOOTH",
"363 854 OFFCURVE",
"253 826 OFFCURVE",
"179 755 CURVE",
"215 696 LINE",
"275 757 OFFCURVE",
"370 787 OFFCURVE",
"495 787 CURVE SMOOTH",
"642 787 OFFCURVE",
"733 736 OFFCURVE",
"733 575 CURVE",
"739 446 LINE",
"658 462 OFFCURVE",
"579 475 OFFCURVE",
"502 475 CURVE SMOOTH",
"324 475 OFFCURVE",
"139 452 OFFCURVE",
"139 232 CURVE SMOOTH",
"139 101 OFFCURVE",
"232 -14 OFFCURVE",
"425 -14 CURVE SMOOTH",
"544 -14 OFFCURVE",
"693 0 OFFCURVE",
"820 116 CURVE",
"899 25 OFFCURVE",
"1006 -14 OFFCURVE",
"1137 -14 CURVE SMOOTH",
"1259 -14 OFFCURVE",
"1390 35 OFFCURVE",
"1507 149 CURVE",
"1474 204 LINE",
"1384 105 OFFCURVE",
"1262 52 OFFCURVE",
"1140 52 CURVE SMOOTH",
"910 52 OFFCURVE",
"815 164 OFFCURVE",
"815 400 CURVE",
"1506 400 LINE",
"1506 648 OFFCURVE",
"1375 854 OFFCURVE",
"1156 854 CURVE SMOOTH"
);
},
{
closed = 1;
nodes = (
"1321 787 OFFCURVE",
"1415 632 OFFCURVE",
"1428 466 CURVE",
"817 466 LINE",
"826 623 OFFCURVE",
"939 787 OFFCURVE",
"1156 787 CURVE SMOOTH"
);
},
{
closed = 1;
nodes = (
"510 410 LINE SMOOTH",
"612 410 OFFCURVE",
"739 384 OFFCURVE",
"739 384 CURVE",
"739 326 OFFCURVE",
"760 224 OFFCURVE",
"790 164 CURVE",
"651 56 OFFCURVE",
"561 53 OFFCURVE",
"435 53 CURVE SMOOTH",
"273 53 OFFCURVE",
"220 148 OFFCURVE",
"220 230 CURVE SMOOTH",
"220 407 OFFCURVE",
"377 410 OFFCURVE",
"498 410 CURVE SMOOTH"
);
}
);
width = 1638;
},
{
layerId = "1F09728C-766D-4240-AE17-E499EF32E23D";
name = Regular;
paths = (
{
closed = 1;
nodes = (
"903 833 OFFCURVE",
"779 792 OFFCURVE",
"698 640 CURVE",
"657 771 OFFCURVE",
"537 827 OFFCURVE",
"419 827 CURVE SMOOTH",
"252 827 OFFCURVE",
"137 773 OFFCURVE",
"74 665 CURVE",
"214 626 LINE",
"253 681 OFFCURVE",
"315 709 OFFCURVE",
"399 709 CURVE SMOOTH",
"530 709 OFFCURVE",
"595 655 OFFCURVE",
"595 547 CURVE SMOOTH",
"595 450 LINE",
"527 463 OFFCURVE",
"463 470 OFFCURVE",
"402 470 CURVE SMOOTH",
"171 470 OFFCURVE",
"55 387 OFFCURVE",
"55 221 CURVE SMOOTH",
"56 79 OFFCURVE",
"182 -16 OFFCURVE",
"332 -16 CURVE SMOOTH",
"337 -16 LINE SMOOTH",
"443 -16 OFFCURVE",
"560 24 OFFCURVE",
"687 103 CURVE",
"767 19 OFFCURVE",
"872 -23 OFFCURVE",
"1001 -23 CURVE SMOOTH",
"1168 -23 OFFCURVE",
"1287 38 OFFCURVE",
"1360 161 CURVE",
"1232 217 LINE",
"1177 140 OFFCURVE",
"1101 101 OFFCURVE",
"1004 101 CURVE SMOOTH",
"998 101 LINE SMOOTH",
"848 101 OFFCURVE",
"777 213 OFFCURVE",
"759 365 CURVE",
"1360 365 LINE",
"1360 642 OFFCURVE",
"1221 833 OFFCURVE",
"1007 833 CURVE SMOOTH"
);
},
{
closed = 1;
nodes = (
"1133 713 OFFCURVE",
"1197 603 OFFCURVE",
"1217 467 CURVE",
"763 467 LINE",
"780 601 OFFCURVE",
"860 713 OFFCURVE",
"998 713 CURVE SMOOTH"
);
},
{
closed = 1;
nodes = (
"475 368 OFFCURVE",
"547 357 OFFCURVE",
"601 356 CURVE",
"646 197 LINE",
"569 130 OFFCURVE",
"463 96 OFFCURVE",
"327 96 CURVE SMOOTH",
"256 96 OFFCURVE",
"196 149 OFFCURVE",
"196 221 CURVE SMOOTH",
"196 319 OFFCURVE",
"268 368 OFFCURVE",
"412 368 CURVE SMOOTH"
);
}
);
width = 1417;
},
{
layerId = "EFCDB4D9-E20B-4A8D-9DB5-150AD166B0AE";
name = Bold;
paths = (
{
closed = 1;
nodes = (
"958 866 OFFCURVE",
"850 822 OFFCURVE",
"768 715 CURVE",
"698 831 OFFCURVE",
"618 866 OFFCURVE",
"461 866 CURVE SMOOTH",
"305 866 OFFCURVE",
"183 826 OFFCURVE",
"103 748 CURVE",
"204 636 LINE",
"265 697 OFFCURVE",
"334 730 OFFCURVE",
"443 730 CURVE SMOOTH",
"547 730 OFFCURVE",
"626 681 OFFCURVE",
"626 571 CURVE SMOOTH",
"626 485 LINE",
"558 498 OFFCURVE",
"497 506 OFFCURVE",
"434 506 CURVE SMOOTH",
"222 506 OFFCURVE",
"63 432 OFFCURVE",
"63 233 CURVE SMOOTH",
"63 100 OFFCURVE",
"176 -19 OFFCURVE",
"353 -19 CURVE SMOOTH",
"509 -19 OFFCURVE",
"642 30 OFFCURVE",
"745 109 CURVE",
"824 29 OFFCURVE",
"939 -19 OFFCURVE",
"1081 -19 CURVE SMOOTH",
"1244 -19 OFFCURVE",
"1372 39 OFFCURVE",
"1443 137 CURVE",
"1335 241 LINE",
"1271 171 OFFCURVE",
"1176 132 OFFCURVE",
"1090 132 CURVE SMOOTH",
"925 132 OFFCURVE",
"843 238 OFFCURVE",
"833 383 CURVE",
"1479 383 LINE",
"1479 655 OFFCURVE",
"1343 866 OFFCURVE",
"1082 866 CURVE SMOOTH"
);
},
{
closed = 1;
nodes = (
"1197 721 OFFCURVE",
"1288 626 OFFCURVE",
"1288 501 CURVE",
"836 501 LINE",
"856 634 OFFCURVE",
"933 721 OFFCURVE",
"1071 721 CURVE SMOOTH"
);
},
{
closed = 1;
nodes = (
"511 385 OFFCURVE",
"575 372 OFFCURVE",
"626 368 CURVE",
"629 363 LINE",
"635 308 OFFCURVE",
"649 258 OFFCURVE",
"672 213 CURVE",
"602 163 OFFCURVE",
"501 111 OFFCURVE",
"395 111 CURVE SMOOTH",
"305 111 OFFCURVE",
"250 168 OFFCURVE",
"250 239 CURVE SMOOTH",
"250 356 OFFCURVE",
"343 385 OFFCURVE",
"446 385 CURVE SMOOTH"
);
}
);
width = 1542;
}
);
leftKerningGroup = a_Right;
unicode = 00E6;
userData = {
com.typemytype.robofont.layerData = {
b = {
anchors = (
);
components = (
);
contours = (
);
lib = {
};
name = ae;
unicodes = (
);
width = 1638;
};
};
};
},
{
glyphname = eth;
lastChange = "2013-12-18 01:17:42 -0800";
layers = (
{
layerId = "98C086B7-81AA-4491-8494-0C6A76849168";
name = Light;
paths = (
{
closed = 1;
nodes = (
"114 1301 LINE",
"183 1247 OFFCURVE",
"261 1191 OFFCURVE",
"323 1132 CURVE",
"84 1029 LINE",
"112 976 LINE",
"369 1088 LINE",
"515 959 OFFCURVE",
"622 825 OFFCURVE",
"691 690 CURVE",
"619 760 OFFCURVE",
"515 796 OFFCURVE",
"436 796 CURVE SMOOTH",
"230 796 OFFCURVE",
"53 632 OFFCURVE",
"53 421 CURVE SMOOTH",
"53 193 OFFCURVE",
"191 -23 OFFCURVE",
"452 -23 CURVE SMOOTH",
"662 -23 OFFCURVE",
"839 129 OFFCURVE",
"839 391 CURVE SMOOTH",
"839 523 OFFCURVE",
"780 786 OFFCURVE",
"430 1118 CURVE",
"693 1220 LINE",
"664 1270 LINE",
"385 1163 LINE",
"320 1226 OFFCURVE",
"244 1283 OFFCURVE",
"159 1351 CURVE"
);
},
{
closed = 1;
nodes = (
"607 735 OFFCURVE",
"768 622 OFFCURVE",
"768 394 CURVE SMOOTH",
"768 216 OFFCURVE",
"666 42 OFFCURVE",
"452 42 CURVE SMOOTH",
"235 42 OFFCURVE",
"129 224 OFFCURVE",
"129 404 CURVE SMOOTH",
"129 625 OFFCURVE",
"288 735 OFFCURVE",
"447 735 CURVE SMOOTH"
);
}
);
width = 920;
},
{
background = {
paths = (
{
closed = 1;
nodes = (
"114 1301 LINE",
"183 1247 OFFCURVE",
"261 1191 OFFCURVE",
"323 1132 CURVE",
"75 1040 LINE",
"103 987 LINE",
"369 1088 LINE",
"515 959 OFFCURVE",
"622 825 OFFCURVE",
"691 690 CURVE",
"619 760 OFFCURVE",
"515 796 OFFCURVE",
"436 796 CURVE SMOOTH",
"230 796 OFFCURVE",
"53 632 OFFCURVE",
"53 421 CURVE SMOOTH",
"53 193 OFFCURVE",
"191 -23 OFFCURVE",
"452 -23 CURVE SMOOTH",
"662 -23 OFFCURVE",
"839 129 OFFCURVE",
"839 391 CURVE SMOOTH",
"839 523 OFFCURVE",
"780 786 OFFCURVE",
"430 1118 CURVE",
"693 1220 LINE",
"664 1270 LINE",
"385 1163 LINE",
"320 1226 OFFCURVE",
"244 1283 OFFCURVE",
"159 1351 CURVE"
);
},
{
closed = 1;
nodes = (
"604 728 OFFCURVE",
"762 617 OFFCURVE",
"762 394 CURVE SMOOTH",
"762 219 OFFCURVE",
"662 49 OFFCURVE",
"452 49 CURVE SMOOTH",
"239 49 OFFCURVE",
"135 227 OFFCURVE",
"135 404 CURVE SMOOTH",
"135 620 OFFCURVE",
"291 728 OFFCURVE",
"447 728 CURVE SMOOTH"
);
}
);
};
layerId = "1F09728C-766D-4240-AE17-E499EF32E23D";
name = Regular;
paths = (
{
closed = 1;
nodes = (
"646 739 OFFCURVE",
"556 767 OFFCURVE",
"467 767 CURVE SMOOTH",
"288 767 OFFCURVE",
"91 639 OFFCURVE",
"91 381 CURVE SMOOTH",
"91 151 OFFCURVE",
"270 -22 OFFCURVE",
"499 -22 CURVE SMOOTH",
"729 -22 OFFCURVE",
"895 151 OFFCURVE",
"895 381 CURVE SMOOTH",
"895 682 OFFCURVE",
"692 999 OFFCURVE",
"203 1346 CURVE",
"116 1236 LINE",
"408 1039 OFFCURVE",
"565 887 OFFCURVE",
"701 678 CURVE"
);
},
{
closed = 1;
nodes = (
"646 648 OFFCURVE",
"756 522 OFFCURVE",
"756 365 CURVE SMOOTH",
"756 206 OFFCURVE",
"637 102 OFFCURVE",
"499 102 CURVE SMOOTH",
"355 102 OFFCURVE",
"238 221 OFFCURVE",
"238 381 CURVE SMOOTH",
"238 538 OFFCURVE",
"341 648 OFFCURVE",
"495 648 CURVE SMOOTH"
);
},
{
closed = 1;
nodes = (
"807 1141 LINE",
"760 1229 LINE",
"143 962 LINE",
"188 870 LINE"
);
}
);
width = 1006;
},
{
background = {
paths = (
{
closed = 1;
nodes = (
"661 717 OFFCURVE",
"574 744 OFFCURVE",
"488 744 CURVE SMOOTH",
"314 744 OFFCURVE",
"123 620 OFFCURVE",
"123 369 CURVE SMOOTH",
"123 146 OFFCURVE",
"296 -22 OFFCURVE",
"519 -22 CURVE SMOOTH",
"742 -22 OFFCURVE",
"903 146 OFFCURVE",
"903 369 CURVE SMOOTH",
"903 661 OFFCURVE",
"696 988 OFFCURVE",
"222 1393 CURVE",
"137 1286 LINE",
"430 1056 OFFCURVE",
"583 860 OFFCURVE",
"715 657 CURVE"
);
},
{
closed = 1;
nodes = (
"661 628 OFFCURVE",
"768 506 OFFCURVE",
"768 354 CURVE SMOOTH",
"768 199 OFFCURVE",
"653 98 OFFCURVE",
"519 98 CURVE SMOOTH",
"379 98 OFFCURVE",
"265 214 OFFCURVE",
"265 369 CURVE SMOOTH",
"265 522 OFFCURVE",
"365 628 OFFCURVE",
"515 628 CURVE SMOOTH"
);
},
{
closed = 1;
nodes = (
"759 1194 LINE",
"714 1280 LINE",
"115 1020 LINE",
"159 931 LINE"
);
}
);
};
layerId = "EFCDB4D9-E20B-4A8D-9DB5-150AD166B0AE";
name = Bold;
paths = (
{
closed = 1;
nodes = (
"705 725 OFFCURVE",
"636 780 OFFCURVE",
"490 780 CURVE SMOOTH",
"299 780 OFFCURVE",
"108 631 OFFCURVE",
"108 412 CURVE SMOOTH",
"108 164 OFFCURVE",
"259 -19 OFFCURVE",
"521 -19 CURVE SMOOTH",
"772 -19 OFFCURVE",
"942 167 OFFCURVE",
"942 402 CURVE",
"942 874 OFFCURVE",
"602 1125 OFFCURVE",
"274 1378 CURVE",
"178 1256 LINE",
"412 1086 OFFCURVE",
"625 895 OFFCURVE",
"706 726 CURVE"
);
},
{
closed = 1;
nodes = (
"648 639 OFFCURVE",
"761 552 OFFCURVE",
"761 397 CURVE SMOOTH",
"761 262 OFFCURVE",
"690 135 OFFCURVE",
"523 135 CURVE SMOOTH",
"384 135 OFFCURVE",
"294 254 OFFCURVE",
"294 401 CURVE SMOOTH",
"294 542 OFFCURVE",
"374 639 OFFCURVE",
"512 639 CURVE SMOOTH"
);
},
{
closed = 1;
nodes = (
"881 1146 LINE",
"824 1260 LINE",
"219 997 LINE",
"275 880 LINE SMOOTH"
);
}
);
width = 1022;
}
);
leftKerningGroup = o_Right;
unicode = 00F0;
userData = {
com.typemytype.robofont.layerData = {
b = {
anchors = (
);
components = (
);
contours = (
);
lib = {
};
name = eth;
unicodes = (
);
width = 920;
};
};
};
},
{
glyphname = oslash;
lastChange = "2013-12-18 03:38:33 -0800";
layers = (
{
components = (
{
name = o;
transform = "{1, 0, 0, 1, 0, 0}";
}
);
layerId = "98C086B7-81AA-4491-8494-0C6A76849168";
name = Light;
paths = (
{
closed = 1;
nodes = (
"828 976 LINE",
"179 -149 LINE",
"219 -173 LINE",
"869 952 LINE"
);
}
);
width = 1018;
},
{
components = (
{
name = o;
transform = "{1, 0, 0, 1, 0, 0}";
}
);
layerId = "1F09728C-766D-4240-AE17-E499EF32E23D";
name = Regular;
paths = (
{
closed = 1;
nodes = (
"723 928 LINE",
"206 -81 LINE",
"300 -124 LINE",
"817 885 LINE"
);
}
);
width = 1005;
},
{
components = (
{
name = o;
transform = "{1, 0, 0, 1, 0, 0}";
}
);
layerId = "EFCDB4D9-E20B-4A8D-9DB5-150AD166B0AE";
name = Bold;
paths = (
{
closed = 1;
nodes = (
"749 932 LINE",
"232 -77 LINE",
"326 -120 LINE",
"843 889 LINE"
);
}
);
width = 1064;
}
);
leftKerningGroup = o_Right;
rightKerningGroup = o_Left;
unicode = 00F8;
userData = {
com.typemytype.robofont.layerData = {
b = {
anchors = (
);
components = (
);
contours = (
);
lib = {
};
name = oslash;
unicodes = (
);
width = 1039;
};
};
};
},
{
glyphname = thorn;
lastChange = "2013-12-18 03:41:45 -0800";
layers = (
{
components = (
{
name = lc_bowl_right;
transform = "{1, 0, 0, 1, -44, 21}";
}
);
layerId = "98C086B7-81AA-4491-8494-0C6A76849168";
name = Light;
paths = (
{
closed = 1;
nodes = (
"254 1152 LINE",
"26 1152 LINE",
"26 1092 LINE",
"175 1092 LINE",
"175 -300 LINE",
"10 -300 LINE",
"10 -360 LINE",
"251 -360 LINE"
);
}
);
width = 1057.03;
},
{
components = (
{
name = lc_bowl_right;
transform = "{1, 0, 0, 1, -58, 21}";
}
);
layerId = "1F09728C-766D-4240-AE17-E499EF32E23D";
name = Regular;
paths = (
{
closed = 1;
nodes = (
"319 1153 LINE",
"25 1153 LINE",
"25 1037 LINE",
"168 1037 LINE",
"168 -179 LINE",
"24 -179 LINE",
"24 -303 LINE",
"318 -303 LINE"
);
}
);
width = 1014;
},
{
components = (
{
name = lc_bowl_right;
transform = "{1, 0, 0, 1, 31, 21}";
}
);
layerId = "EFCDB4D9-E20B-4A8D-9DB5-150AD166B0AE";
name = Bold;
paths = (
{
closed = 1;
nodes = (
"372 1152 LINE",
"27 1152 LINE",
"27 1012 LINE",
"174 1012 LINE",
"174 -186 LINE",
"31 -186 LINE",
"31 -330 LINE",
"372 -330 LINE"
);
}
);
width = 1158;
}
);
rightKerningGroup = o_Left;
unicode = 00FE;
userData = {
com.typemytype.robofont.layerData = {
b = {
anchors = (
);
components = (
);
contours = (
);
lib = {
};
name = thorn;
unicodes = (
);
width = 1083;
};
};
};
},
{
glyphname = dotlessi;
lastChange = "2013-12-17 22:07:32 -0800";
layers = (
{
anchors = (
{
name = ogonek;
position = "{314, 0}";
},
{
name = top;
position = "{306, 805}";
}
);
components = (
{
name = lc_xheight_stem;
transform = "{1, 0, 0, 1, 0, 0}";
}
);
layerId = "98C086B7-81AA-4491-8494-0C6A76849168";
name = Light;
width = 503;
},
{
anchors = (
{
name = top;
position = "{277, 805}";
}
);
layerId = "1F09728C-766D-4240-AE17-E499EF32E23D";
name = Regular;
paths = (
{
closed = 1;
nodes = (
"343 805 LINE",
"59 805 LINE",
"59 689 LINE",
"194 689 LINE",
"194 113 LINE",
"59 113 LINE",
"59 0 LINE",
"479 0 LINE",
"479 113 LINE",
"343 113 LINE"
);
}
);
width = 509;
},
{
anchors = (
{
name = ogonek;
position = "{423, 0}";
},
{
name = top;
position = "{355, 804}";
}
);
components = (
{
name = lc_xheight_stem;
transform = "{1, 0, 0, 1, 0, 0}";
}
);
layerId = "EFCDB4D9-E20B-4A8D-9DB5-150AD166B0AE";
name = Bold;
width = 741;
}
);
unicode = 0131;
userData = {
com.typemytype.robofont.layerData = {
b = {
anchors = (
);
components = (
);
contours = (
);
lib = {
};
name = dotlessi;
unicodes = (
);
width = 510;
};
};
};
},
{
glyphname = kgreenlandic;
lastChange = "2013-12-18 03:48:49 -0800";
layers = (
{
layerId = "98C086B7-81AA-4491-8494-0C6A76849168";
name = Light;
paths = (
{
closed = 1;
nodes = (
"349 804 LINE",
"84 804 LINE",
"84 744 LINE",
"270 744 LINE",
"270 60 LINE",
"84 60 LINE",
"84 0 LINE",
"533 0 LINE",
"533 60 LINE",
"349 60 LINE",
"349 399 LINE",
"779 60 LINE",
"656 60 LINE",
"656 0 LINE",
"1034 0 LINE",
"1034 60 LINE",
"883 60 LINE",
"434 416 LINE",
"845 744 LINE",
"1004 744 LINE",
"1004 804 LINE",
"619 804 LINE",
"619 744 LINE",
"743 744 LINE",
"349 422 LINE"
);
}
);
width = 1072;
},
{
layerId = "1F09728C-766D-4240-AE17-E499EF32E23D";
name = Regular;
paths = (
{
closed = 1;
nodes = (
"999 804 LINE",
"552 804 LINE",
"552 688 LINE",
"691 688 LINE",
"362 420 LINE",
"362 804 LINE",
"61 804 LINE",
"61 688 LINE",
"214 688 LINE",
"214 116 LINE",
"61 116 LINE",
"61 0 LINE",
"467 0 LINE",
"467 116 LINE",
"362 116 LINE",
"362 395 LINE",
"692 116 LINE",
"586 116 LINE",
"586 0 LINE",
"1007 0 LINE",
"1007 116 LINE",
"877 116 LINE",
"535 405 LINE",
"867 688 LINE",
"999 688 LINE"
);
}
);
width = 1059;
},
{
layerId = "EFCDB4D9-E20B-4A8D-9DB5-150AD166B0AE";
name = Bold;
paths = (
{
closed = 1;
nodes = (
"1087 804 LINE",
"601 804 LINE",
"601 664 LINE",
"734 664 LINE",
"427 409 LINE",
"427 804 LINE",
"80 804 LINE",
"80 664 LINE",
"232 664 LINE",
"232 141 LINE",
"81 141 LINE",
"81 0 LINE",
"537 0 LINE",
"537 141 LINE",
"427 141 LINE",
"427 388 LINE",
"741 141 LINE",
"654 141 LINE",
"654 0 LINE",
"1099 0 LINE",
"1099 141 LINE",
"963 141 LINE",
"635 400 LINE",
"950 664 LINE",
"1087 664 LINE"
);
}
);
width = 1149;
}
);
rightKerningGroup = k_Left;
unicode = 0138;
userData = {
com.typemytype.robofont.layerData = {
b = {
anchors = (
);
components = (
);
contours = (
);
lib = {
};
name = kgreenlandic;
unicodes = (
);
width = 1141;
};
};
};
},
{
glyphname = lslash;
lastChange = "2013-12-18 03:57:09 -0800";
layers = (
{
components = (
{
name = lc_ascender_stem;
transform = "{1, 0, 0, 1, 9, 0}";
}
);
layerId = "98C086B7-81AA-4491-8494-0C6A76849168";
name = Light;
paths = (
{
closed = 1;
nodes = (
"95 517 LINE",
"96 447 LINE",
"472 664 LINE",
"472 737 LINE"
);
}
);
width = 534;
},
{
components = (
{
name = lc_ascender_stem;
transform = "{1, 0, 0, 1, 9, 0}";
}
);
layerId = "1F09728C-766D-4240-AE17-E499EF32E23D";
name = Regular;
paths = (
{
closed = 1;
nodes = (
"73 544 LINE",
"73 415 LINE",
"539 627 LINE",
"539 763 LINE"
);
}
);
width = 605;
},
{
components = (
{
name = l;
transform = "{1, 0, 0, 1, -12, 0}";
}
);
layerId = "EFCDB4D9-E20B-4A8D-9DB5-150AD166B0AE";
name = Bold;
paths = (
{
closed = 1;
nodes = (
"618 773 LINE",
"113 523 LINE",
"113 364 LINE",
"618 607 LINE"
);
}
);
width = 709;
}
);
unicode = 0142;
userData = {
com.typemytype.robofont.layerData = {
b = {
anchors = (
);
components = (
);
contours = (
);
lib = {
};
name = lslash;
unicodes = (
);
width = 680;
};
};
};
},
{
glyphname = oe;
lastChange = "2013-12-18 04:00:07 -0800";
layers = (
{
layerId = "98C086B7-81AA-4491-8494-0C6A76849168";
name = Light;
paths = (
{
closed = 1;
nodes = (
"1090 826 OFFCURVE",
"962 724 OFFCURVE",
"904 584 CURVE",
"837 747 OFFCURVE",
"672 826 OFFCURVE",
"519 826 CURVE SMOOTH",
"298 826 OFFCURVE",
"90 677 OFFCURVE",
"90 403 CURVE SMOOTH",
"90 124 OFFCURVE",
"299 -22 OFFCURVE",
"519 -22 CURVE SMOOTH",
"672 -22 OFFCURVE",
"835 58 OFFCURVE",
"903 217 CURVE",
"969 72 OFFCURVE",
"1113 -22 OFFCURVE",
"1280 -22 CURVE SMOOTH",
"1398 -22 OFFCURVE",
"1525 26 OFFCURVE",
"1639 136 CURVE",
"1607 190 LINE",
"1520 94 OFFCURVE",
"1400 42 OFFCURVE",
"1283 42 CURVE SMOOTH",
"1113 42 OFFCURVE",
"959 156 OFFCURVE",
"944 380 CURVE",
"1647 380 LINE",
"1647 621 OFFCURVE",
"1520 826 OFFCURVE",
"1287 826 CURVE SMOOTH"
);
},
{
closed = 1;
nodes = (
"688 761 OFFCURVE",
"864 633 OFFCURVE",
"864 403 CURVE SMOOTH",
"864 164 OFFCURVE",
"688 43 OFFCURVE",
"519 43 CURVE SMOOTH",
"339 43 OFFCURVE",
"169 164 OFFCURVE",
"169 403 CURVE SMOOTH",
"169 633 OFFCURVE",
"339 761 OFFCURVE",
"519 761 CURVE SMOOTH"
);
},
{
closed = 1;
nodes = (
"1468 761 OFFCURVE",
"1558 601 OFFCURVE",
"1571 440 CURVE",
"946 440 LINE",
"955 592 OFFCURVE",
"1068 761 OFFCURVE",
"1287 761 CURVE SMOOTH"
);
}
);
width = 1749;
},
{
layerId = "1F09728C-766D-4240-AE17-E499EF32E23D";
name = Regular;
paths = (
{
closed = 1;
nodes = (
"1042 820 OFFCURVE",
"920 732 OFFCURVE",
"853 630 CURVE",
"786 736 OFFCURVE",
"670 820 OFFCURVE",
"503 820 CURVE SMOOTH",
"255 820 OFFCURVE",
"75 645 OFFCURVE",
"76 402 CURVE SMOOTH",
"76 159 OFFCURVE",
"254 -18 OFFCURVE",
"501 -18 CURVE SMOOTH",
"654 -18 OFFCURVE",
"771 45 OFFCURVE",
"852 172 CURVE",
"922 64 OFFCURVE",
"1040 -18 OFFCURVE",
"1212 -18 CURVE SMOOTH",
"1381 -18 OFFCURVE",
"1503 40 OFFCURVE",
"1579 157 CURVE",
"1477 233 LINE",
"1425 157 OFFCURVE",
"1318 107 OFFCURVE",
"1211 107 CURVE SMOOTH",
"1047 107 OFFCURVE",
"937 209 OFFCURVE",
"929 365 CURVE",
"1587 365 LINE",
"1586 627 OFFCURVE",
"1465 820 OFFCURVE",
"1201 820 CURVE SMOOTH"
);
},
{
closed = 1;
nodes = (
"665 694 OFFCURVE",
"769 566 OFFCURVE",
"769 401 CURVE SMOOTH",
"769 235 OFFCURVE",
"664 108 OFFCURVE",
"501 107 CURVE SMOOTH",
"339 108 OFFCURVE",
"235 236 OFFCURVE",
"235 401 CURVE SMOOTH",
"235 565 OFFCURVE",
"338 694 OFFCURVE",
"501 694 CURVE SMOOTH"
);
},
{
closed = 1;
nodes = (
"1356 694 OFFCURVE",
"1427 598 OFFCURVE",
"1443 467 CURVE",
"933 467 LINE",
"956 611 OFFCURVE",
"1054 694 OFFCURVE",
"1210 694 CURVE SMOOTH"
);
}
);
width = 1671;
},
{
layerId = "EFCDB4D9-E20B-4A8D-9DB5-150AD166B0AE";
name = Bold;
paths = (
{
closed = 1;
nodes = (
"1056 826 OFFCURVE",
"936 764 OFFCURVE",
"857 658 CURVE",
"781 764 OFFCURVE",
"664 826 OFFCURVE",
"522 826 CURVE SMOOTH",
"270 826 OFFCURVE",
"92 646 OFFCURVE",
"92 399 CURVE SMOOTH",
"92 157 OFFCURVE",
"263 -22 OFFCURVE",
"520 -22 CURVE SMOOTH",
"663 -22 OFFCURVE",
"779 40 OFFCURVE",
"854 138 CURVE",
"932 39 OFFCURVE",
"1053 -22 OFFCURVE",
"1206 -22 CURVE SMOOTH",
"1370 -22 OFFCURVE",
"1498 33 OFFCURVE",
"1569 126 CURVE",
"1466 225 LINE",
"1400 159 OFFCURVE",
"1304 122 OFFCURVE",
"1214 122 CURVE SMOOTH",
"1046 122 OFFCURVE",
"960 223 OFFCURVE",
"951 360 CURVE",
"1583 360 LINE",
"1583 619 OFFCURVE",
"1465 826 OFFCURVE",
"1197 826 CURVE SMOOTH"
);
},
{
closed = 1;
nodes = (
"1328 682 OFFCURVE",
"1385 594 OFFCURVE",
"1402 473 CURVE",
"954 473 LINE",
"975 599 OFFCURVE",
"1053 682 OFFCURVE",
"1196 682 CURVE SMOOTH"
);
},
{
closed = 1;
nodes = (
"666 673 OFFCURVE",
"755 560 OFFCURVE",
"755 399 CURVE SMOOTH",
"755 238 OFFCURVE",
"665 126 OFFCURVE",
"521 126 CURVE SMOOTH",
"376 126 OFFCURVE",
"287 238 OFFCURVE",
"287 399 CURVE SMOOTH",
"287 560 OFFCURVE",
"374 673 OFFCURVE",
"520 673 CURVE SMOOTH"
);
}
);
width = 1695;
}
);
leftKerningGroup = o_Right;
unicode = 0153;
userData = {
com.typemytype.robofont.layerData = {
b = {
anchors = (
);
components = (
);
contours = (
);
lib = {
};
name = oe;
unicodes = (
);
width = 1887;
};
};
};
},
{
glyphname = uni0237;
lastChange = "2013-12-17 22:09:39 -0800";
layers = (
{
anchors = (
{
name = top;
position = "{235, 805}";
}
);
layerId = "98C086B7-81AA-4491-8494-0C6A76849168";
name = Light;
paths = (
{
closed = 1;
nodes = (
"310 805 LINE",
"66 805 LINE",
"66 750 LINE",
"234 750 LINE",
"234 -30 LINE SMOOTH",
"234 -141 OFFCURVE",
"234 -200 OFFCURVE",
"103 -200 CURVE SMOOTH",
"28 -200 LINE",
"28 -258 LINE",
"105 -258 LINE SMOOTH",
"310 -258 OFFCURVE",
"310 -135 OFFCURVE",
"310 -19 CURVE SMOOTH"
);
}
);
width = 444;
},
{
anchors = (
{
name = top;
position = "{253, 805}";
}
);
layerId = "1F09728C-766D-4240-AE17-E499EF32E23D";
name = Regular;
paths = (
{
closed = 1;
nodes = (
"414 805 LINE",
"72 805 LINE",
"72 689 LINE",
"266 689 LINE",
"266 -8 LINE SMOOTH",
"266 -113 OFFCURVE",
"248 -179 OFFCURVE",
"147 -179 CURVE SMOOTH",
"40 -179 LINE",
"40 -303 LINE",
"131 -303 LINE SMOOTH",
"352 -303 OFFCURVE",
"414 -221 OFFCURVE",
"414 19 CURVE SMOOTH"
);
}
);
width = 559;
},
{
anchors = (
{
name = top;
position = "{352, 804}";
}
);
layerId = "EFCDB4D9-E20B-4A8D-9DB5-150AD166B0AE";
name = Bold;
paths = (
{
closed = 1;
nodes = (
"457 804 LINE",
"92 804 LINE",
"92 664 LINE",
"259 664 LINE",
"259 -13 LINE SMOOTH",
"259 -134 OFFCURVE",
"230 -186 OFFCURVE",
"126 -186 CURVE SMOOTH",
"30 -186 LINE",
"30 -342 LINE",
"126 -342 LINE SMOOTH",
"430 -342 OFFCURVE",
"457 -184 OFFCURVE",
"457 47 CURVE SMOOTH"
);
}
);
width = 594;
}
);
unicode = 0237;
userData = {
com.typemytype.robofont.layerData = {
b = {
anchors = (
);
components = (
);
contours = (
);
lib = {
};
name = uni0237;
unicodes = (
);
width = 333;
};
};
};
},
{
glyphname = pi;
lastChange = "2013-12-18 04:19:11 -0800";
layers = (
{
background = {
paths = (
{
closed = 1;
nodes = (
"1001 804 LINE",
"309 804 LINE SMOOTH",
"188 804 OFFCURVE",
"152 734 OFFCURVE",
"152 624 CURVE",
"195 624 LINE",
"204 682 OFFCURVE",
"234 754 OFFCURVE",
"295 754 CURVE SMOOTH",
"381 754 LINE",
"321 160 OFFCURVE",
"309 87 OFFCURVE",
"120 60 CURVE",
"120 0 LINE",
"358 31 OFFCURVE",
"392 67 OFFCURVE",
"429 754 CURVE",
"763 754 LINE",
"728 519 OFFCURVE",
"695 344 OFFCURVE",
"695 222 CURVE SMOOTH",
"695 78 OFFCURVE",
"740 7 OFFCURVE",
"863 -3 CURVE SMOOTH",
"902 -6 OFFCURVE",
"944 9 OFFCURVE",
"979 30 CURVE",
"979 75 LINE",
"955 66 OFFCURVE",
"929 61 OFFCURVE",
"905 61 CURVE SMOOTH",
"803 61 OFFCURVE",
"772 137 OFFCURVE",
"772 281 CURVE SMOOTH",
"772 397 OFFCURVE",
"792 556 OFFCURVE",
"810 754 CURVE",
"1001 754 LINE"
);
}
);
};
layerId = "98C086B7-81AA-4491-8494-0C6A76849168";
name = Light;
paths = (
{
closed = 1;
nodes = (
"931 836 LINE",
"250 836 LINE SMOOTH",
"151 836 OFFCURVE",
"136 796 OFFCURVE",
"136 709 CURVE",
"173 709 LINE",
"177 764 OFFCURVE",
"197 806 OFFCURVE",
"249 806 CURVE SMOOTH",
"298 806 LINE",
"255 330 LINE SMOOTH",
"238 144 OFFCURVE",
"253 53 OFFCURVE",
"130 53 CURVE",
"130 -4 LINE",
"270 -4 OFFCURVE",
"324 78 OFFCURVE",
"340 308 CURVE SMOOTH",
"375 806 LINE",
"737 806 LINE",
"736 179 LINE SMOOTH",
"736 70 OFFCURVE",
"771 -13 OFFCURVE",
"855 -13 CURVE SMOOTH",
"882 -13 OFFCURVE",
"913 -6 OFFCURVE",
"951 13 CURVE",
"951 58 LINE",
"929 52 OFFCURVE",
"911 49 OFFCURVE",
"895 49 CURVE SMOOTH",
"845 49 OFFCURVE",
"823 82 OFFCURVE",
"823 168 CURVE SMOOTH",
"823 806 LINE",
"931 806 LINE"
);
}
);
width = 1065;
},
{
layerId = "1F09728C-766D-4240-AE17-E499EF32E23D";
name = Regular;
paths = (
{
closed = 1;
nodes = (
"1025 804 LINE",
"347 804 LINE SMOOTH",
"166 804 OFFCURVE",
"110 728 OFFCURVE",
"110 563 CURVE",
"183 563 LINE",
"192 621 OFFCURVE",
"222 663 OFFCURVE",
"283 663 CURVE SMOOTH",
"356 663 LINE",
"308 293 LINE SMOOTH",
"287 128 OFFCURVE",
"186 82 OFFCURVE",
"119 82 CURVE",
"119 0 LINE",
"225 0 LINE SMOOTH",
"383 0 OFFCURVE",
"436 77 OFFCURVE",
"444 244 CURVE SMOOTH",
"464 663 LINE",
"729 663 LINE",
"702 504 OFFCURVE",
"676 281 OFFCURVE",
"676 174 CURVE SMOOTH",
"676 37 OFFCURVE",
"745 -13 OFFCURVE",
"859 -13 CURVE SMOOTH",
"918 -13 OFFCURVE",
"968 5 OFFCURVE",
"994 30 CURVE",
"994 128 LINE",
"973 120 OFFCURVE",
"943 112 OFFCURVE",
"912 112 CURVE SMOOTH",
"864 112 OFFCURVE",
"827 141 OFFCURVE",
"827 226 CURVE SMOOTH",
"827 308 OFFCURVE",
"832 512 OFFCURVE",
"845 663 CURVE",
"1025 663 LINE"
);
}
);
width = 1121;
},
{
layerId = "EFCDB4D9-E20B-4A8D-9DB5-150AD166B0AE";
name = Bold;
paths = (
{
closed = 1;
nodes = (
"1076 804 LINE",
"386 804 LINE SMOOTH",
"205 804 OFFCURVE",
"129 665 OFFCURVE",
"129 500 CURVE",
"222 500 LINE",
"231 558 OFFCURVE",
"261 600 OFFCURVE",
"322 600 CURVE SMOOTH",
"395 600 LINE",
"347 293 LINE SMOOTH",
"321 128 OFFCURVE",
"225 82 OFFCURVE",
"158 82 CURVE",
"158 0 LINE",
"264 0 LINE SMOOTH",
"422 0 OFFCURVE",
"504 77 OFFCURVE",
"513 244 CURVE SMOOTH",
"533 600 LINE",
"757 600 LINE",
"713 450 OFFCURVE",
"672 307 OFFCURVE",
"672 195 CURVE SMOOTH",
"672 67 OFFCURVE",
"727 -18 OFFCURVE",
"897 -18 CURVE SMOOTH",
"955 -18 OFFCURVE",
"1016 -1 OFFCURVE",
"1065 30 CURVE",
"1065 128 LINE",
"1029 118 OFFCURVE",
"993 111 OFFCURVE",
"962 111 CURVE SMOOTH",
"896 111 OFFCURVE",
"848 141 OFFCURVE",
"848 226 CURVE SMOOTH",
"848 308 OFFCURVE",
"853 449 OFFCURVE",
"866 600 CURVE",
"1076 600 LINE"
);
}
);
width = 1187;
}
);
unicode = 03C0;
userData = {
com.typemytype.robofont.layerData = {
b = {
anchors = (
);
components = (
);
contours = (
);
lib = {
};
name = pi;
unicodes = (
);
width = 1065;
};
};
};
},
{
glyphname = uni0307;
lastChange = "2013-12-17 22:01:01 -0800";
layers = (
{
anchors = (
{
name = _top;
position = "{62, 805}";
}
);
layerId = "98C086B7-81AA-4491-8494-0C6A76849168";
name = Light;
paths = (
{
closed = 1;
nodes = (
"60 1152 LINE SMOOTH",
"17 1152 OFFCURVE",
"-5 1122 OFFCURVE",
"-5 1091 CURVE SMOOTH",
"-5 1062 OFFCURVE",
"17 1030 OFFCURVE",
"60 1030 CURVE SMOOTH",
"63 1030 LINE SMOOTH",
"107 1030 OFFCURVE",
"129 1062 OFFCURVE",
"129 1091 CURVE SMOOTH",
"129 1122 OFFCURVE",
"107 1152 OFFCURVE",
"63 1152 CURVE SMOOTH"
);
}
);
width = 397;
},
{
anchors = (
{
name = _top;
position = "{270, 805}";
}
);
layerId = "1F09728C-766D-4240-AE17-E499EF32E23D";
name = Regular;
paths = (
{
closed = 1;
nodes = (
"219 1125 OFFCURVE",
"176 1088 OFFCURVE",
"177 1038 CURVE SMOOTH",
"177 990 OFFCURVE",
"220 950 OFFCURVE",
"268 950 CURVE SMOOTH",
"325 950 OFFCURVE",
"360 992 OFFCURVE",
"359 1038 CURVE",
"359 1093 OFFCURVE",
"317 1125 OFFCURVE",
"268 1125 CURVE SMOOTH"
);
}
);
width = 535;
},
{
anchors = (
{
name = _top;
position = "{270, 805}";
}
);
layerId = "EFCDB4D9-E20B-4A8D-9DB5-150AD166B0AE";
name = Bold;
paths = (
{
closed = 1;
nodes = (
"206 1148 OFFCURVE",
"152 1101 OFFCURVE",
"153 1038 CURVE SMOOTH",
"153 977 OFFCURVE",
"207 927 OFFCURVE",
"268 927 CURVE SMOOTH",
"340 927 OFFCURVE",
"384 980 OFFCURVE",
"383 1038 CURVE",
"383 1108 OFFCURVE",
"330 1148 OFFCURVE",
"268 1148 CURVE SMOOTH"
);
}
);
width = 535;
}
);
unicode = 0307;
userData = {
com.typemytype.robofont.layerData = {
b = {
anchors = (
);
components = (
);
contours = (
);
lib = {
};
name = uni0307;
unicodes = (
);
width = 397;
};
};
};
},
{
glyphname = uni030F;
lastChange = "2013-12-17 23:59:17 -0800";
layers = (
{
anchors = (
{
name = _top;
position = "{406, 804}";
}
);
layerId = "98C086B7-81AA-4491-8494-0C6A76849168";
name = Light;
paths = (
{
closed = 1;
nodes = (
"229 1152 LINE",
"103 1152 LINE",
"257 903 LINE",
"288 903 LINE"
);
},
{
closed = 1;
nodes = (
"439 1152 LINE",
"313 1152 LINE",
"467 903 LINE",
"498 903 LINE"
);
}
);
width = 627;
},
{
anchors = (
{
name = _top;
position = "{349, 805}";
}
);
layerId = "1F09728C-766D-4240-AE17-E499EF32E23D";
name = Regular;
paths = (
{
closed = 1;
nodes = (
"187 1171 LINE",
"-3 1171 LINE",
"181 899 LINE",
"277 899 LINE"
);
},
{
closed = 1;
nodes = (
"448 1171 LINE",
"258 1171 LINE",
"443 899 LINE",
"538 899 LINE"
);
}
);
width = 587;
},
{
anchors = (
{
name = _top;
position = "{409, 849}";
}
);
layerId = "EFCDB4D9-E20B-4A8D-9DB5-150AD166B0AE";
name = Bold;
paths = (
{
closed = 1;
nodes = (
"252 1266 LINE",
"0 1266 LINE",
"214 955 LINE",
"373 955 LINE"
);
},
{
closed = 1;
nodes = (
"572 1266 LINE",
"320 1266 LINE",
"535 955 LINE",
"693 955 LINE"
);
}
);
width = 677;
}
);
unicode = 030F;
userData = {
com.typemytype.robofont.layerData = {
b = {
anchors = (
);
components = (
);
contours = (
);
lib = {
};
name = uni030F;
unicodes = (
);
width = 627;
};
};
};
},
{
glyphname = uni0311;
lastChange = "2013-12-17 22:01:01 -0800";
layers = (
{
anchors = (
{
name = _top;
position = "{434, 805}";
}
);
layerId = "98C086B7-81AA-4491-8494-0C6A76849168";
name = Light;
paths = (
{
closed = 1;
nodes = (
"350 1086 OFFCURVE",
"268 1036 OFFCURVE",
"251 936 CURVE",
"318 936 LINE",
"332 996 OFFCURVE",
"382 1026 OFFCURVE",
"431 1026 CURVE SMOOTH",
"480 1026 OFFCURVE",
"528 997 OFFCURVE",
"542 936 CURVE",
"608 936 LINE",
"594 1036 OFFCURVE",
"513 1086 OFFCURVE",
"431 1086 CURVE SMOOTH"
);
}
);
width = 854;
},
{
anchors = (
{
name = _top;
position = "{299, 805}";
}
);
layerId = "1F09728C-766D-4240-AE17-E499EF32E23D";
name = Regular;
paths = (
{
closed = 1;
nodes = (
"153 1152 OFFCURVE",
"45 1069 OFFCURVE",
"34 940 CURVE",
"144 940 LINE",
"158 1019 OFFCURVE",
"207 1058 OFFCURVE",
"292 1058 CURVE SMOOTH",
"374 1058 OFFCURVE",
"429 1014 OFFCURVE",
"439 940 CURVE",
"550 940 LINE",
"537 1068 OFFCURVE",
"432 1152 OFFCURVE",
"292 1153 CURVE SMOOTH"
);
}
);
width = 584;
},
{
anchors = (
{
name = _top;
position = "{287, 849}";
}
);
layerId = "EFCDB4D9-E20B-4A8D-9DB5-150AD166B0AE";
name = Bold;
paths = (
{
closed = 1;
nodes = (
"128 1219 OFFCURVE",
"13 1115 OFFCURVE",
"1 960 CURVE",
"160 960 LINE",
"172 1030 OFFCURVE",
"214 1069 OFFCURVE",
"284 1069 CURVE SMOOTH",
"350 1069 OFFCURVE",
"397 1030 OFFCURVE",
"406 960 CURVE",
"569 960 LINE",
"554 1114 OFFCURVE",
"443 1219 OFFCURVE",
"284 1219 CURVE SMOOTH"
);
}
);
width = 584;
}
);
unicode = 0311;
userData = {
com.typemytype.robofont.layerData = {
b = {
anchors = (
);
components = (
);
contours = (
);
lib = {
};
name = uni0311;
unicodes = (
);
width = 854;
};
};
};
},
{
glyphname = uni0326;
lastChange = "2013-12-18 04:20:40 -0800";
layers = (
{
anchors = (
{
name = _bot;
position = "{268, 0}";
}
);
layerId = "98C086B7-81AA-4491-8494-0C6A76849168";
name = Light;
paths = (
{
closed = 1;
nodes = (
"317 -131 LINE",
"191 -131 LINE",
"191 -251 LINE",
"253 -251 LINE",
"253 -335 OFFCURVE",
"248 -361 OFFCURVE",
"182 -383 CURVE",
"182 -427 LINE",
"283 -427 OFFCURVE",
"317 -351 OFFCURVE",
"317 -253 CURVE SMOOTH"
);
}
);
width = 457;
},
{
anchors = (
{
name = _bot;
position = "{268, 0}";
}
);
layerId = "1F09728C-766D-4240-AE17-E499EF32E23D";
name = Regular;
paths = (
{
closed = 1;
nodes = (
"348 -129 LINE",
"166 -129 LINE",
"166 -311 LINE",
"257 -311 LINE",
"257 -393 OFFCURVE",
"233 -426 OFFCURVE",
"166 -439 CURVE",
"166 -515 LINE",
"293 -512 OFFCURVE",
"347 -448 OFFCURVE",
"348 -311 CURVE SMOOTH"
);
}
);
width = 554;
},
{
anchors = (
{
name = _bot;
position = "{255, 0}";
}
);
layerId = "EFCDB4D9-E20B-4A8D-9DB5-150AD166B0AE";
name = Bold;
paths = (
{
closed = 1;
nodes = (
"134 -130 LINE",
"134 -371 LINE",
"262 -371 LINE",
"262 -481 OFFCURVE",
"226 -522 OFFCURVE",
"130 -541 CURVE",
"130 -643 LINE",
"326 -641 OFFCURVE",
"387 -543 OFFCURVE",
"387 -351 CURVE",
"380 -130 LINE"
);
}
);
width = 496;
}
);
unicode = 0326;
userData = {
com.typemytype.robofont.layerData = {
b = {
anchors = (
);
components = (
);
contours = (
);
lib = {
};
name = uni0326;
unicodes = (
);
width = 457;
};
};
};
},
{
glyphname = zero;
lastChange = "2013-12-17 22:01:01 -0800";
layers = (
{
layerId = "98C086B7-81AA-4491-8494-0C6A76849168";
name = Light;
paths = (
{
closed = 1;
nodes = (
"236 1172 OFFCURVE",
"114 909 OFFCURVE",
"114 574 CURVE SMOOTH",
"114 233 OFFCURVE",
"236 -23 OFFCURVE",
"533 -23 CURVE SMOOTH",
"830 -23 OFFCURVE",
"952 233 OFFCURVE",
"952 574 CURVE SMOOTH",
"952 909 OFFCURVE",
"830 1172 OFFCURVE",
"533 1172 CURVE SMOOTH"
);
},
{
closed = 1;
nodes = (
"776 1104 OFFCURVE",
"873 904 OFFCURVE",
"873 574 CURVE SMOOTH",
"873 216 OFFCURVE",
"769 43 OFFCURVE",
"533 43 CURVE SMOOTH",
"297 43 OFFCURVE",
"193 216 OFFCURVE",
"193 574 CURVE SMOOTH",
"193 904 OFFCURVE",
"290 1104 OFFCURVE",
"533 1104 CURVE SMOOTH"
);
}
);
width = 1066;
},
{
layerId = "1F09728C-766D-4240-AE17-E499EF32E23D";
name = Regular;
paths = (
{
closed = 1;
nodes = (
"195 1171 OFFCURVE",
"87 923 OFFCURVE",
"87 577 CURVE SMOOTH",
"87 252 OFFCURVE",
"197 -18 OFFCURVE",
"502 -18 CURVE SMOOTH",
"808 -18 OFFCURVE",
"916 230 OFFCURVE",
"917 577 CURVE SMOOTH",
"917 902 OFFCURVE",
"807 1171 OFFCURVE",
"502 1171 CURVE SMOOTH"
);
},
{
closed = 1;
nodes = (
"723 1051 OFFCURVE",
"764 835 OFFCURVE",
"764 575 CURVE SMOOTH",
"764 312 OFFCURVE",
"725 101 OFFCURVE",
"498 101 CURVE SMOOTH",
"288 105 OFFCURVE",
"241 290 OFFCURVE",
"241 576 CURVE SMOOTH",
"241 832 OFFCURVE",
"298 1051 OFFCURVE",
"501 1051 CURVE SMOOTH"
);
}
);
width = 1006;
},
{
layerId = "EFCDB4D9-E20B-4A8D-9DB5-150AD166B0AE";
name = Bold;
paths = (
{
closed = 1;
nodes = (
"259 1174 OFFCURVE",
"118 932 OFFCURVE",
"118 557 CURVE SMOOTH",
"118 179 OFFCURVE",
"259 -22 OFFCURVE",
"549 -22 CURVE SMOOTH",
"840 -22 OFFCURVE",
"982 178 OFFCURVE",
"982 557 CURVE SMOOTH",
"982 934 OFFCURVE",
"840 1174 OFFCURVE",
"549 1174 CURVE SMOOTH"
);
},
{
closed = 1;
nodes = (
"702 1033 OFFCURVE",
"782 870 OFFCURVE",
"782 557 CURVE SMOOTH",
"782 270 OFFCURVE",
"702 120 OFFCURVE",
"549 120 CURVE SMOOTH",
"397 120 OFFCURVE",
"318 269 OFFCURVE",
"318 556 CURVE SMOOTH",
"318 869 OFFCURVE",
"397 1033 OFFCURVE",
"549 1033 CURVE SMOOTH"
);
}
);
width = 1100;
}
);
unicode = 0030;
userData = {
com.typemytype.robofont.layerData = {
b = {
anchors = (
);
components = (
);
contours = (
);
lib = {
};
name = zero;
unicodes = (
);
width = 1065.9;
};
};
};
},
{
glyphname = one;
lastChange = "2013-12-17 22:01:01 -0800";
layers = (
{
layerId = "98C086B7-81AA-4491-8494-0C6A76849168";
name = Light;
paths = (
{
closed = 1;
nodes = (
"291 1154 LINE",
"53 1109 LINE",
"69 1045 LINE",
"215 1072 LINE",
"215 58 LINE",
"50 58 LINE",
"50 0 LINE",
"449 0 LINE",
"449 58 LINE",
"291 58 LINE"
);
}
);
width = 476;
},
{
layerId = "1F09728C-766D-4240-AE17-E499EF32E23D";
name = Regular;
paths = (
{
closed = 1;
nodes = (
"631 1153 LINE",
"308 1153 LINE",
"308 1037 LINE",
"482 1037 LINE",
"482 116 LINE",
"316 116 LINE",
"316 0 LINE",
"785 0 LINE",
"785 116 LINE",
"631 116 LINE"
);
}
);
width = 1006;
},
{
layerId = "EFCDB4D9-E20B-4A8D-9DB5-150AD166B0AE";
name = Bold;
paths = (
{
closed = 1;
nodes = (
"491 1152 LINE",
"110 1152 LINE",
"110 1012 LINE",
"295 1012 LINE",
"295 141 LINE",
"122 141 LINE",
"122 0 LINE",
"654 0 LINE",
"654 141 LINE",
"491 141 LINE"
);
}
);
width = 722;
}
);
unicode = 0031;
userData = {
com.typemytype.robofont.layerData = {
b = {
anchors = (
);
components = (
);
contours = (
);
lib = {
};
name = one;
unicodes = (
);
width = 475.915;
};
};
};
},
{
glyphname = two;
lastChange = "2013-12-17 22:01:01 -0800";
layers = (
{
layerId = "98C086B7-81AA-4491-8494-0C6A76849168";
name = Light;
paths = (
{
closed = 1;
nodes = (
"272 1173 OFFCURVE",
"119 1048 OFFCURVE",
"119 835 CURVE SMOOTH",
"119 798 OFFCURVE",
"122 763 OFFCURVE",
"130 727 CURVE",
"209 727 LINE",
"200 763 OFFCURVE",
"194 800 OFFCURVE",
"194 837 CURVE SMOOTH",
"194 1004 OFFCURVE",
"313 1106 OFFCURVE",
"477 1106 CURVE SMOOTH",
"640 1106 OFFCURVE",
"752 1014 OFFCURVE",
"752 851 CURVE SMOOTH",
"752 713 OFFCURVE",
"670 615 OFFCURVE",
"539 490 CURVE SMOOTH",
"109 75 LINE",
"109 0 LINE",
"830 0 LINE",
"830 273 LINE",
"754 273 LINE",
"754 73 LINE",
"212 73 LINE",
"592 437 LINE SMOOTH",
"731 571 OFFCURVE",
"829 690 OFFCURVE",
"829 851 CURVE SMOOTH",
"829 1055 OFFCURVE",
"680 1173 OFFCURVE",
"479 1173 CURVE SMOOTH"
);
}
);
width = 898;
},
{
background = {
paths = (
{
closed = 1;
nodes = (
"109 0 LINE",
"830 0 LINE",
"830 73 LINE",
"212 73 LINE",
"592 437 LINE SMOOTH",
"731 571 OFFCURVE",
"829 690 OFFCURVE",
"829 851 CURVE SMOOTH",
"829 1055 OFFCURVE",
"690 1173 OFFCURVE",
"489 1173 CURVE SMOOTH",
"282 1173 OFFCURVE",
"134 1048 OFFCURVE",
"134 835 CURVE SMOOTH",
"134 798 OFFCURVE",
"137 763 OFFCURVE",
"145 727 CURVE",
"224 727 LINE",
"215 763 OFFCURVE",
"209 800 OFFCURVE",
"209 837 CURVE SMOOTH",
"209 1004 OFFCURVE",
"323 1106 OFFCURVE",
"487 1106 CURVE SMOOTH",
"650 1106 OFFCURVE",
"752 1014 OFFCURVE",
"752 851 CURVE SMOOTH",
"752 713 OFFCURVE",
"670 615 OFFCURVE",
"539 490 CURVE SMOOTH",
"109 75 LINE"
);
}
);
};
layerId = "1F09728C-766D-4240-AE17-E499EF32E23D";
name = Regular;
paths = (
{
closed = 1;
nodes = (
"225 1170 OFFCURVE",
"106 1026 OFFCURVE",
"106 832 CURVE SMOOTH",
"106 789 OFFCURVE",
"111 743 OFFCURVE",
"123 695 CURVE",
"263 695 LINE",
"253 737 OFFCURVE",
"248 776 OFFCURVE",
"248 812 CURVE SMOOTH",
"248 956 OFFCURVE",
"331 1041 OFFCURVE",
"500 1041 CURVE SMOOTH",
"642 1041 OFFCURVE",
"722 967 OFFCURVE",
"722 848 CURVE SMOOTH",
"722 768 OFFCURVE",
"681 692 OFFCURVE",
"575 586 CURVE SMOOTH",
"109 116 LINE",
"110 0 LINE",
"875 0 LINE",
"875 348 LINE",
"748 348 LINE",
"748 116 LINE",
"308 116 LINE",
"667 477 LINE SMOOTH",
"824 634 OFFCURVE",
"875 739 OFFCURVE",
"875 843 CURVE SMOOTH",
"875 1043 OFFCURVE",
"739 1170 OFFCURVE",
"500 1170 CURVE SMOOTH"
);
}
);
width = 1006;
},
{
background = {
paths = (
{
closed = 1;
nodes = (
"123 695 LINE",
"111 743 OFFCURVE",
"106 789 OFFCURVE",
"106 832 CURVE SMOOTH",
"106 1026 OFFCURVE",
"225 1170 OFFCURVE",
"500 1170 CURVE SMOOTH",
"739 1170 OFFCURVE",
"875 1043 OFFCURVE",
"875 843 CURVE SMOOTH",
"875 739 OFFCURVE",
"824 634 OFFCURVE",
"667 477 CURVE SMOOTH",
"308 116 LINE",
"748 116 LINE",
"748 348 LINE",
"875 348 LINE",
"875 0 LINE",
"110 0 LINE",
"109 116 LINE",
"575 586 LINE SMOOTH",
"681 692 OFFCURVE",
"722 768 OFFCURVE",
"722 848 CURVE SMOOTH",
"722 967 OFFCURVE",
"642 1041 OFFCURVE",
"500 1041 CURVE SMOOTH",
"331 1041 OFFCURVE",
"248 956 OFFCURVE",
"248 812 CURVE SMOOTH",
"248 776 OFFCURVE",
"253 737 OFFCURVE",
"263 695 CURVE"
);
}
);
};
layerId = "EFCDB4D9-E20B-4A8D-9DB5-150AD166B0AE";
name = Bold;
paths = (
{
closed = 1;
nodes = (
"257 1174 OFFCURVE",
"98 1023 OFFCURVE",
"98 817 CURVE SMOOTH",
"98 771 OFFCURVE",
"106 723 OFFCURVE",
"122 673 CURVE",
"295 673 LINE",
"284 716 OFFCURVE",
"279 756 OFFCURVE",
"279 792 CURVE SMOOTH",
"279 940 OFFCURVE",
"366 1025 OFFCURVE",
"523 1025 CURVE SMOOTH",
"672 1025 OFFCURVE",
"715 931 OFFCURVE",
"720 830 CURVE SMOOTH",
"725 729 OFFCURVE",
"594 610 OFFCURVE",
"484 503 CURVE SMOOTH",
"117 146 LINE",
"117 0 LINE",
"939 0 LINE",
"937 363 LINE",
"785 363 LINE",
"784 141 LINE",
"346 141 LINE",
"609 389 LINE SMOOTH",
"742 514 OFFCURVE",
"908 662 OFFCURVE",
"908 832 CURVE SMOOTH",
"908 1040 OFFCURVE",
"773 1174 OFFCURVE",
"521 1174 CURVE SMOOTH"
);
}
);
width = 1033;
}
);
unicode = 0032;
userData = {
com.typemytype.robofont.layerData = {
b = {
anchors = (
);
components = (
);
contours = (
);
lib = {
};
name = two;
unicodes = (
);
width = 897.6;
};
};
};
},
{
glyphname = three;
lastChange = "2013-12-17 22:01:01 -0800";
layers = (
{
layerId = "98C086B7-81AA-4491-8494-0C6A76849168";
name = Light;
paths = (
{
closed = 1;
nodes = (
"292 1172 OFFCURVE",
"146 1086 OFFCURVE",
"86 947 CURVE",
"152 918 LINE",
"211 1033 OFFCURVE",
"331 1105 OFFCURVE",
"462 1105 CURVE SMOOTH",
"648 1105 OFFCURVE",
"765 1013 OFFCURVE",
"765 867 CURVE SMOOTH",
"765 734 OFFCURVE",
"626 650 OFFCURVE",
"404 650 CURVE",
"404 576 LINE",
"639 576 OFFCURVE",
"786 479 OFFCURVE",
"786 324 CURVE SMOOTH",
"786 153 OFFCURVE",
"668 46 OFFCURVE",
"481 46 CURVE SMOOTH",
"339 46 OFFCURVE",
"211 120 OFFCURVE",
"151 239 CURVE",
"92 201 LINE",
"157 66 OFFCURVE",
"304 -20 OFFCURVE",
"473 -20 CURVE SMOOTH",
"714 -20 OFFCURVE",
"865 114 OFFCURVE",
"865 326 CURVE SMOOTH",
"865 478 OFFCURVE",
"759 588 OFFCURVE",
"591 609 CURVE",
"746 637 OFFCURVE",
"844 737 OFFCURVE",
"844 868 CURVE SMOOTH",
"844 1055 OFFCURVE",
"697 1172 OFFCURVE",
"464 1172 CURVE SMOOTH"
);
}
);
width = 976;
},
{
background = {
paths = (
{
closed = 1;
nodes = (
"194 918 LINE",
"253 1033 OFFCURVE",
"373 1105 OFFCURVE",
"504 1105 CURVE SMOOTH",
"690 1105 OFFCURVE",
"807 1013 OFFCURVE",
"807 867 CURVE SMOOTH",
"807 734 OFFCURVE",
"668 650 OFFCURVE",
"446 650 CURVE",
"446 576 LINE",
"681 576 OFFCURVE",
"828 479 OFFCURVE",
"828 324 CURVE SMOOTH",
"828 153 OFFCURVE",
"710 46 OFFCURVE",
"523 46 CURVE SMOOTH",
"381 46 OFFCURVE",
"253 120 OFFCURVE",
"193 239 CURVE",
"134 201 LINE",
"199 66 OFFCURVE",
"346 -19 OFFCURVE",
"515 -19 CURVE SMOOTH",
"756 -19 OFFCURVE",
"907 114 OFFCURVE",
"907 326 CURVE SMOOTH",
"907 478 OFFCURVE",
"801 588 OFFCURVE",
"633 609 CURVE",
"788 637 OFFCURVE",
"886 737 OFFCURVE",
"886 868 CURVE SMOOTH",
"886 1055 OFFCURVE",
"739 1173 OFFCURVE",
"506 1173 CURVE SMOOTH",
"334 1173 OFFCURVE",
"188 1086 OFFCURVE",
"128 947 CURVE"
);
}
);
};
layerId = "1F09728C-766D-4240-AE17-E499EF32E23D";
name = Regular;
paths = (
{
closed = 1;
nodes = (
"304 1170 OFFCURVE",
"184 1102 OFFCURVE",
"98 960 CURVE",
"221 891 LINE",
"290 1001 OFFCURVE",
"380 1038 OFFCURVE",
"516 1038 CURVE SMOOTH",
"646 1038 OFFCURVE",
"733 975 OFFCURVE",
"733 850 CURVE SMOOTH",
"733 682 OFFCURVE",
"612 664 OFFCURVE",
"406 664 CURVE",
"406 532 LINE",
"650 532 OFFCURVE",
"772 464 OFFCURVE",
"772 328 CURVE SMOOTH",
"772 177 OFFCURVE",
"674 116 OFFCURVE",
"514 116 CURVE SMOOTH",
"369 116 OFFCURVE",
"288 187 OFFCURVE",
"239 280 CURVE",
"113 206 LINE",
"187 74 OFFCURVE",
"312 -18 OFFCURVE",
"524 -18 CURVE SMOOTH",
"747 -18 OFFCURVE",
"936 98 OFFCURVE",
"936 322 CURVE SMOOTH",
"936 483 OFFCURVE",
"836 575 OFFCURVE",
"692 602 CURVE",
"822 639 OFFCURVE",
"887 727 OFFCURVE",
"887 864 CURVE SMOOTH",
"887 1069 OFFCURVE",
"728 1170 OFFCURVE",
"515 1170 CURVE SMOOTH"
);
}
);
width = 1006;
},
{
background = {
paths = (
{
closed = 1;
nodes = (
"202 918 LINE",
"261 1033 OFFCURVE",
"381 1105 OFFCURVE",
"512 1105 CURVE SMOOTH",
"698 1105 OFFCURVE",
"815 1013 OFFCURVE",
"815 867 CURVE SMOOTH",
"815 734 OFFCURVE",
"676 650 OFFCURVE",
"454 650 CURVE",
"454 576 LINE",
"689 576 OFFCURVE",
"836 479 OFFCURVE",
"836 324 CURVE SMOOTH",
"836 153 OFFCURVE",
"718 46 OFFCURVE",
"531 46 CURVE SMOOTH",
"389 46 OFFCURVE",
"261 120 OFFCURVE",
"201 239 CURVE",
"142 201 LINE",
"207 66 OFFCURVE",
"354 -19 OFFCURVE",
"523 -19 CURVE SMOOTH",
"764 -19 OFFCURVE",
"915 114 OFFCURVE",
"915 326 CURVE SMOOTH",
"915 478 OFFCURVE",
"809 588 OFFCURVE",
"641 609 CURVE",
"796 637 OFFCURVE",
"894 737 OFFCURVE",
"894 868 CURVE SMOOTH",
"894 1055 OFFCURVE",
"747 1173 OFFCURVE",
"514 1173 CURVE SMOOTH",
"342 1173 OFFCURVE",
"196 1086 OFFCURVE",
"136 947 CURVE"
);
}
);
};
layerId = "EFCDB4D9-E20B-4A8D-9DB5-150AD166B0AE";
name = Bold;
paths = (
{
closed = 1;
nodes = (
"310 1174 OFFCURVE",
"152 1082 OFFCURVE",
"83 938 CURVE",
"242 862 LINE",
"277 959 OFFCURVE",
"372 1020 OFFCURVE",
"504 1020 CURVE SMOOTH",
"628 1020 OFFCURVE",
"716 953 OFFCURVE",
"716 866 CURVE SMOOTH",
"716 746 OFFCURVE",
"648 678 OFFCURVE",
"410 678 CURVE",
"410 524 LINE",
"651 524 OFFCURVE",
"747 472 OFFCURVE",
"754 340 CURVE SMOOTH",
"761 213 OFFCURVE",
"665 133 OFFCURVE",
"522 133 CURVE SMOOTH",
"386 133 OFFCURVE",
"292 197 OFFCURVE",
"246 312 CURVE",
"89 227 LINE",
"137 76 OFFCURVE",
"304 -22 OFFCURVE",
"521 -22 CURVE SMOOTH",
"790 -22 OFFCURVE",
"959 121 OFFCURVE",
"959 344 CURVE SMOOTH",
"959 489 OFFCURVE",
"861 572 OFFCURVE",
"706 610 CURVE",
"832 647 OFFCURVE",
"911 742 OFFCURVE",
"911 868 CURVE SMOOTH",
"911 1048 OFFCURVE",
"749 1174 OFFCURVE",
"508 1174 CURVE SMOOTH"
);
}
);
width = 1068;
}
);
unicode = 0033;
userData = {
com.typemytype.robofont.layerData = {
b = {
anchors = (
);
components = (
);
contours = (
);
lib = {
};
name = three;
unicodes = (
);
width = 976.14;
};
};
};
},
{
glyphname = four;
lastChange = "2013-12-17 22:01:01 -0800";
layers = (
{
layerId = "98C086B7-81AA-4491-8494-0C6A76849168";
name = Light;
paths = (
{
closed = 1;
nodes = (
"583 1152 LINE",
"476 1152 LINE",
"22 413 LINE",
"33 354 LINE",
"507 354 LINE",
"507 58 LINE",
"356 58 LINE",
"356 0 LINE",
"733 0 LINE",
"733 58 LINE",
"583 58 LINE",
"583 354 LINE",
"823 354 LINE",
"823 413 LINE",
"583 413 LINE"
);
},
{
closed = 1;
nodes = (
"507 1079 LINE",
"507 413 LINE",
"109 413 LINE"
);
}
);
width = 869;
},
{
layerId = "1F09728C-766D-4240-AE17-E499EF32E23D";
name = Regular;
paths = (
{
closed = 1;
nodes = (
"734 1152 LINE",
"596 1152 LINE",
"69 426 LINE",
"86 315 LINE",
"592 315 LINE",
"592 116 LINE",
"407 116 LINE",
"407 0 LINE",
"895 0 LINE",
"895 116 LINE",
"734 116 LINE",
"734 315 LINE",
"924 315 LINE",
"924 436 LINE",
"734 436 LINE"
);
},
{
closed = 1;
nodes = (
"592 946 LINE",
"592 436 LINE",
"230 436 LINE"
);
}
);
width = 1006;
},
{
layerId = "EFCDB4D9-E20B-4A8D-9DB5-150AD166B0AE";
name = Bold;
paths = (
{
closed = 1;
nodes = (
"707 1152 LINE",
"529 1152 LINE",
"35 498 LINE",
"55 334 LINE",
"526 334 LINE",
"526 141 LINE",
"371 141 LINE",
"371 0 LINE",
"842 0 LINE",
"842 141 LINE",
"707 141 LINE",
"707 334 LINE",
"883 334 LINE",
"883 470 LINE",
"707 470 LINE"
);
},
{
closed = 1;
nodes = (
"526 914 LINE",
"526 470 LINE",
"194 470 LINE"
);
}
);
width = 973;
}
);
unicode = 0034;
userData = {
com.typemytype.robofont.layerData = {
b = {
anchors = (
);
components = (
);
contours = (
);
lib = {
};
name = four;
unicodes = (
);
width = 868.615;
};
};
};
},
{
glyphname = five;
lastChange = "2013-12-17 22:01:01 -0800";
layers = (
{
layerId = "98C086B7-81AA-4491-8494-0C6A76849168";
name = Light;
paths = (
{
closed = 1;
nodes = (
"822 1152 LINE",
"183 1152 LINE",
"183 621 LINE",
"242 588 LINE",
"328 666 OFFCURVE",
"432 697 OFFCURVE",
"544 697 CURVE SMOOTH",
"726 697 OFFCURVE",
"844 556 OFFCURVE",
"844 358 CURVE SMOOTH",
"844 141 OFFCURVE",
"696 48 OFFCURVE",
"493 48 CURVE SMOOTH",
"363 48 OFFCURVE",
"219 116 OFFCURVE",
"144 230 CURVE",
"100 179 LINE",
"191 56 OFFCURVE",
"347 -18 OFFCURVE",
"494 -18 CURVE SMOOTH",
"726 -18 OFFCURVE",
"923 104 OFFCURVE",
"923 354 CURVE SMOOTH",
"923 607 OFFCURVE",
"763 762 OFFCURVE",
"534 762 CURVE SMOOTH",
"441 762 OFFCURVE",
"315 731 OFFCURVE",
"249 661 CURVE",
"257 1086 LINE",
"752 1086 LINE",
"752 943 LINE",
"822 943 LINE"
);
}
);
width = 1030;
},
{
background = {
paths = (
{
closed = 1;
nodes = (
"144 230 CURVE",
"100 179 LINE",
"191 56 OFFCURVE",
"347 -18 OFFCURVE",
"494 -18 CURVE SMOOTH",
"726 -18 OFFCURVE",
"923 104 OFFCURVE",
"923 354 CURVE SMOOTH",
"923 607 OFFCURVE",
"763 762 OFFCURVE",
"534 762 CURVE SMOOTH",
"441 762 OFFCURVE",
"315 731 OFFCURVE",
"249 661 CURVE",
"257 1086 LINE",
"752 1086 LINE",
"752 943 LINE",
"822 943 LINE",
"822 1152 LINE",
"183 1152 LINE",
"183 621 LINE",
"242 588 LINE",
"328 666 OFFCURVE",
"432 697 OFFCURVE",
"544 697 CURVE SMOOTH",
"726 697 OFFCURVE",
"844 556 OFFCURVE",
"844 358 CURVE SMOOTH",
"844 141 OFFCURVE",
"696 48 OFFCURVE",
"493 48 CURVE SMOOTH",
"363 48 OFFCURVE",
"219 116 OFFCURVE"
);
}
);
};
layerId = "1F09728C-766D-4240-AE17-E499EF32E23D";
name = Regular;
paths = (
{
closed = 1;
nodes = (
"850 1152 LINE",
"170 1152 LINE",
"169 549 LINE",
"259 503 LINE",
"361 583 OFFCURVE",
"462 620 OFFCURVE",
"548 620 CURVE SMOOTH",
"685 620 OFFCURVE",
"783 526 OFFCURVE",
"783 359 CURVE SMOOTH",
"783 197 OFFCURVE",
"683 96 OFFCURVE",
"523 96 CURVE SMOOTH",
"401 96 OFFCURVE",
"282 170 OFFCURVE",
"214 289 CURVE",
"122 189 LINE",
"213 59 OFFCURVE",
"371 -22 OFFCURVE",
"533 -22 CURVE SMOOTH",
"775 -22 OFFCURVE",
"927 126 OFFCURVE",
"927 362 CURVE SMOOTH",
"927 598 OFFCURVE",
"765 743 OFFCURVE",
"568 743 CURVE SMOOTH",
"482 743 OFFCURVE",
"389 715 OFFCURVE",
"300 656 CURVE",
"316 1036 LINE",
"712 1036 LINE",
"712 885 LINE",
"850 885 LINE"
);
}
);
width = 1006;
},
{
layerId = "EFCDB4D9-E20B-4A8D-9DB5-150AD166B0AE";
name = Bold;
paths = (
{
closed = 1;
nodes = (
"855 1152 LINE",
"166 1152 LINE",
"166 548 LINE",
"280 491 LINE",
"349 560 OFFCURVE",
"440 591 OFFCURVE",
"518 591 CURVE SMOOTH",
"646 591 OFFCURVE",
"740 509 OFFCURVE",
"740 356 CURVE SMOOTH",
"740 214 OFFCURVE",
"662 126 OFFCURVE",
"509 126 CURVE SMOOTH",
"393 126 OFFCURVE",
"295 171 OFFCURVE",
"220 281 CURVE",
"111 171 LINE",
"210 46 OFFCURVE",
"346 -22 OFFCURVE",
"524 -22 CURVE SMOOTH",
"828 -20 OFFCURVE",
"944 154 OFFCURVE",
"944 364 CURVE SMOOTH",
"944 584 OFFCURVE",
"788 751 OFFCURVE",
"550 751 CURVE SMOOTH",
"449 751 OFFCURVE",
"371 722 OFFCURVE",
"303 652 CURVE",
"313 1012 LINE",
"699 1012 LINE",
"699 896 LINE",
"855 896 LINE"
);
}
);
width = 1054;
}
);
unicode = 0035;
userData = {
com.typemytype.robofont.layerData = {
b = {
anchors = (
);
components = (
);
contours = (
);
lib = {
};
name = five;
unicodes = (
);
width = 1030.37;
};
};
};
},
{
glyphname = six;
lastChange = "2013-12-18 04:21:29 -0800";
layers = (
{
layerId = "98C086B7-81AA-4491-8494-0C6A76849168";
name = Light;
paths = (
{
closed = 1;
nodes = (
"510 1227 LINE",
"180 650 LINE",
"180 650 OFFCURVE",
"53 451 OFFCURVE",
"53 317 CURVE SMOOTH",
"53 118 OFFCURVE",
"234 -23 OFFCURVE",
"416 -23 CURVE SMOOTH",
"659 -23 OFFCURVE",
"788 156 OFFCURVE",
"788 345 CURVE SMOOTH",
"788 531 OFFCURVE",
"624 677 OFFCURVE",
"430 677 CURVE SMOOTH",
"371 677 OFFCURVE",
"309 662 OFFCURVE",
"248 632 CURVE",
"576 1187 LINE"
);
},
{
closed = 1;
nodes = (
"567 614 OFFCURVE",
"712 518 OFFCURVE",
"712 329 CURVE SMOOTH",
"712 187 OFFCURVE",
"614 44 OFFCURVE",
"416 44 CURVE SMOOTH",
"220 44 OFFCURVE",
"125 180 OFFCURVE",
"125 320 CURVE SMOOTH",
"125 516 OFFCURVE",
"273 614 OFFCURVE",
"421 614 CURVE SMOOTH"
);
}
);
width = 856;
},
{
background = {
paths = (
{
closed = 1;
nodes = (
"485 742 OFFCURVE",
"459 740 OFFCURVE",
"434 735 CURVE",
"716 1149 LINE",
"616 1223 LINE",
"185 576 LINE SMOOTH",
"145 518 OFFCURVE",
"121 448 OFFCURVE",
"121 369 CURVE SMOOTH",
"121 146 OFFCURVE",
"288 -22 OFFCURVE",
"511 -22 CURVE SMOOTH",
"734 -22 OFFCURVE",
"901 146 OFFCURVE",
"901 369 CURVE SMOOTH",
"901 580 OFFCURVE",
"734 742 OFFCURVE",
"511 742 CURVE SMOOTH"
);
},
{
closed = 1;
nodes = (
"371 98 OFFCURVE",
"266 214 OFFCURVE",
"266 369 CURVE SMOOTH",
"266 512 OFFCURVE",
"371 628 OFFCURVE",
"511 628 CURVE SMOOTH",
"651 628 OFFCURVE",
"756 512 OFFCURVE",
"756 369 CURVE SMOOTH",
"756 214 OFFCURVE",
"651 98 OFFCURVE",
"511 98 CURVE SMOOTH"
);
}
);
};
layerId = "1F09728C-766D-4240-AE17-E499EF32E23D";
name = Regular;
paths = (
{
closed = 1;
nodes = (
"616 1223 LINE",
"205 598 LINE SMOOTH",
"167 540 OFFCURVE",
"127 448 OFFCURVE",
"127 369 CURVE SMOOTH",
"127 146 OFFCURVE",
"288 -22 OFFCURVE",
"511 -22 CURVE SMOOTH",
"734 -22 OFFCURVE",
"901 146 OFFCURVE",
"901 369 CURVE SMOOTH",
"901 653 OFFCURVE",
"614 808 OFFCURVE",
"413 704 CURVE",
"716 1149 LINE"
);
},
{
closed = 1;
nodes = (
"665 628 OFFCURVE",
"765 522 OFFCURVE",
"765 369 CURVE SMOOTH",
"765 214 OFFCURVE",
"651 98 OFFCURVE",
"511 98 CURVE SMOOTH",
"371 98 OFFCURVE",
"253 208 OFFCURVE",
"263 373 CURVE SMOOTH",
"272 516 OFFCURVE",
"375 628 OFFCURVE",
"515 628 CURVE SMOOTH"
);
}
);
width = 1006;
},
{
background = {
paths = (
{
closed = 1;
nodes = (
"403 704 CURVE",
"706 1149 LINE",
"606 1223 LINE",
"195 598 LINE SMOOTH",
"157 540 OFFCURVE",
"117 448 OFFCURVE",
"117 369 CURVE SMOOTH",
"117 146 OFFCURVE",
"278 -22 OFFCURVE",
"501 -22 CURVE SMOOTH",
"724 -22 OFFCURVE",
"891 146 OFFCURVE",
"891 369 CURVE SMOOTH",
"891 653 OFFCURVE",
"604 808 OFFCURVE"
);
},
{
closed = 1;
nodes = (
"361 98 OFFCURVE",
"243 208 OFFCURVE",
"253 373 CURVE SMOOTH",
"262 516 OFFCURVE",
"365 628 OFFCURVE",
"505 628 CURVE SMOOTH",
"655 628 OFFCURVE",
"755 522 OFFCURVE",
"755 369 CURVE SMOOTH",
"755 214 OFFCURVE",
"641 98 OFFCURVE",
"501 98 CURVE SMOOTH"
);
}
);
};
layerId = "EFCDB4D9-E20B-4A8D-9DB5-150AD166B0AE";
name = Bold;
paths = (
{
closed = 1;
nodes = (
"546 1262 LINE",
"189 750 LINE SMOOTH",
"82 596 OFFCURVE",
"74 486 OFFCURVE",
"74 370 CURVE SMOOTH",
"74 137 OFFCURVE",
"259 -19 OFFCURVE",
"508 -19 CURVE SMOOTH",
"767 -19 OFFCURVE",
"917 151 OFFCURVE",
"917 397 CURVE SMOOTH",
"917 614 OFFCURVE",
"748 761 OFFCURVE",
"568 761 CURVE SMOOTH",
"424 761 OFFCURVE",
"356 677 OFFCURVE",
"355 678 CURVE",
"703 1152 LINE"
);
},
{
closed = 1;
nodes = (
"658 612 OFFCURVE",
"732 518 OFFCURVE",
"732 381 CURVE SMOOTH",
"732 238 OFFCURVE",
"649 133 OFFCURVE",
"514 133 CURVE SMOOTH",
"352 133 OFFCURVE",
"284 246 OFFCURVE",
"284 377 CURVE SMOOTH",
"284 528 OFFCURVE",
"393 612 OFFCURVE",
"525 612 CURVE SMOOTH"
);
}
);
width = 990;
}
);
unicode = 0036;
userData = {
com.typemytype.robofont.layerData = {
b = {
anchors = (
);
components = (
);
contours = (
);
lib = {
};
name = six;
unicodes = (
);
width = 856.46;
};
};
};
},
{
glyphname = seven;
lastChange = "2013-12-17 22:01:01 -0800";
layers = (
{
layerId = "98C086B7-81AA-4491-8494-0C6A76849168";
name = Light;
paths = (
{
closed = 1;
nodes = (
"828 1154 LINE",
"88 1154 LINE",
"88 856 LINE",
"160 856 LINE",
"160 1088 LINE",
"746 1088 LINE",
"523 534 OFFCURVE",
"359 0 OFFCURVE",
"359 0 CURVE",
"436 0 LINE",
"436 0 OFFCURVE",
"637 651 OFFCURVE",
"828 1083 CURVE"
);
}
);
width = 878;
},
{
layerId = "1F09728C-766D-4240-AE17-E499EF32E23D";
name = Regular;
paths = (
{
closed = 1;
nodes = (
"902 1153 LINE",
"144 1153 LINE",
"144 860 LINE",
"281 860 LINE",
"281 1036 LINE",
"751 1036 LINE",
"266 0 LINE",
"419 0 LINE",
"902 1025 LINE"
);
}
);
width = 1006;
},
{
layerId = "EFCDB4D9-E20B-4A8D-9DB5-150AD166B0AE";
name = Bold;
paths = (
{
closed = 1;
nodes = (
"920 1215 LINE",
"121 1215 LINE",
"121 892 LINE",
"279 892 LINE",
"279 1074 LINE",
"719 1074 LINE",
"255 0 LINE",
"445 0 LINE",
"920 1084 LINE"
);
}
);
width = 997;
}
);
unicode = 0037;
userData = {
com.typemytype.robofont.layerData = {
b = {
anchors = (
);
components = (
);
contours = (
);
lib = {
};
name = seven;
unicodes = (
);
width = 877.965;
};
};
};
},
